<?xml version="1.0" standalone="no"?><!DOCTYPE svg PUBLIC "-//W3C//DTD SVG 1.1//EN" "http://www.w3.org/Graphics/SVG/1.1/DTD/svg11.dtd"><svg class="icon" width="48px" height="48.00px" viewBox="0 0 1024 1024" version="1.1" xmlns="http://www.w3.org/2000/svg"><path fill="#606266" d="M739.06454993 222.38660407H284.51541614a41.36610031 41.36610031 0 0 0-41.32264852 41.32264853v495.8717823a41.36610031 41.36610031 0 0 0 41.32264852 41.32264853h454.54913379a41.36610031 41.36610031 0 0 0 41.32264851-41.32264853V263.7092526a41.36610031 41.36610031 0 0 0-41.32264851-41.32264853z m-392.565161 41.32264853H677.11678696v144.62926983H346.49938893z m-61.98397279 495.8717823V263.7092526h20.66132427v185.95191836H718.39598369V263.7092526h20.66132427l0.04345179 495.8717823z m108.47014189-454.54913378h41.32264854v61.98397279h-41.32264854z m103.30662131 0h41.32264853v61.98397279h-41.32264853z m103.31386328 0h41.27919674v61.98397279H599.62776852zM571.93449688 490.99830342H484.6833105L408.48336172 599.12083102l103.30662132 26.20142698-53.51087452 109.46229099L615.09660434 587.96820594l-103.3066213-15.59919119z m0 0" /></svg>