<?xml version="1.0" standalone="no"?><!DOCTYPE svg PUBLIC "-//W3C//DTD SVG 1.1//EN" "http://www.w3.org/Graphics/SVG/1.1/DTD/svg11.dtd"><svg class="icon" width="48px" height="48.00px" viewBox="0 0 1024 1024" version="1.1" xmlns="http://www.w3.org/2000/svg"><path  d="M535.51417542 725.75188827V298.10134124H297.93139648v427.65054703z m-285.09778977 1e-8V298.10134124c0-28.5120964 19.00291443-47.5227356 47.51501083-47.52273558h237.58277894c28.5120964 0 47.5227356 19.01063918 47.52273559 47.52273559v142.55275726h142.5450325c28.5120964 0 47.51501084 19.00291443 47.51501084 47.51501083v237.58277894h23.76136779c14.25991058 0 23.76136779 9.50145722 23.7613678 23.7613678s-9.50145722 23.75364304-23.7613678 23.75364304H226.65501785c-14.25218582 0-23.75364304-9.50145722-23.75364304-23.75364304s9.50145722-23.76136779 23.75364304-23.7613678z m332.62052536 0h142.5450325V488.16910934H583.06781006zM345.45413208 345.61635208h47.51501083v47.51501084H345.45413208z m0 95.01457214h47.51501083v47.51501084H345.45413208z m0 95.01457215h47.51501083v47.51501084H345.45413208z m0 95.01457214h47.51501083v47.57680893H345.45413208z m95.01457214-285.10551452h47.51501084v47.51501083h-47.49956132z m0 95.01457214h47.51501084v47.51501083h-47.49956132z m0 95.01457214h47.51501084v47.51501084h-47.49956132z m190.0677681 0H678.08238221v47.51501084h-47.53046037z m-190.02914429 95.01457214h47.51501084v47.63860703h-47.53818513z m190.0677681 0H678.08238221v47.63860703h-47.53046037z m-1e-8 0" /></svg>