<?xml version="1.0" standalone="no"?><!DOCTYPE svg PUBLIC "-//W3C//DTD SVG 1.1//EN" "http://www.w3.org/Graphics/SVG/1.1/DTD/svg11.dtd"><svg t="1589449379322" class="icon" viewBox="0 0 1024 1024" version="1.1" xmlns="http://www.w3.org/2000/svg" p-id="2827" xmlns:xlink="http://www.w3.org/1999/xlink" width="64" height="64"><defs><style type="text/css"></style></defs><path d="M511.872 109.952l435.712 357.76h-160.96v446.528c0 18.944-15.36 34.304-34.304 34.304H632.064v-274.752a34.304 34.304 0 0 0-34.304-34.304H426.048a34.368 34.368 0 0 0-34.368 34.304v274.752H271.488a34.368 34.368 0 0 1-34.368-34.304V467.712H77.248l434.688-357.76z m0-51.2a51.2 51.2 0 0 0-32.512 11.648L44.672 428.224a51.264 51.264 0 0 0 32.512 90.752h108.672v395.328c0 47.168 38.4 85.504 85.568 85.504h120.192a51.2 51.2 0 0 0 51.2-51.2v-257.92h137.984v257.92a51.2 51.2 0 0 0 51.2 51.2h120.256c47.168 0 85.504-38.4 85.504-85.504V518.976h109.76a51.136 51.136 0 0 0 32.512-90.752l-435.712-357.76a51.328 51.328 0 0 0-32.512-11.648z" p-id="2828" fill="#707070"></path></svg>