<?xml version="1.0" standalone="no"?><!DOCTYPE svg PUBLIC "-//W3C//DTD SVG 1.1//EN" "http://www.w3.org/Graphics/SVG/1.1/DTD/svg11.dtd"><svg t="1594612005523" class="icon" viewBox="0 0 1024 1024" version="1.1" xmlns="http://www.w3.org/2000/svg" p-id="6131" width="64" height="64" xmlns:xlink="http://www.w3.org/1999/xlink"><defs><style type="text/css"></style></defs><path d="M512 760.55134815c137.27364741 0 248.55134815-111.27770075 248.55134815-248.55134815S649.27364741 263.44865185 512 263.44865185 263.44865185 374.72635259 263.44865185 512 374.72635259 760.55134815 512 760.55134815z m0 62.13783703c-171.59509333 0-310.68918518-139.09409185-310.68918518-310.68918518s139.09409185-310.68918518 310.68918518-310.68918518 310.68918518 139.09409185 310.68918518 310.68918518-139.09409185 310.68918518-310.68918518 310.68918518z m31.06891852-341.7581037h82.85449481a31.06891852 31.06891852 0 0 1 0 62.13783704H543.06891852v82.85449481a31.06891852 31.06891852 0 0 1-62.13783704 0V543.06891852h-82.85449481a31.06891852 31.06891852 0 1 1 0-62.13783704h82.85449481v-82.85449481a31.06891852 31.06891852 0 0 1 62.13783704 0z m0 0" p-id="6132" fill="#ffffff"></path></svg>