<?xml version="1.0" standalone="no"?><!DOCTYPE svg PUBLIC "-//W3C//DTD SVG 1.1//EN" "http://www.w3.org/Graphics/SVG/1.1/DTD/svg11.dtd"><svg t="1593094387431" class="icon" viewBox="0 0 1024 1024" version="1.1" xmlns="http://www.w3.org/2000/svg" p-id="7943" xmlns:xlink="http://www.w3.org/1999/xlink" width="48" height="48"><defs><style type="text/css"></style></defs><path d="M512 745.01688889c128.69404445 0 233.01688889-104.32284445 233.01688889-233.01688889S640.69404445 278.98311111 512 278.98311111 278.98311111 383.30595555 278.98311111 512 383.30595555 745.01688889 512 745.01688889z m0 58.25422222c-160.8704 0-291.27111111-130.40071111-291.27111111-291.27111111s130.40071111-291.27111111 291.27111111-291.27111111 291.27111111 130.40071111 291.27111111 291.27111111-130.40071111 291.27111111-291.27111111 291.27111111z m29.12711111-320.39822222h77.67608889a29.12711111 29.12711111 0 0 1 0 58.25422222H541.12711111v77.67608889a29.12711111 29.12711111 0 0 1-58.25422222 0V541.12711111h-77.67608889a29.12711111 29.12711111 0 1 1 0-58.25422222h77.67608889v-77.67608889a29.12711111 29.12711111 0 0 1 58.25422222 0z m0 0" p-id="7944" ></path></svg>