<?xml version="1.0" standalone="no"?><!DOCTYPE svg PUBLIC "-//W3C//DTD SVG 1.1//EN" "http://www.w3.org/Graphics/SVG/1.1/DTD/svg11.dtd"><svg t="1591579066223" class="icon" viewBox="0 0 1024 1024" version="1.1" xmlns="http://www.w3.org/2000/svg" p-id="3204" width="48" height="48" xmlns:xlink="http://www.w3.org/1999/xlink"><defs><style type="text/css"></style></defs><path d="M230.22933333 487.84497778c-6.0416 6.0416-10.06933333 14.08568889-10.06933333 22.14115555 0 10.05795555 6.0416 20.12728889 14.09706667 24.15502222L491.87271111 781.65333333c12.07182222 12.07182222 30.19662222 12.07182222 42.26844444 0a28.83128889 28.83128889 0 0 0 8.05546667-20.12728888c0-8.04408889-4.02773333-16.09955555-10.06933333-22.14115556L326.83804445 542.18524445H773.68888889c16.09955555 0 30.19662222-14.08568889 30.19662222-30.18524445s-14.14257778-30.19662222-30.19662222-30.19662222H324.82417778l207.30311111-197.23377778c12.07182222-12.07182222 12.07182222-30.18524445 0-42.26844445s-30.19662222-12.07182222-42.26844444 0z m0 0" p-id="3205" fill="#558cf7"></path></svg>