<?xml version="1.0" standalone="no"?><!DOCTYPE svg PUBLIC "-//W3C//DTD SVG 1.1//EN" "http://www.w3.org/Graphics/SVG/1.1/DTD/svg11.dtd"><svg t="1591416946572" class="icon" viewBox="0 0 1024 1024" version="1.1" xmlns="http://www.w3.org/2000/svg" p-id="4093" xmlns:xlink="http://www.w3.org/1999/xlink" width="48" height="48"><defs><style type="text/css"></style></defs><path d="M406.68122075 507.26684445c-49.75881482 0-92.30866963 40.23182222-92.30866964 92.30866963 0 49.75881482 40.23182222 92.30866963 92.30866964 92.30866962 49.69813333 0 92.23585185-40.24395852 92.23585184-92.30866962 0.06068148-49.71026963-42.53771852-92.30866963-92.23585184-92.30866963z m0 137.2736474a44.97711408 44.97711408 0 1 1 44.90429628-44.96497777 44.96497778 44.96497778 0 0 1-44.90429628 44.96497777zM458.74593185 332.12795259l-66.27631407 68.63075556-37.86524445-40.23182223a22.87691852 22.87691852 0 0 0-33.13208888 0c-9.47844741 9.46631111-9.47844741 26.03235555 0 35.49866667l54.43128888 54.44342519c4.73315555 4.73315555 9.47844741 7.09973333 16.56604445 7.09973333s11.84502518-2.36657778 16.57818074-7.09973333l82.83022223-85.2089363a23.42305185 23.42305185 0 0 0-33.1320889-33.13208889zM683.59509333 580.64289185H548.6880237c-14.19946667 0-23.66577778 9.46631111-23.66577778 23.66577778s9.46631111 23.66577778 23.66577778 23.66577778h134.90706963c14.19946667 0 23.66577778-9.46631111 23.66577778-23.66577778s-9.46631111-23.66577778-23.66577778-23.66577778z" p-id="4094" fill="#558cf7"></path><path d="M747.50482963 228.01066667H276.55585185c-28.39893333 0-49.69813333 23.66577778-49.69813333 49.69813333v468.60667259C226.79703703 774.71440592 250.46281482 795.98933333 276.55585185 795.98933333h468.5824c28.39893333 0 49.69813333-23.66577778 49.69813333-49.69813333h2.42725927V277.68452741c-0.06068148-28.39893333-23.72645925-49.67386075-49.75881482-49.67386074z m2.42725926 518.32907851a2.31803259 2.31803259 0 0 1-2.42725926 2.36657779H276.55585185a2.31803259 2.31803259 0 0 1-2.36657777-2.36657779L276.55585185 275.34222222h471.00965926a2.31803259 2.31803259 0 0 1 2.42725926 2.36657778z" p-id="4095" fill="#558cf7"></path><path d="M683.59509333 410.22501925H548.6880237c-14.19946667 0-23.66577778 9.46631111-23.66577778 23.66577778s9.46631111 23.67791408 23.66577778 23.67791408h134.90706963c14.19946667 0 23.66577778-9.47844741 23.66577778-23.67791408s-9.46631111-23.66577778-23.66577778-23.66577778z" p-id="4096" fill="#558cf7"></path></svg>