<?xml version="1.0" standalone="no"?><!DOCTYPE svg PUBLIC "-//W3C//DTD SVG 1.1//EN" "http://www.w3.org/Graphics/SVG/1.1/DTD/svg11.dtd"><svg t="1591890718032" class="icon" viewBox="0 0 1024 1024" version="1.1" xmlns="http://www.w3.org/2000/svg" p-id="3315" width="128" height="128" xmlns:xlink="http://www.w3.org/1999/xlink"><defs><style type="text/css"></style></defs><path d="M392.4 821.2c-4.5 39.8-9.1 47-30.1 47.8-47 1.9-47.5 1.5-56.8-48.8-9.3 0-19.1 0.1-28.8 0-41-0.7-66.2-26.1-66.2-67.3-0.1-177.5-0.1-354.9 0-532.4 0-40.7 26-66.5 66.9-66.5 156.2-0.1 312.4-0.1 468.6 0 40.8 0 66.7 25.9 66.7 66.8 0.1 177.5 0.1 354.9 0 532.4 0 41-25.4 66.5-66.4 67-10.8 0.2-21.6 0-28.9 0-6 16-7.5 33.8-17.2 42-9.1 7.6-26.8 6.1-40.7 6.5-22.5 0.6-24.9-3.6-32.7-47.6l-234.4 0.1z m384.8-333.4v-264c0-25-9.1-34.1-33.9-34.1H280.5c-25.1 0-34.4 9.1-34.4 33.6v528.1c0 23.9 9.3 33.2 33.2 33.3 34.1 0.2 68.2 0 102.3 0 120.6 0 241.2 0 361.9-0.1 24.7 0 33.7-9.3 33.7-34.3 0.1-87.5 0.1-175 0-262.5z m-445 356.6h34.3v-23.1h-34.3v23.1z m355.4-23.1h-34.5v22.9h34.5v-22.9z" fill="#558CF7" p-id="3316"></path><path d="M513 747.6H321.8c-25.5 0-36.2-10.4-36.2-35.9-0.1-60.8-0.1-121.6 0-182.3 0-25.8 11.1-36.7 37.3-36.7 127-0.1 254-0.1 381 0 26 0 36.9 11 37 37 0.1 60.3 0.1 120.6 0 180.8 0 27.2-10.3 37.1-38 37.1-63.4 0.1-126.7 0.1-189.9 0z m197.1-30.1V523.1H316.3v194.4h393.8zM481.9 383.6c-13.9-2.9-25.5-5.1-37-7.7-16.5-3.8-19.5-13.1-7.7-24.7 33.8-33.2 67.6-66.4 102.1-98.9 4-3.8 11.9-3.3 18-4.8 1.2 5.7 4.4 12 3.2 17.2-5.2 21-11.8 41.7-18.3 64.2 12.2 2.8 24.1 5.4 35.8 8.4 16.6 4.2 19 12.4 6.9 24.8-31.7 32.5-63.4 65-95.8 96.9-4.3 4.2-12.4 4.5-18.8 6.5-1.3-6.7-4.6-13.8-3.4-20 4-20.3 9.6-40.2 15-61.9z m73.4-27c-7.8-1.7-14.4-3.1-21-4.5-19.2-4.3-21.2-7.6-15.9-26.3 2.2-7.9 4.4-15.7 7.6-27.6l-54.6 58.6c5.7 1.3 13.3 3.7 21 4.7 13.6 1.8 17.6 9.1 14.3 21.7-2.3 9-4.4 18-5.8 23.7l54.4-50.3z" fill="#558CF7" p-id="3317"></path><path d="M691.3 571.2c0.2 15.7-10.7 27.5-25.9 28-15.8 0.5-27.9-11.5-27.8-27.6 0.1-15.6 11.4-27.2 26.7-27.2 15.4-0.2 26.8 11.1 27 26.8z m-26.6-13.1c-4.4 6.5-9 10.2-8.7 13.5 0.3 3.4 5.3 6.4 8.2 9.6 3-3.1 8.1-5.9 8.5-9.3 0.5-3.3-3.8-7.1-8-13.8z" fill="#558CF7" p-id="3318"></path></svg>