<?xml version="1.0" standalone="no"?><!DOCTYPE svg PUBLIC "-//W3C//DTD SVG 1.1//EN" "http://www.w3.org/Graphics/SVG/1.1/DTD/svg11.dtd"><svg t="1591456481856" class="icon" viewBox="0 0 1024 1024" version="1.1" xmlns="http://www.w3.org/2000/svg" p-id="4706" width="48" height="48" xmlns:xlink="http://www.w3.org/1999/xlink"><defs><style type="text/css"></style></defs><path d="M774.13 404.12H248.19c-13.49 0-25.29-11.81-25.29-25.29s11.8-25.29 25.29-25.29h527.62c13.49 0 25.29 11.8 25.29 25.29s-11.8 25.29-27 25.29z m0 0" fill="#ffffff" p-id="4707"></path><path d="M676.36 404.12c-13.49 0-25.29-11.81-25.29-25.29v-69.12c0-23.6-21.91-42.14-48.88-42.14H418.44c-27 0-48.88 18.54-48.88 42.14v69.12c0 13.48-11.8 25.29-25.29 25.29S319 392.31 319 378.83v-69.12c0-50.57 45.5-92.71 99.44-92.71h183.75c55.62 0 99.45 42.14 99.45 92.71v69.12c0 13.48-11.8 25.29-25.28 25.29zM641 807H378a94.24 94.24 0 0 1-94.39-94.4V483.34c0-13.48 11.8-25.28 25.28-25.28s25.29 11.8 25.29 25.28v231A43.52 43.52 0 0 0 378 758.12h263a43.52 43.52 0 0 0 43.82-43.83V483.34c0-13.48 11.81-25.28 25.29-25.28s25.29 11.8 25.29 25.28v231C733.67 764.86 691.53 807 641 807z m0 0" fill="#ffffff" p-id="4708"></path><path d="M443.73 704.17c-13.49 0-25.29-11.8-25.29-25.28V512c0-13.49 11.8-25.29 25.29-25.29S469 498.51 469 512v166.89c0 13.48-11.8 25.28-25.28 25.28z m131.48 0c-13.48 0-25.28-11.8-25.28-25.28V512c0-13.49 11.8-25.29 25.28-25.29s25.29 11.8 25.29 25.29v166.89c0 13.48-11.8 25.28-25.29 25.28z m0 0" fill="#ffffff" p-id="4709"></path></svg>