<?xml version="1.0" standalone="no"?><!DOCTYPE svg PUBLIC "-//W3C//DTD SVG 1.1//EN" "http://www.w3.org/Graphics/SVG/1.1/DTD/svg11.dtd"><svg t="1591595925068" class="icon" viewBox="0 0 1024 1024" version="1.1" xmlns="http://www.w3.org/2000/svg" p-id="8787" xmlns:xlink="http://www.w3.org/1999/xlink" width="48" height="48"><defs><style type="text/css"></style></defs><path d="M511.7 806.57c-162.55 0-294.81-132.26-294.81-294.81S349.15 217 511.7 217s294.8 132.26 294.8 294.8-132.26 294.77-294.8 294.77z m0-541.81c-137 0-247 111.55-247 247 0 137 111.55 247 247 247s247-111.54 247-247a246.19 246.19 0 0 0-247-247z m0 0" p-id="8788" fill="#666666"></path><path d="M705.09 668.88l-350-350c-9.66-9.65-26.55-9.65-36.21 0s-9.65 26.55 0 36.21l350 350c9.66 9.65 26.55 9.65 36.21 0s9.65-26.55 0-36.21z" p-id="8789" fill="#666666"></path></svg>