<?xml version="1.0" standalone="no"?><!DOCTYPE svg PUBLIC "-//W3C//DTD SVG 1.1//EN" "http://www.w3.org/Graphics/SVG/1.1/DTD/svg11.dtd"><svg t="1591890726693" class="icon" viewBox="0 0 1024 1024" version="1.1" xmlns="http://www.w3.org/2000/svg" p-id="3513" xmlns:xlink="http://www.w3.org/1999/xlink" width="128" height="128"><defs><style type="text/css"></style></defs><path d="M511.72 853.11c-113 0-225.92-0.32-338.8 0.41-15.6 0.07-19.28-4.25-19.28-19.61q0.84-287-0.08-574.07c-0.08-17.28 6-20 20.88-19.68 35.68 0.72 35.76 0.15 35.76-35.6 0-34.32 0-34.32 33.6-34.32h547.76c23 0 22.88 0.07 23 22.55 0.08 14.64-4.56 32.48 2.16 43 7.68 11.85 27 4 41 4.41 13 0.31 11.68 8 11.68 16.24q-0.12 131.64 0 263.35c0 104.72-0.32 209.52 0.4 314.25 0.08 15.36-3.76 19.68-19.28 19.52-113-0.73-225.92-0.41-338.88-0.41z m0.08-577.91H211.64c-23 0-23 0-23 22.32v484.39c0 36.4 0.08 35.36 37 36.81 17.92 0.71 22.4-4.56 22.32-22.32-0.72-137.52-0.16-275-0.8-412.49-0.08-16.23 4.64-20.39 20.56-20.16q96.48 1.32 193 0c15.84-0.23 20.64 3.85 20.56 20.16-0.64 138.65-0.16 277.29-0.64 416-0.08 14.56 3.92 18.81 18.64 18.72q158.88-0.82 317.68 0c15.2 0.09 18.08-5 18.08-19q-0.72-252.72 0.08-505.43c0.08-15.85-4.64-19.37-19.76-19.28-101.2 0.64-202.4 0.32-303.6 0.32zM282.36 563.68c0 50.32 0.32 100.63-0.24 151-0.16 11.84 2.8 16.32 15.44 16.16q66.72-1.06 133.36 0c12.72 0.25 15.52-4.32 15.44-16.16q-0.6-150.11 0-300.16c0.08-11.91-2.88-16.16-15.44-15.91q-66.72 1.08-133.36 0c-12.56-0.25-15.6 4-15.52 15.91 0.64 49.77 0.32 99.53 0.32 149.21z m229.36-325.52h61.36c63.76 0 127.44 0.08 191.2-0.16 5.12 0 11.84 3.2 15-4.72 6.52-16.17-1.08-28.28-18.04-28.28q-249.12 0-498.16-0.24c-12.32 0-18.88 1.36-18.8 16.64 0.08 14.64 5.44 17 18.32 16.95 83-0.4 166.08-0.15 249.12-0.15zM366 771h-54.28c-29.84 0-29.2 0-29.76 29.36-0.24 12.8 3 17.28 16.48 17 39.12-0.88 78.24 0.08 117.28-0.4 34.48-0.48 29.6 7.43 30.48-32.25 0.24-10.55-2.88-14.32-13.76-14-22 0.8-44.16 0.25-66.4 0.25z m0 0" fill="#81C7F9" p-id="3514"></path><path d="M771.88 455.27C722.6 508 676.52 557.2 630.44 606.47c-1.2-0.72-2.32-1.43-3.52-2.16q17-34.9 34.16-69.84C678.52 499 678.52 499 639.24 499.6c-18.72 0.31-18.8 0.24-10.48-16.08 15.92-31.21 32.32-62.16 47.68-93.61 4.24-8.71 9.2-11.83 18.72-11.44 18.08 0.73 36.24 0.25 58.32 0.25-15.76 26.07-30.16 50-46.24 76.64 22.16-0.09 41-0.09 64.64-0.09z m-97 248.32H580.2c-12.32 0-25.12-1-25.68-16.8-0.56-16 11.92-17.91 24.48-18q96.48-0.1 192.88 0c11.92 0 23.44 1.77 23.76 16.8 0.32 16.16-11.68 18-24.32 18z m1.92 42.49h94.72c12.64 0 24.64 1.83 24.16 18.08-0.4 15-11.92 16.72-23.84 16.72H579c-12.72 0-24.8-2.25-24.4-18.09 0.32-14.79 12.16-16.63 24.08-16.71 32.64-0.08 65.36 0 98.16 0z m0 0" fill="#81C7F9" p-id="3515"></path></svg>