<?xml version="1.0" standalone="no"?><!DOCTYPE svg PUBLIC "-//W3C//DTD SVG 1.1//EN" "http://www.w3.org/Graphics/SVG/1.1/DTD/svg11.dtd"><svg t="1591893478171" class="icon" viewBox="0 0 1024 1024" version="1.1" xmlns="http://www.w3.org/2000/svg" p-id="3763" width="48" height="48" xmlns:xlink="http://www.w3.org/1999/xlink"><defs><style type="text/css"></style></defs><path d="M385.21 402.24l112.65-112.71a20.49 20.49 0 0 1 28.19 0l112.64 112.71a19.89 19.89 0 1 1-28.12 28.13l-78.68-78.68v216.4a20 20 0 1 1-39.94 0v-216.4l-78.64 78.68c-7.51 7.51-20.58 7.51-28.13 0a19.84 19.84 0 0 1 0-28.1z m379.65 146.17a20 20 0 0 1 20 19.93v151.49a20 20 0 0 1-20 19.93H259a20 20 0 0 1-20-19.93V568.34a20 20 0 1 1 39.94 0v131.52h465.92V568.34a20 20 0 0 1 20-19.93z m0 0" p-id="3764" ></path></svg>