<?xml version="1.0" standalone="no"?><!DOCTYPE svg PUBLIC "-//W3C//DTD SVG 1.1//EN" "http://www.w3.org/Graphics/SVG/1.1/DTD/svg11.dtd"><svg t="1591324549255" class="icon" viewBox="0 0 1024 1024" version="1.1" xmlns="http://www.w3.org/2000/svg" p-id="2844" width="32" height="32" xmlns:xlink="http://www.w3.org/1999/xlink"><defs><style type="text/css"></style></defs><path d="M650 810.84H298.45c-49.49 0-90.45-41-90.45-90.45V304c0-49.49 41-90.45 90.45-90.45H650c49.49 0 90.45 41 90.45 90.45 0 13.65-12 25.6-25.6 25.6s-25.6-11.95-25.6-25.6c0-20.48-17.07-39.25-39.25-39.25H298.45c-20.48 0-39.25 17.06-39.25 39.25v418.09c0 20.48 17.07 39.26 39.25 39.26H650c20.48 0 39.25-17.07 39.25-39.26v-88.74c0-13.66 12-25.6 25.6-25.6s25.6 11.94 25.6 25.6v88.74c0 47.79-41 88.75-90.45 88.75z m0 0" p-id="2845" fill="#558cf7"></path><path d="M476 713.56c-6.83 0-13.66-3.41-18.78-6.83-8.53-8.53-10.24-18.77-5.12-29l51.2-107.52a23.68 23.68 0 0 1 5.13-6.83l198-198c23.89-23.89 66.56-23.89 90.45 0 25.6 25.6 25.6 66.56 0 90.45l-196.26 198c-1.71 1.7-5.13 3.41-6.83 5.12l-107.52 51.2c-3.42 3.41-6.83 3.41-10.24 3.41z m71.62-117.76l-17.06 35.84 35.84-17.07L761 420a13.27 13.27 0 0 0-18.77-18.77z m0 0" p-id="2846" fill="#558cf7"></path><path d="M757.55 486.57c-6.83 0-13.65-1.7-18.78-6.83l-54.61-54.61c-10.24-10.24-10.24-25.6 0-35.84s25.6-10.24 35.84 0l54.61 54.62c10.24 10.24 10.24 25.6 0 35.83a26 26 0 0 1-17.06 6.83z m0 0M559.57 399.53H337.71c-13.66 0-25.61-11.95-25.61-25.6s11.95-25.59 25.61-25.59h221.86c13.66 0 25.6 11.94 25.6 25.59s-10.24 25.6-25.6 25.6z m0 0M436.69 517.29h-99c-13.66 0-25.61-11.94-25.61-25.6s11.95-25.6 25.61-25.6h99c13.66 0 25.6 12 25.6 25.6s-11.94 25.6-25.6 25.6z m0 0" p-id="2847" fill="#558cf7"></path></svg>