<?xml version="1.0" standalone="no"?><!DOCTYPE svg PUBLIC "-//W3C//DTD SVG 1.1//EN" "http://www.w3.org/Graphics/SVG/1.1/DTD/svg11.dtd"><svg t="1591595994801" class="icon" viewBox="0 0 1024 1024" version="1.1" xmlns="http://www.w3.org/2000/svg" p-id="8946" xmlns:xlink="http://www.w3.org/1999/xlink" width="48" height="48"><defs><style type="text/css"></style></defs><path d="M511.7 806.57c-162.55 0-294.81-132.26-294.81-294.81S349.15 217 511.7 217s294.8 132.26 294.8 294.8-132.26 294.77-294.8 294.77z m0-541.81c-137 0-247 111.55-247 247 0 137 111.55 247 247 247s247-111.54 247-247a246.19 246.19 0 0 0-247-247z m0 0" p-id="8947" ></path><path d="M661.83 407.12a19.83 19.83 0 0 0-28.67 0L466.35 573.93l-75.51-75.52a20.27 20.27 0 1 0-28.67 28.67l90.33 90.32c3.67 3.67 8.79 5.61 14.81 5.61s11.16-1.94 14.84-5.63l179.68-181.6a19.82 19.82 0 0 0 0-28.66z" p-id="8948"></path></svg>