<?xml version="1.0" standalone="no"?><!DOCTYPE svg PUBLIC "-//W3C//DTD SVG 1.1//EN" "http://www.w3.org/Graphics/SVG/1.1/DTD/svg11.dtd"><svg t="1591416923357" class="icon" viewBox="0 0 1024 1024" version="1.1" xmlns="http://www.w3.org/2000/svg" p-id="3484" xmlns:xlink="http://www.w3.org/1999/xlink" width="48" height="48"><defs><style type="text/css"></style></defs><path d="M806.98643595 509.12612503c0-10.21390697-7.59893965-20.42781392-15.36616928-23.01689046l-137.86832592-58.70731062L791.62026667 368.65577718q15.32733314-7.65072118 15.32733314-22.97805432c0-10.22685235-7.66366657-20.44075931-15.32733314-22.99099969L520.93231408 207.78350617a21.81296987 21.81296987 0 0 0-17.86462816 0L232.37973333 322.68672317q-15.32733314 7.65072118-15.32733314 22.99099969c0 10.21390697 7.66366657 20.42781392 15.32733314 22.97805432l137.92010747 58.74614677L232.37973333 486.10923457q-15.32733314 7.65072118-15.32733314 22.97805432c0 10.21390697 7.66366657 20.42781392 15.32733314 22.9909997l143.02058825 61.29638716L232.37973333 654.69695369q-15.32733314 7.66366657-15.32733314 22.9909997c0 10.21390697 7.66366657 20.44075931 15.32733314 22.9909997l270.68795259 114.92910774a19.31451102 19.31451102 0 0 0 10.21390697 2.58907656c2.58907653 0 5.1004808 0 7.65072119-2.58907656L791.62026667 700.67895309q15.32733314-7.67661195 15.32733314-22.9909997c0-10.21390697-7.66366657-20.42781392-15.32733314-22.9909997l-142.9817521-61.28344179L791.62026667 532.11712475q15.36616928-7.66366657 15.36616928-22.99099972zM303.85119131 345.67772286L513.29453827 256.27690983l209.43040158 89.40081303-137.93305283 58.73320139h-2.58907655L513.29453827 435.05264514l-68.96005374-30.64172089h-2.58907653zM722.71199447 677.70089876L513.29453827 767.0240395l-209.44334696-89.32314074 135.35692167-58.73320137 63.85957294 28.09148048c5.1004808 2.58907653 5.1004808 2.58907653 10.21390697 2.58907655s7.65072118-2.58907653 10.21390696-2.58907655l63.84662756-28.09148048zM510.70546173 598.51399269l-209.4174562-89.38786766 130.26938628-56.18296098 71.51029411 30.64172089a21.63173452 21.63173452 0 0 0 20.42781393 0l66.40981333-30.64172089 130.24349551 56.18296098z" p-id="3485" fill="#558cf7"></path></svg>