<?xml version="1.0" standalone="no"?><!DOCTYPE svg PUBLIC "-//W3C//DTD SVG 1.1//EN" "http://www.w3.org/Graphics/SVG/1.1/DTD/svg11.dtd"><svg t="1589966564001" class="icon" viewBox="0 0 1024 1024" version="1.1" xmlns="http://www.w3.org/2000/svg" p-id="3151" width="64" height="64" xmlns:xlink="http://www.w3.org/1999/xlink"><defs><style type="text/css"></style></defs><path d="M511.07 351.43a89.43 89.43 0 0 1 89.15 89.5c0 20.92-10.34 37.34-33.11 60.49l-5.7 5.73c-20.24 20.21-27.3 29.32-27.3 38v28a23 23 0 0 1-46.08 0v-28C488 522.48 499 505 522.84 480.7l6-6.08 3.93-3.92 6.38-6.59c9.93-10.58 15-18.16 15-23.18a43.36 43.36 0 0 0-43.14-43.49c-24.24 0-43.15 18.61-43.15 42.47a23 23 0 1 1-46-0.07c0-48.74 40-88.41 89.16-88.41z m-29.39 290.34A27.31 27.31 0 1 1 509 669.08a27.31 27.31 0 0 1-27.3-27.31z m29.39 88.75c120.64 0 218.45-97.81 218.45-218.45s-97.81-218.46-218.45-218.46-218.46 97.81-218.46 218.46 97.81 218.45 218.46 218.45z m0 54.61C360.26 785.13 238 662.88 238 512.07S360.26 239 511.07 239s273.06 122.26 273.06 273.07-122.25 273.06-273.06 273.06z m0 0" p-id="3152" fill="#558cf7"></path></svg>