<?xml version="1.0" standalone="no"?><!DOCTYPE svg PUBLIC "-//W3C//DTD SVG 1.1//EN" "http://www.w3.org/Graphics/SVG/1.1/DTD/svg11.dtd"><svg t="1590023806482" class="icon" viewBox="0 0 1024 1024" version="1.1" xmlns="http://www.w3.org/2000/svg" p-id="3876" xmlns:xlink="http://www.w3.org/1999/xlink" width="64" height="64"><defs><style type="text/css"></style></defs><path d="M192.51 473.9a25.6 25.6 0 0 1-14.66-46.61l331.23-230.74a25.6 25.6 0 0 1 30 0.53l307.31 230.74a25.6 25.6 0 1 1-30.74 40.94l-292.5-219.61-316 220.15a25.43 25.43 0 0 1-14.6 4.6z m586.56 357.94H600.89a25.6 25.6 0 0 1-25.6-25.6V627.3H472.57v178.94a25.6 25.6 0 0 1-25.6 25.6H265a25.6 25.6 0 0 1-25.6-25.6v-306a25.6 25.6 0 0 1 51.2 0v280.4h130.77V601.7A25.6 25.6 0 0 1 447 576.1h153.89a25.6 25.6 0 0 1 25.6 25.6v178.94h127V500.26a25.6 25.6 0 1 1 51.2 0v306a25.6 25.6 0 0 1-25.6 25.6z m0 0" p-id="3877" fill="#2b2f51"></path></svg>