<?xml version="1.0" standalone="no"?><!DOCTYPE svg PUBLIC "-//W3C//DTD SVG 1.1//EN" "http://www.w3.org/Graphics/SVG/1.1/DTD/svg11.dtd"><svg t="1590112742486" class="icon" viewBox="0 0 1024 1024" version="1.1" xmlns="http://www.w3.org/2000/svg" p-id="2784" xmlns:xlink="http://www.w3.org/1999/xlink" width="64" height="64"><defs><style type="text/css"></style></defs><path d="M509.41 572.69a179.2 179.2 0 0 1 0-358.4c99 0 179.2 78.51 179.2 177.5 0 100.69-80.21 180.9-179.2 180.9z m0-308.9a128 128 0 0 0 0 256c70 0 128-58 128-128s-58-128-128-128z m-75.09 546.13h-87A97.23 97.23 0 0 1 250 712.64c0-52.9 44.38-97.28 97.28-97.28h201.39c13.65 0 25.6 11.95 25.6 25.6s-11.95 25.6-25.6 25.6h-203.1a46.08 46.08 0 1 0 0 92.16h87c13.66 0 25.6 11.95 25.6 25.6s-10.24 25.6-23.89 25.6z m283.3 0H540.13c-10.24 0-20.48-6.83-23.89-15.36s-1.71-20.48 5.12-27.31L729.57 559c10.24-10.24 25.6-10.24 35.84 0s10.24 25.6 0 35.84L599.87 760.43h116c13.65 0 25.6 11.94 25.6 25.6s-10.24 23.89-23.9 23.89z m0 0" p-id="2785" fill="#558cf7"></path></svg>