<?xml version="1.0" standalone="no"?><!DOCTYPE svg PUBLIC "-//W3C//DTD SVG 1.1//EN" "http://www.w3.org/Graphics/SVG/1.1/DTD/svg11.dtd"><svg t="1589542418594" class="icon" viewBox="0 0 1024 1024" version="1.1" xmlns="http://www.w3.org/2000/svg" p-id="2190" width="200" height="200" xmlns:xlink="http://www.w3.org/1999/xlink"><defs><style type="text/css"></style></defs><path d="M479.9 495.53h-9l-0.62 3.32h1.21l-5.21 26.37a3.49 3.49 0 0 0 0.86 3.1 3.17 3.17 0 0 0 2.29 0.92h39.14l0.76-4.11h-33.12a1.63 1.63 0 0 1-1.73-2z" p-id="2191" fill="#ffffff"></path><path d="M484.6 487.38h26a3.46 3.46 0 0 1 3.19 3.78l-5.12 26.45s-0.52 1.46 1 1.43h0.92l-0.68 3.43h-5.81a3 3 0 0 1-2.59-1.34 3.5 3.5 0 0 1-0.72-2.71l5.06-25.73a1.42 1.42 0 0 0-1.56-1.81h-20.3z" p-id="2192" fill="#ffffff"></path><path d="M492.48 495.53l-1.54 7.55h-9.43l-0.63 3.31h9.42l-3.17 16.08h7.98l3.02-16.03h2.5l0.64-3.42h-2.42l1.38-7.49h-7.75zM520.51 487.38l-8.15 41.86h3.86s3.34 0.39 4-3.68l6.8-34.43h2.39l-1 5.32h-1.78l-0.63 3.35h1.78l-2 10.13H524l-0.65 3.31h1.76l-3.15 16h4.37s3 0.2 3.5-3.68l7.51-38.18zM539.12 487.38l2.32 2.88h-3.48l-0.71 3.55h6.38l-1.85 2.15h-4.91l-0.72 3.59h2.55l-3.42 4.08h7.5l3.52-4.08h3.22l3.48 4.08h8.3l-3.58-4.14h5.7l0.7-3.5h-13.4l1.85-2.15h11.97l0.71-3.61h-1.96l2.51-2.85h-7.79l-2.37 2.88h-1.24l2.43-2.88h-7.73l-0.94 1.11-0.95-1.11h-8.09zM535.11 504.82l-0.72 3.64 19.24-0.04-0.85 4.33h8.05l1.56-7.93h-27.28z" p-id="2193" fill="#ffffff"></path><path d="M534.21 509.33l-1.07 5.43a2.45 2.45 0 0 0 2.68 2.9h16l-1.06 5.44a2.67 2.67 0 0 1-2.69 2h-8.77l-0.78 4.14h14.54s2.86 0.22 4.2-1.45a6.32 6.32 0 0 0 1.16-3l2.17-10.68h-17.75a1 1 0 0 1-1-1.38l0.66-3.42z" p-id="2194" fill="#ffffff"></path><path d="M532.15 519.9h16.93l-0.78 3.54h-16.85l0.7-3.54zM595.06 490.23l0.56-2.85h-8l-0.55 2.85h-17.61l-5.12 26.32c-0.34 1.76-0.27 2.41 0.6 3.52a3.06 3.06 0 0 0 2.86 1H581l-1.58 8.12h26.38l0.75-4.18h-18.3l0.77-3.94h14.29c1.78 0 2.67-0.09 3.53-0.94a5.14 5.14 0 0 0 1.22-2.85l5.35-27.14z m-13.36 27.18h-8a1.4 1.4 0 0 1-1.4-1.79l1.6-7.8h9.68z m2.59-13.31h-9.67l2-10.24h9.7z m16 11.91a1.55 1.55 0 0 1-1.78 1.4h-8.8l1.91-9.59H602z m2.39-11.84h-10.32l2-10.22h10.33zM617.66 490.23h7.39l1-2.85h8.25l-1 2.8h30.61L657 524.93s-0.24 2.26-1.36 3.23-1.47 1.08-3.37 1.08h-18.1l0.84-4.14h12a2.51 2.51 0 0 0 2.51-2.36l5.65-28.88h-23l-11.58 35.42h-8.19l11.52-35.42h-7zM470.82 485.99l11.14-3.45-5.79 10.23-0.73-5.23-4.62-1.55zM469.44 532.29l1.71 3.03 1.71-3.03h2.97l-3.23 5.66 3.15 5.61h-3.03l-1.64-2.96-1.72 2.96h-2.92l3.16-5.54-3.16-5.73h3zM478.27 532.29l-1.94 9.34s-0.48 1.93 1.45 1.93h4.82s1.49 0.11 1.89-1.88l1.94-9.39h-3.27l-1.66 8.11a0.88 0.88 0 0 1-1 0.73 0.72 0.72 0 0 1-0.63-1l1.6-7.89zM488.45 532.29h6.13a1.49 1.49 0 0 1 1.61 1.91l-2 9.36h-3.25l1.74-7.93a0.62 0.62 0 0 0-0.65-0.82h-4.13z" p-id="2195" fill="#ffffff"></path><path d="M487.57 536.48l-1.48 7.08h3.25l1.47-7.08h-3.24zM497.38 532.29h8.63l-0.51 2.52h-8.71l0.59-2.52zM499.33 536.48l-1.56 7.08h3.31l1.5-7.08h-3.25zM506.88 532.29l-0.56 2.52h6.09l0.53-2.52h-6.06zM506.01 536.48l-1.49 7.08h6.09l0.51-2.42h-2.83l0.44-2.18h2.82l0.5-2.48h-6.04zM537.69 532.29l-0.56 2.52h6.1l0.53-2.52h-6.07zM536.82 536.48l-1.49 7.08h6.09l0.5-2.42h-2.83l0.45-2.18h2.8l0.53-2.48h-6.05zM553.17 532.29l-0.56 2.52h6.1l0.53-2.52h-6.07zM552.3 536.48l-1.5 7.08h6.1l0.5-2.42h-2.83l0.45-2.18h2.8l0.54-2.48h-6.06zM642.21 532.29l-0.56 2.52h6.08l0.54-2.52h-6.06zM641.34 536.48l-1.5 7.08h6.1l0.51-2.42h-2.84l0.45-2.18h2.81l0.52-2.48h-6.05zM514.94 532.29h6s2.14 0 1.72 2l-1.91 9.29h-3.25l1.64-7.94s0.21-0.86-0.77-0.86h-3.95z" p-id="2196" fill="#ffffff"></path><path d="M514.09 536.48l-1.5 7.08h3.29l1.42-7.08h-3.21zM533.29 532.29h-6.94s-1.25 0-1.54 1.54l-1.6 7.76a1.53 1.53 0 0 0 1.6 2h4.56a1.91 1.91 0 0 0 2-1.76l1.09-5.37h-4l-0.55 2.46h0.93l-0.33 1.58a0.89 0.89 0 0 1-0.94 0.57 0.81 0.81 0 0 1-0.74-0.88l1-4.81a0.78 0.78 0 0 1 0.86-0.59h4.19zM545.73 532.29l-2.36 11.27h6.28l0.48-2.45h-3l1.84-8.82h-3.24zM569 532.29h-6.36a1.69 1.69 0 0 0-1.71 1.58l-1.61 7.86a1.45 1.45 0 0 0 1.59 1.88h5.67l0.54-2.48h-3.59s-0.89 0.07-0.66-0.9l1-4.7a0.84 0.84 0 0 1 0.93-0.72h3.7zM602.11 532.29h-6.36a1.69 1.69 0 0 0-1.72 1.58l-1.6 7.86a1.45 1.45 0 0 0 1.57 1.88h5.67l0.52-2.48h-3.55s-0.89 0.07-0.67-0.9l1-4.7a0.85 0.85 0 0 1 0.93-0.72h3.71zM569.44 532.29h8.65l-0.54 2.52h-8.67l0.56-2.52zM571.41 536.46l-1.47 7.15h3.28l1.45-7.15h-3.26zM578.91 532.29H585a1.63 1.63 0 0 1 1.72 2l-1 4.62h-1.12a1.43 1.43 0 0 1 0.8 1.67l-0.6 3h-3.18l0.74-3.76s0.19-0.87-0.57-0.91h-0.93l-1 4.67h-3.37l1.53-7.15h5l0.22-0.89s0.24-0.76-0.67-0.76h-4.16zM650.36 532.29h6a1.61 1.61 0 0 1 1.7 2l-1 4.69H656a1.3 1.3 0 0 1 0.81 1.6l-0.59 3H653l0.75-3.76s0.18-0.87-0.57-0.91h-0.94l-1 4.67H648l1.52-7.09h5l0.2-0.95s0.25-0.76-0.65-0.76h-4.18zM589.11 532.29l-2.4 11.32h3.31l2.36-11.32h-3.27zM606.43 532.29h6.13s2.09-0.09 1.63 2l-1.08 4.8h-4.82l-1 4.56h-3.26l1.51-7.13h4.88l0.21-0.82s0.25-0.84-0.57-0.84h-4.19zM622.48 532.29h-4.34a1.81 1.81 0 0 0-2 1.35l-1.75 8a1.53 1.53 0 0 0 1.69 2h4.22a2.24 2.24 0 0 0 2.35-1.93l1.54-7.54s0.49-1.88-1.71-1.88z m-1.87 3.24l-1 4.81a0.87 0.87 0 0 1-1 0.76c-0.84-0.16-0.59-1.08-0.59-1.08l0.94-4.62a0.78 0.78 0 0 1 0.84-0.58c0.93 0 0.81 0.71 0.81 0.71zM625.14 532.29h3.18l1.22 5.66 1.24-5.66h3.97l1.22 5.44 1.18-5.44h3.25l-2.4 11.32h-3.97l-1.26-5.88-1.28 5.88h-3.94l-2.41-11.32z" p-id="2197" fill="#ffffff"></path><path d="M374.92 493.35s31.94-27.06 75.15-36.43c0 0 5.2-1.17 6.06 0.54 0 0 1.05 1.66-1.65 5.16 0 0-10.47 11.92-17.12 16.6 0 0 8-10.35-4.09-8.83 0 0-18.98 2.09-58.35 22.96z" p-id="2198" fill="#ffffff"></path><path d="M361.62 519.5s5.5-18.88 33.13-30.56c0 0 16.33-7.27 40.18-8.74a243.5 243.5 0 0 0-34.32 38.65s-11.37 15.28 4.05 27c0 0 11.28 7.73 22.2-1.56a31.66 31.66 0 0 0 8.07-13.07s14.6-2.58 22.39-8.84c0 0-5.69 30-31.2 38 0 0-24.67 8.55-40.65-6.72l6.31-5.39a1.89 1.89 0 0 0 0.34-2.59s-1.14-1.36-3.3 0.52c0 0-8.32 6.56-9 7.25 0 0-4.61 3.7-8.23 1.27 0 0-3.66-2.07-0.77-9.41a62.79 62.79 0 0 1 5.26-11.31 37.51 37.51 0 0 1 3.17-20.34l8.34-4a2.09 2.09 0 0 0 1.41-2.83s-0.67-1.68-3.06-0.72c0-0.05-15.43 5.29-24.32 13.39z" p-id="2199" fill="#ffffff"></path></svg>