<?xml version="1.0" standalone="no"?><!DOCTYPE svg PUBLIC "-//W3C//DTD SVG 1.1//EN" "http://www.w3.org/Graphics/SVG/1.1/DTD/svg11.dtd"><svg t="1591416868033" class="icon" viewBox="0 0 1024 1024" version="1.1" xmlns="http://www.w3.org/2000/svg" p-id="3204" width="48" height="48" xmlns:xlink="http://www.w3.org/1999/xlink"><defs><style type="text/css"></style></defs><path d="M511.81795555 734.78599111c-187.86986667 0-290.83420445-204.1325037-294.45082073-211.3536a26.8576237 26.8576237 0 0 1 0-23.48373333c3.64088889-9.02940445 108.38926222-211.3536 294.45082073-211.3536s290.83420445 204.12036741 294.45082075 211.3536a26.8576237 26.8576237 0 0 1 0 23.48373333c-3.64088889 9.02940445-106.58095408 211.3536-294.45082075 211.3536zM271.56783408 510.78637037c23.47159703 41.54254222 110.18543408 169.79892148 240.29866667 169.79892148S728.5843437 550.52060445 752.06807703 510.78637037c-23.48373333-41.54254222-110.18543408-169.79892148-240.29866666-169.79892148S295.03943111 471.0521363 271.56783408 510.78637037z m0 0" p-id="3205" fill="#558cf7"></path><path d="M511.81795555 611.9424A101.15602963 101.15602963 0 1 1 612.97398518 510.78637037a100.99825778 100.99825778 0 0 1-101.15602963 101.15602963z m0-148.06281482c-25.29204148 0-46.96746667 21.67542518-46.96746666 46.96746667s21.67542518 46.96746667 46.96746666 46.96746667 46.96746667-21.67542518 46.96746667-46.96746667-21.67542518-46.96746667-46.96746667-46.96746667z m0 0" p-id="3206" fill="#558cf7"></path></svg>