<?xml version="1.0" standalone="no"?><!DOCTYPE svg PUBLIC "-//W3C//DTD SVG 1.1//EN" "http://www.w3.org/Graphics/SVG/1.1/DTD/svg11.dtd"><svg t="1590113463768" class="icon" viewBox="0 0 1024 1024" version="1.1" xmlns="http://www.w3.org/2000/svg" p-id="3373" xmlns:xlink="http://www.w3.org/1999/xlink" width="64" height="64"><defs><style type="text/css"></style></defs><path d="M512.12 574.1a179.17 179.17 0 0 1-179.2-179.19c0-99 80.21-180.91 179.2-180.91a179.18 179.18 0 0 1 179.2 179.2c0 99-80.21 180.9-179.2 180.9z m0-308.9a127.83 127.83 0 0 0-128 128c0 70 58 128 128 128a128 128 0 0 0 0-256zM676 811.33H348.28A97.23 97.23 0 0 1 251 714.05c0-52.9 44.38-97.28 97.28-97.28h326a97.23 97.23 0 0 1 97.28 97.28c0 52.91-42.66 97.28-95.57 97.28zM348.28 666.26a46.08 46.08 0 1 0 0 92.16h326a46.08 46.08 0 1 0 0-92.16z m0 0" p-id="3374" fill="#558cf7"></path></svg>