<?xml version="1.0" standalone="no"?><!DOCTYPE svg PUBLIC "-//W3C//DTD SVG 1.1//EN" "http://www.w3.org/Graphics/SVG/1.1/DTD/svg11.dtd"><svg t="1589990571506" class="icon" viewBox="0 0 1024 1024" version="1.1" xmlns="http://www.w3.org/2000/svg" p-id="3212" width="64" height="64" xmlns:xlink="http://www.w3.org/1999/xlink"><defs><style type="text/css"></style></defs><path d="M806 288a70 70 0 0 0-70-70H288a70 70 0 0 0-70 70v448a70 70 0 0 0 70 70h448a70 70 0 0 0 70-70z m-28 448a42 42 0 0 1-42 42H288a42 42 0 0 1-42-42V288a42 42 0 0 1 42-42h448a42 42 0 0 1 42 42z m0 0" p-id="3213" fill="#ffffff"></path><path d="M327.2 629a14 14 0 0 0-14 14v64.24a14 14 0 0 0 28 0V643a14 14 0 0 0-14-14z m95.2-33.6a14 14 0 0 0-14 14v97.84a14 14 0 0 0 28 0v-97.8a14 14 0 0 0-14-14z m89.6-95.2a14 14 0 0 0-14 14v193a14 14 0 0 0 28 0v-193a14 14 0 0 0-14-14z m95.2 5.6a14 14 0 0 0-14 14v187.48a14 14 0 0 0 28 0V519.84a14 14 0 0 0-14-14z m89.6-44.8a14 14 0 0 0-14 14v232.28a14 14 0 0 0 28 0V475a14 14 0 0 0-14-14zM330 562a13.62 13.62 0 0 0 6.48-1.6l92.4-48.56a14.36 14.36 0 0 0 3.92-3l86.08-95.6 83.52 30.4a13.93 13.93 0 0 0 14.8-3.36l92.4-94.88a14 14 0 0 0-20-19.52l-86.08 88.32-83.92-30.52a14.07 14.07 0 0 0-15.2 3.76l-90.72 100.8-90.16 47.36A14 14 0 0 0 330 562z m0 0" p-id="3214" fill="#ffffff"></path></svg>