<?xml version="1.0" standalone="no"?><!DOCTYPE svg PUBLIC "-//W3C//DTD SVG 1.1//EN" "http://www.w3.org/Graphics/SVG/1.1/DTD/svg11.dtd"><svg t="1590113206618" class="icon" viewBox="0 0 1024 1024" version="1.1" xmlns="http://www.w3.org/2000/svg" p-id="3192" xmlns:xlink="http://www.w3.org/1999/xlink" width="64" height="64"><defs><style type="text/css"></style></defs><path d="M697.6 437.76h-287v-70.94c0-58.55 45.65-106.34 101.44-106.34 54.72 0 99.73 46.08 101.33 103v1.28h47v-1.28c0-81.6-66.77-148.48-148.48-148.48s-148.48 66.81-148.48 148.52v74.24h-37A74.43 74.43 0 0 0 252.16 512v222.72A74.43 74.43 0 0 0 326.4 809h371.2a74.43 74.43 0 0 0 74.24-74.24V512a74.49 74.49 0 0 0-74.24-74.24z m19.52 288.11A34.23 34.23 0 0 1 683 760H341.12A34.23 34.23 0 0 1 307 725.87v-205a34.23 34.23 0 0 1 34.13-34.13h341.75A34.23 34.23 0 0 1 717 520.85v205z m0 0" p-id="3193" fill="#558cf7"></path><path d="M512 567.68a37.28 37.28 0 0 0-37.12 37.12c0 13 7.47 26 18.56 31.57v24.11c0 11.09 7.47 18.56 18.56 18.56s18.56-7.47 18.56-18.56v-24.11c11.09-5.55 18.56-18.56 18.56-31.57A37.28 37.28 0 0 0 512 567.68z m0 0M613.33 364.8h47.04v72.96h-47.04z" p-id="3194" fill="#558cf7"></path></svg>