<?xml version="1.0" standalone="no"?><!DOCTYPE svg PUBLIC "-//W3C//DTD SVG 1.1//EN" "http://www.w3.org/Graphics/SVG/1.1/DTD/svg11.dtd"><svg t="1589872907389" class="icon" viewBox="0 0 1024 1024" version="1.1" xmlns="http://www.w3.org/2000/svg" p-id="2502" width="200" height="200" xmlns:xlink="http://www.w3.org/1999/xlink"><defs><style type="text/css"></style></defs><path d="M511.21 802.8a17.89 17.89 0 0 1-10.37-3.24L246.2 624.35a18.45 18.45 0 0 1 20.38-30.75l244.57 168.34 244.22-168.07a18.46 18.46 0 0 1 20.82 30.48l-254.6 175.21a18 18 0 0 1-10.38 3.24z m0-96.46a17.83 17.83 0 0 1-10.37-3.25L246.2 528a18.45 18.45 0 0 1 20.38-30.76l244.57 168.24 244.22-167.94A18.46 18.46 0 0 1 776.19 528l-254.6 175.09a18.51 18.51 0 0 1-10.38 3.25z m0-96.57a18.21 18.21 0 0 1-10.41-3.24L246.17 431.46a18.57 18.57 0 0 1 0-30.48L500.8 225.77a18.08 18.08 0 0 1 20.72 0L776.12 401a18.56 18.56 0 0 1 0 30.48L521.59 606.67a18 18 0 0 1-10.24 3.1z m-222.34-193.7l222.34 152.75 222.38-152.75-222.38-152.68z m0 0" p-id="2503" ></path></svg>