<?xml version="1.0" standalone="no"?><!DOCTYPE svg PUBLIC "-//W3C//DTD SVG 1.1//EN" "http://www.w3.org/Graphics/SVG/1.1/DTD/svg11.dtd"><svg t="1590073810542" class="icon" viewBox="0 0 1024 1024" version="1.1" xmlns="http://www.w3.org/2000/svg" p-id="3174" xmlns:xlink="http://www.w3.org/1999/xlink" width="64" height="64"><defs><style type="text/css"></style></defs><path d="M799.69 896.21H224a43 43 0 0 1-43-43V464a43 43 0 0 1 43-43h72.17v-78.2C296.13 224.18 392.3 128 511 128c118.42 0 214.45 95.81 214.82 214.16v0.67a25.77 25.77 0 1 1-51.54 0 163.27 163.27 0 1 0-326.53 0V421h452a43 43 0 0 1 43 43v389.25a43 43 0 0 1-43 43z m-8.59-406.45a17.19 17.19 0 0 0-17.18-17.19H249.73a17.2 17.2 0 0 0-17.19 17.19v337.7a17.2 17.2 0 0 0 17.19 17.19h524.19a17.19 17.19 0 0 0 17.18-17.19zM538.46 710.57v73.09a25.77 25.77 0 1 1-51.54 0V711a103.11 103.11 0 1 1 51.54-0.44z m-26.64-151.21a51.56 51.56 0 1 0 51.57 51.56 51.55 51.55 0 0 0-51.57-51.56z m0 0" fill="#B8BFD1" p-id="3175"></path></svg>