<?xml version="1.0" standalone="no"?><!DOCTYPE svg PUBLIC "-//W3C//DTD SVG 1.1//EN" "http://www.w3.org/Graphics/SVG/1.1/DTD/svg11.dtd"><svg t="1591416941829" class="icon" viewBox="0 0 1024 1024" version="1.1" xmlns="http://www.w3.org/2000/svg" p-id="3941" xmlns:xlink="http://www.w3.org/1999/xlink" width="48" height="48"><defs><style type="text/css"></style></defs><path d="M786.44211358 544.3634568h-15.53445927c-12.94538272-139.81013333-121.68659753-251.14042469-258.90765431-251.1404247s-248.55134815 111.33029136-258.90765431 251.1404247h-15.53445927c-18.12353581 0-36.24707161 18.12353581-36.2470716 38.83614814v51.78153087c0 20.71261235 10.35630617 38.83614815 28.47984198 46.60337777 36.24707161 18.12353581 124.27567408 49.19245431 282.2093432 49.19245432s245.96227161-31.06891852 282.2093432-49.19245432c18.12353581-7.76722963 28.47984197-25.89076543 28.47984198-46.60337777v-51.78153087c0-20.71261235-15.53445925-38.83614815-36.2470716-38.83614814z m-7.76722963 93.20675555c-28.47984197 12.94538272-106.15213827 44.01430124-261.49673086 44.01430123s-235.60596543-31.06891852-261.49673087-44.01430123v-44.01430124h51.78153087v-23.30168889c0-93.20675555 51.78153086-170.87905185 124.27567408-207.12612346v142.39920988a23.30168889 23.30168889 0 0 0 46.60337777 0V350.18271605c12.94538272 0 23.30168889-2.58907653 36.24707159-2.58907655s25.89076543 0 36.24707162 2.58907655v155.34459259a23.30168889 23.30168889 0 0 0 46.60337777 0V363.12809876c72.4941432 33.65799506 124.27567408 113.9193679 124.27567408 207.12612346v22.96510895l56.95968395 0.33657994z" p-id="3942" fill="#558cf7"></path></svg>