<?xml version="1.0" standalone="no"?><!DOCTYPE svg PUBLIC "-//W3C//DTD SVG 1.1//EN" "http://www.w3.org/Graphics/SVG/1.1/DTD/svg11.dtd"><svg t="1589990606083" class="icon" viewBox="0 0 1024 1024" version="1.1" xmlns="http://www.w3.org/2000/svg" p-id="3698" xmlns:xlink="http://www.w3.org/1999/xlink" width="64" height="64"><defs><style type="text/css"></style></defs><path d="M792 227H232a14 14 0 0 0 0 28h41v104.16c0 3-0.64 5.76 1.12 8.16l55.2 78A12.46 12.46 0 0 0 340 451h5.84v47.92c0 28.32 23.2 52.88 51.52 52.88h229.36c28.32 0 49.52-24.56 49.52-52.88V451h7.84a13.84 13.84 0 0 0 11.36-5.68l56.32-78.08a14.18 14.18 0 0 0 2.88-8.08V255H792a14 14 0 0 0 0-28zM648.24 498.92c0 12.88-8.64 24.88-21.52 24.88H397.36c-12.88 0-23.52-12-23.52-24.88V451h274.4z m78.4-144.24L676.88 423H347.2L301 354.68V255h425.6z m0 0" p-id="3699" fill="#ffffff"></path><path d="M352.48 339h56a14 14 0 0 0 0-28h-56a14 14 0 0 0 0 28zM482 339h56a14 14 0 0 0 0-28h-56a14 14 0 0 0 0 28z m129.52 0h56a14 14 0 0 0 0-28h-56a14 14 0 0 0 0 28z m-241.2 244.4c-58.08 45.28-39.2 82.8-25.44 110.16 13.52 26.8 22.4 44.48-20.64 75.76a14 14 0 0 0 8.32 25.28 13.75 13.75 0 0 0 8.24-2.72c62.24-45.28 43.12-83.28 29.12-111-13.44-26.72-22.32-44.32 17.6-75.52a14 14 0 0 0 2.4-19.68 13.83 13.83 0 0 0-19.6-2.24z m161 17.6a14 14 0 0 0-21.44-18.08c-47.44 56.32-21.2 89.12-2.08 113 18.72 23.44 31.12 38.88-4.48 78.4a14 14 0 1 0 20.8 18.72c51.52-57.2 25-90.4 5.52-114.64-18.64-23.28-31-38.72 1.68-77.44zM691 676.52c-22.88-19.28-38-32-13.52-76.32a14 14 0 0 0-24.56-13.52c-35.6 64.48-3.44 91.52 20 111.28 23 19.28 38.08 32.08 10.88 77.76a14.06 14.06 0 0 0 4.88 19.2 13.73 13.73 0 0 0 7.12 2 14.08 14.08 0 0 0 12.04-6.92c39.36-66.16 6.88-93.52-16.88-113.52z m0 0" p-id="3700" fill="#ffffff"></path></svg>