<?xml version="1.0" standalone="no"?><!DOCTYPE svg PUBLIC "-//W3C//DTD SVG 1.1//EN" "http://www.w3.org/Graphics/SVG/1.1/DTD/svg11.dtd"><svg t="1591416936091" class="icon" viewBox="0 0 1024 1024" version="1.1" xmlns="http://www.w3.org/2000/svg" p-id="3788" xmlns:xlink="http://www.w3.org/1999/xlink" width="48" height="48"><defs><style type="text/css"></style></defs><path d="M485.85841778 599.93960297l-73.67945481-71.30074075a23.53227852 23.53227852 0 0 0-33.27772445 33.27772445l90.31831703 87.92746666c4.75742815 4.75742815 9.5148563 7.13614222 16.63886223 7.13614222s11.88143408-2.42725925 16.63886222-7.13614222l161.60692148-154.48291555a22.96187259 22.96187259 0 0 0 0-33.27772445 25.48622222 25.48622222 0 0 0-33.26558815-2.36657778z" p-id="3789" fill="#558cf7"></path><path d="M749.67722667 290.96163555h-109.33589334v-16.63886222A47.65923555 47.65923555 0 0 0 592.80346075 226.79703703h-159.22820742a47.65923555 47.65923555 0 0 0-47.53787258 47.5257363v16.63886222h-111.65392593A47.68350815 47.68350815 0 0 0 226.79703703 338.45096297v411.2141274A47.67137185 47.67137185 0 0 0 274.33490963 797.20296297h475.34231704A47.65923555 47.65923555 0 0 0 797.20296297 749.66509037V338.45096297a47.67137185 47.67137185 0 0 0-47.5257363-47.48932742z m-316.10197334-16.63886222h156.84949334v78.43688297H433.57525333z m316.10197334 475.34231704H274.33490963V336.12079408h109.32375704v16.63886222A47.68350815 47.68350815 0 0 0 431.19653925 400.34607408h159.22820742a47.67137185 47.67137185 0 0 0 47.53787258-47.5378726V338.45096297h111.71460742z" p-id="3790" fill="#558cf7"></path></svg>