<?xml version="1.0" standalone="no"?><!DOCTYPE svg PUBLIC "-//W3C//DTD SVG 1.1//EN" "http://www.w3.org/Graphics/SVG/1.1/DTD/svg11.dtd"><svg t="1592218116110" class="icon" viewBox="0 0 1024 1024" version="1.1" xmlns="http://www.w3.org/2000/svg" p-id="3270" xmlns:xlink="http://www.w3.org/1999/xlink" width="48" height="48"><defs><style type="text/css"></style></defs><path d="M337.92910222 284.03181037h-74.56540444v455.68151704h497.1026963V284.03181037h-74.56540445v186.41351111a41.42117925 41.42117925 0 0 1-41.42117926 41.42117927H379.36241778a41.42117925 41.42117925 0 0 1-41.43331556-41.42117927zM263.36369778 242.57422222h497.1026963a41.42117925 41.42117925 0 0 1 41.43331555 41.42117926v455.71792593a41.42117925 41.42117925 0 0 1-41.43331555 41.42117926h-497.1026963A41.42117925 41.42117925 0 0 1 221.94251852 739.71332741V284.03181037A41.42117925 41.42117925 0 0 1 263.36369778 242.57422222z m115.99872 41.42117926v186.41351111h265.11739259V284.03181037z m209.95792592 35.49866667a19.41807408 19.41807408 0 0 1 19.30884741 19.3452563v76.72566518a19.3452563 19.3452563 0 1 1-38.6541037 0v-76.6892563a19.3452563 19.3452563 0 0 1 19.34525629-19.3452563z m0 0" p-id="3271" ></path></svg>