<?xml version="1.0" standalone="no"?><!DOCTYPE svg PUBLIC "-//W3C//DTD SVG 1.1//EN" "http://www.w3.org/Graphics/SVG/1.1/DTD/svg11.dtd"><svg t="1589990598638" class="icon" viewBox="0 0 1024 1024" version="1.1" xmlns="http://www.w3.org/2000/svg" p-id="3521" xmlns:xlink="http://www.w3.org/1999/xlink" width="64" height="64"><defs><style type="text/css"></style></defs><path d="M711.72 190H301.4c-36.72 0-64.4 31.2-64.4 72v158.56c0 41.2 27.68 71.84 64.4 71.84h410.32c35.6 0 68.24-27.6 74.08-61.2V262c0-38.16-34.64-72-74.08-72z m46.08 230.56c0 22.72-22.4 43.84-46.08 43.84H301.4c-23.92 0-36.4-21.84-36.4-43.84V262c0-21.68 12.48-44 36.4-44h410.32c23.68 0 46.08 21.6 46.08 44zM403.16 584.4A14 14 0 1 0 383 565c-55.84 58.08-27.52 104.8-4.72 142.32 23.2 38.32 38.56 63.6-13.92 101.76a14 14 0 0 0 8.24 25.28 14.21 14.21 0 0 0 8.24-2.64C454.12 778.4 425.32 731 402.2 692.88c-22.4-36.88-40-65.92 1-108.48z m0 0" p-id="3522" fill="#ffffff"></path><path d="M321.64 584.4a14 14 0 1 0-20.16-19.4c-55.84 58.08-27.52 104.8-4.72 142.32 23.2 38.32 38.56 63.6-13.92 101.76a14 14 0 0 0 8.24 25.28 14.21 14.21 0 0 0 8.24-2.64C372.6 778.4 343.8 731 320.68 692.88c-22.4-36.88-40-65.92 1-108.48z m158.48 0A14 14 0 1 0 460 565c-55.84 58.08-27.52 104.8-4.72 142.32 23.2 38.32 38.56 63.6-13.92 101.76a14 14 0 0 0 8.24 25.28 14.21 14.21 0 0 0 8.24-2.64c73.28-53.36 44.48-100.8 21.36-138.88-22.32-36.88-40-65.92 1-108.48z m225.2-176h-392a14 14 0 0 0 0 28h392a14 14 0 0 0 0-28z m0-140h-33.6a14 14 0 0 0 0 28h33.6a14 14 0 0 0 0-28z m16.4 361.36a17.31 17.31 0 0 0 11.52 4.4 17.52 17.52 0 1 0-17.52-17.52c0 1.2-1 2.32-0.72 3.44l-35.6 20V601c11.2-2.32 13-8.8 13-16.48 0-9.68-7.28-17.52-17-17.52s-18.32 7.84-18.32 17.52c0 7.68 5.52 14.16 11.12 16.48v39.12l-32.4-19.36a16.7 16.7 0 0 0 0.88-3.44 17.28 17.28 0 1 0-34.56 0 17.58 17.58 0 0 0 17.6 17.52 17.31 17.31 0 0 0 11.52-4.4l33.6 19.36-33.52 19.36a17.31 17.31 0 0 0-11.52-4.4 17.52 17.52 0 1 0 17.52 17.52c0-1.2-1.2-2.32-1.36-3.44l32.4-19.36v39.12a18.43 18.43 0 0 0-10.88 16.4c0 9.68 8.4 17.52 18 17.52s16.72-7.8 16.72-17.52c0-7.68-1.52-14.16-12.72-16.48v-39.08l35.6 19.92c-0.24 1.12 0.16 2.24 0.16 3.44a17.68 17.68 0 0 0 35.36 0 17.45 17.45 0 0 0-17.44-17.52 17.11 17.11 0 0 0-11.44 4.4l-34.56-20z m0 0" p-id="3523" fill="#ffffff"></path></svg>