<?xml version="1.0" standalone="no"?><!DOCTYPE svg PUBLIC "-//W3C//DTD SVG 1.1//EN" "http://www.w3.org/Graphics/SVG/1.1/DTD/svg11.dtd"><svg t="1590073805963" class="icon" viewBox="0 0 1024 1024" version="1.1" xmlns="http://www.w3.org/2000/svg" p-id="3040" xmlns:xlink="http://www.w3.org/1999/xlink" width="64" height="64"><defs><style type="text/css"></style></defs><path d="M426.52 521a178.85 178.85 0 0 1-100.8-161v-66.26a178.83 178.83 0 0 1 357.66 0V360a178.8 178.8 0 0 1-97 159.07c212.6 39.2 309 238.22 309 297.74v73.91a19 19 0 0 1-19 19H146a19 19 0 0 1-19-19V817c0-58.7 93.54-252.79 299.52-296.06z m411.71 331.65v-35.82c0-7.47-5.9-27.56-17-50.59-14.37-29.71-35-60.28-60.36-87.61-63.72-68.7-147.58-109.13-249.7-109.13S325.23 610 261.56 678.7c-25.33 27.34-46 57.95-60.37 87.65-11.16 23.1-17.06 43.19-17.06 50.71v35.62h654.12z m-333.68-680.6a121.7 121.7 0 0 0-121.7 121.7V360a121.7 121.7 0 1 0 243.4 0v-66.26a121.68 121.68 0 0 0-121.68-121.69z m0 0" fill="#B8BFD1" p-id="3041"></path></svg>