<?xml version="1.0" standalone="no"?><!DOCTYPE svg PUBLIC "-//W3C//DTD SVG 1.1//EN" "http://www.w3.org/Graphics/SVG/1.1/DTD/svg11.dtd"><svg t="1591933748912" class="icon" viewBox="0 0 1024 1024" version="1.1" xmlns="http://www.w3.org/2000/svg" p-id="3347" xmlns:xlink="http://www.w3.org/1999/xlink" width="48" height="48"><defs><style type="text/css"></style></defs><path d="M694.56992102 616.55223917c35.06559134-36.66606547 59.44928527-84.17335153 67.07507371-134.45430993a274.60080386 274.60080386 0 0 0 3.40372325-40.75777531c-0.10862947-51.56278611-15.93232155-103.31386328-45.98647357-145.35346626A258.38604569 258.38604569 0 0 0 597.54932474 203.19539857c-49.13672804-18.04697514-104.71880437-19.61123943-154.97803687-5.24318218C394.27462768 211.74815846 349.77999878 240.36840153 317.850178 279.20705629a257.03904032 257.03904032 0 0 0-58.18194151 143.95576715c-4.00480628 51.59899593 8.81347059 104.65362667 35.63046455 148.88754487 25.91174842 42.72758961 64.83006477 78.21321488 110.44719816 98.88902307 1.32527948 0.60108305 2.65780091 1.1804402 3.99032235 1.75979733-0.50693751 1.00663305-0.97042323 2.06395983-1.44839287 3.17922234L390.43638658 720.568573l-28.48988771 71.23196125-0.16656518 0.41279196c-14.17252421-0.04345179-28.37401629-0.26071072-42.53929854 0H318.63955212c-11.34091616 0-22.20386267 9.97218489-21.68244124 21.67519927S306.48029398 835.57096672 318.63955212 835.57096672h296.81915045c11.05847955 0 22.14592696 0.23898482 33.19716452 0H658.04869484c15.61367512 0 31.26356005 0.29692054 46.87723518 0h0.63729286c11.33367419 0 22.20386267-9.97218489 21.67519928-21.68244124S717.71523904 792.26401997 705.56322288 792.26401997h-41.88027978l-11.50748133-28.82301807-28.49712968-71.23196125q-3.26612592-8.16893577-6.51776791-16.3306296a48.10836911 48.10836911 0 0 0-1.58599018-3.58477235 254.23640013 254.23640013 0 0 0 78.99534701-55.74139953z m-52.86633969-340.22748469c-0.72419644-0.53590537-2.69401073-2.04947591-2.65055894-2.03499198 0.77489018 0.17380715 1.85394287 1.26010179 2.65055894 2.03499197z m-294.74794864 35.31906009c-0.53590537 0.72419644-2.04947591 2.7012527-2.03499199 2.65055894 0.23174287-0.76764822 1.29631162-1.83945894 2.07120181-2.65055894z m-4.04101611 5.45319914q1.2383759-1.72358752 2.52020359-3.4326911l1.14423037-1.50632858 0.39830804-0.53590536c0.23898482-0.24622679 0.44900179-0.47072767 0.59384107-0.65177679 0.99939109-1.22389197 1.99878216-2.44054198 3.01989913-3.62098218a233.19125176 233.19125176 0 0 1 24.14470911-24.62267874q3.01989913-2.65055896 6.12670183-5.19248844 1.33252144-1.08629466 2.68676878-2.1725893l-1.51357055 1.1369884 1.78876518-1.35424733 0.36209823-0.28967857c0.84006787-0.67350268 2.1725893-1.62220001 0.68074465-0.49245358q6.5612197-4.88832593 13.44832778-9.29868221a233.84302854 233.84302854 0 0 1 32.3715806-17.25760102 233.82854462 233.82854462 0 0 1 53.05463076-14.48392868 237.53643037 237.53643037 0 0 1 56.48732185 0 233.66197943 233.66197943 0 0 1 53.17050218 14.48392868 234.10373927 234.10373927 0 0 1 28.67817879 15.00535011q7.24196434 4.47553397 14.20149207 9.47248936 1.72358752 1.2383759 3.4326911 2.52020359l1.51357055 1.14423036 0.52866339 0.39830804c0.24622679 0.23898482 0.47796966 0.44900179 0.65901876 0.59384108 1.22389197 0.99939109 2.43330002 1.99878216 3.62098217 3.01989913A232.46705532 232.46705532 0 0 1 670.59901904 304.10492968q2.65055896 3.01989913 5.19973041 6.12670184c0.72419644 0.89076161 1.44839287 1.7887652 2.17258929 2.68676878l-1.14423036-1.52081253c0.44900179 0.60108305 0.90524554 1.19492411 1.3614893 1.7887652l0.28967857 0.36209821c0.67350268 0.84006787 1.61495805 2.1725893 0.49245358 0.72419643q4.88108397 6.5177679 9.29868221 13.44108582a233.02468658 233.02468658 0 0 1 17.25035907 32.3715806 233.11883212 233.11883212 0 0 1 13.23106884 45.62437535l-98.96144271-0.21001696h-12.4706626a92.24814177 92.24814177 0 0 0-14.61428403-33.58823062 102.05376148 102.05376148 0 0 0-48.44874144-37.20197081C507.65482139 321.07285213 462.63877106 333.12348079 437.84952712 363.37316585a102.03203558 102.03203558 0 0 0-20.82788944 41.56163334l-34.38484669-0.07241965-69.68218087-0.13759731h-7.50991704A233.83578658 233.83578658 0 0 1 318.54540658 359.91874886a234.10373927 234.10373927 0 0 1 14.93293047-28.63472701q4.47553397-7.24920631 9.47248936-14.18700814z m223.05250169 117.03738571a78.64049077 78.64049077 0 0 1-3.77306342 13.86111975 76.5837729 76.5837729 0 0 1-5.6270063 10.07357239c-0.50693751 0.72419644-1.02835894 1.49184466-1.55702233 2.22328305l-0.15208126 0.18104911q-2.12189555 2.52020359-4.45380806 4.85211611t-4.85935807 4.46105003l-0.17380716 0.15208125c-0.72419644 0.52142143-1.44839287 1.04284287-2.22328305 1.54978038a76.5837729 76.5837729 0 0 1-10.07357238 5.62700629A78.32184434 78.32184434 0 0 1 519.24196434 480.85955334a79.79196311 79.79196311 0 0 1-14.48392868 0 78.41598987 78.41598987 0 0 1-13.83939386-3.77306342 76.5837729 76.5837729 0 0 1-10.05908846-5.59803844c-0.72419644-0.50693751-1.49184466-1.02835894-2.22328306-1.54978037l-0.18104911-0.15208125q-2.52020359-2.12913752-4.85935807-4.46105003c-1.54978038-1.54978038-3.04162503-3.17198038-4.45380807-4.85211611l-0.15208125-0.18104911c-0.52142143-0.72419644-1.05008482-1.44839287-1.54978036-2.22328305a76.63446666 76.63446666 0 0 1-5.63424827-10.07357239 78.9374113 78.9374113 0 0 1-3.76582145-13.84663583 79.7123015 79.7123015 0 0 1 0-14.5201385 78.9374113 78.9374113 0 0 1 3.76582145-13.84663582 76.63446666 76.63446666 0 0 1 5.63424827-10.0735724c0.49969553-0.72419644 1.02835894-1.49184466 1.54978036-2.22328305l0.15208125-0.1810491c1.44839287-1.68013572 2.89678574-3.30233574 4.45380807-4.85211612s3.17922235-3.04162503 4.85935807-4.46105002l0.18104911-0.15208126c0.72419644-0.52142143 1.44839287-1.05008482 2.22328306-1.54978037a76.5837729 76.5837729 0 0 1 10.0735724-5.62700629 78.41598987 78.41598987 0 0 1 13.82490992-3.77306342 79.79196311 79.79196311 0 0 1 14.52738046 0 78.32184434 78.32184434 0 0 1 13.84663583 3.77306342 77.05450058 77.05450058 0 0 1 10.07357239 5.62700629c0.72419644 0.49969553 1.44839287 1.02835894 2.22328305 1.54978037l0.17380715 0.15208126q2.53468752 2.12913752 4.85935808 4.46105002t4.45380806 4.85211612l0.15208125 0.1810491c0.52866339 0.72419644 1.05008482 1.44839287 1.55702234 2.22328305a76.5837729 76.5837729 0 0 1 5.6270063 10.0735724 78.47392559 78.47392559 0 0 1 3.7730634 13.86111975c0.22450089 2.41157412 0.34037233 4.82314825 0.36209822 7.24196434s-0.15208125 4.83763218-0.37658215 7.24920631z m-183.65621567 172.22115396c0.72419644 0.54314733 2.7012527 2.04947591 2.65055895 2.03499199-0.76764822-0.19553304-1.8684268-1.25285983-2.65055895-2.03499199zM575.33822012 687.40037632l17.88040995 44.70464586 24.05056358 60.10830404H408.20092512q3.43993307-8.62517953 6.90159201-17.25035907l28.48988771-71.23196124q3.26612592-8.16893577 6.51776791-16.33787155c0.11587143-0.28243661 0.21001696-0.57211518 0.3041625-0.86903572a270.27010918 270.27010918 0 0 0 34.45726633 6.27878307c26.32454037 3.07059288 53.08359862 1.44839287 79.03155685-3.80203128q5.56907057-1.12974644 11.08744741-2.54192948c0.11587143 0.32588839 0.22450089 0.63729287 0.34761428 0.94145537z m101.6844213-116.36388302c0.54314733-0.72419644 2.04947591-2.69401073 2.03499198-2.65055895-0.19553304 0.77489018-1.21665001 1.83945894-2.03499198 2.65055895z m4.04825806-5.45319914q-1.25285983 1.72358752-2.52744555 3.43269109l-1.1369884 1.51357054c-0.18104911 0.23174287-0.31140446 0.40555-0.39830804 0.52866341-0.23898482 0.24622679-0.45624376 0.47796966-0.60108304 0.65901875q-1.49184466 1.83221697-3.01989913 3.62098217a231.74285888 231.74285888 0 0 1-24.13746715 24.62267876q-3.01989913 2.65055896-6.13394379 5.19248843c-0.88351966 0.72419644-1.78152322 1.44839287-2.6795268 2.1725893l1.50632858-1.1369884-1.75979734 1.33252144c-0.12311339 0.09414554-0.24622679 0.18829107-0.36209821 0.28967857-0.84006787 0.67350268-2.1725893 1.61495805-0.72419644 0.49245358q-6.5612197 4.88108397-13.44108582 9.29868221a233.11159014 233.11159014 0 0 1-32.37882256 17.25035905 233.39402676 233.39402676 0 0 1-53.04738879 14.48392868 237.53643037 237.53643037 0 0 1-56.48732185 0 233.29263926 233.29263926 0 0 1-53.17050219-14.48392868 231.67768121 231.67768121 0 0 1-28.60575914-14.94741439q-7.24196434-4.46105003-14.20149208-9.46524739-1.72358752-1.25285983-3.43269109-2.52744555l-1.50632858-1.13698841-0.53590537-0.39830804c-0.24622679-0.23898482-0.47072767-0.45624376-0.65177678-0.60108304q-1.83221697-1.49184466-3.62098218-3.01989913a233.12607408 233.12607408 0 0 1-24.62267876-24.13746714q-2.65055896-3.01989913-5.19248842-6.1339438c-0.72419644-0.88351966-1.44839287-1.78152322-2.1725893-2.6795268l1.12974644 1.50632858c-0.44900179-0.59384108-0.90524554-1.18768215-1.35424734-1.7887652-0.1013875-0.11587143-0.19553304-0.23898482-0.28967858-0.35485624-0.67350268-0.84006787-1.62220001-2.1725893-0.49245357-0.68798662q-4.88832593-6.5612197-9.29868222-13.44108581a233.91544819 233.91544819 0 0 1-17.25760102-32.37882257 233.77060891 233.77060891 0 0 1-14.48392869-53.04738878q-1.28182769-10.72534918-1.58599018-21.51587607l38.32447528 0.07966161 69.68218089 0.13759732h6.17015361a97.76651859 97.76651859 0 0 0 11.58714295 28.86646986c9.70423222 16.02646708 24.37645197 29.98173237 41.52542353 37.74511814 20.05299925 9.08866525 41.22126103 11.76819205 62.8964603 7.48094916 36.01428866-7.12609291 67.02437997-37.55682708 74.59223269-73.5566318l104.83467579 0.22450089h9.49421525q-0.34761428 10.26186347-1.57874821 20.48751713a233.50989818 233.50989818 0 0 1-14.48392869 53.18498611 232.10495711 232.10495711 0 0 1-14.93293047 28.63472701q-4.43208218 7.2709322-9.43627954 14.20873402z" p-id="3348" fill="#558cf7"></path><path d="M639.68307328 607.8763659l0.47796965-0.35485626c0.08690357-0.07966161 0.18104911-0.15208125 0.27519464-0.22450089l-1.32527946 1.02111698zM678.56517983 313.66432261l-0.35485626-0.47072768-0.22450089-0.27519463 1.00663305 1.32527946zM384.33141065 274.80394197l-0.47072769 0.3620982-0.27519463 0.21725895c0.57935715-0.43451786 1.013875-0.76040626 1.3180375-0.99939108zM345.47102999 569.01598525c0.11587143 0.15932322 0.23898482 0.31864643 0.36209822 0.47072769l0.2245009 0.2824366-1.00663304-1.32527947c0.13759733 0.18829107 0.27519465 0.38382411 0.42003392 0.57211518z" p-id="3349" fill="#558cf7"></path><path d="M512.00724196 284.73991704m-26.83147788 0a26.83147788 26.83147788 0 1 0 53.66295577 0 26.83147788 26.83147788 0 1 0-53.66295577 0Z" p-id="3350" fill="#558cf7"></path></svg>