<?xml version="1.0" standalone="no"?><!DOCTYPE svg PUBLIC "-//W3C//DTD SVG 1.1//EN" "http://www.w3.org/Graphics/SVG/1.1/DTD/svg11.dtd"><svg class="icon" width="48px" height="48.00px" viewBox="0 0 1024 1024" version="1.1" xmlns="http://www.w3.org/2000/svg"><path  d="M817.69458008 182.50079346H206.00054932a23.22784424 23.22784424 0 0 0-23.203125 23.203125v611.65283203a23.17016602 23.17016602 0 0 0 23.203125 23.21136474H817.69458008a23.24432373 23.24432373 0 0 0 23.21136474-23.21136474V205.60504151a23.21136474 23.21136474 0 0 0-23.21136474-23.07128907zM794.45025635 794.04650879h-565.24658203v-565.24658203h565.24658203z m0-1e-8"  /><path  d="M261.63531494 770.94226075h213.10455323A9.23675537 9.23675537 0 0 0 483.98486328 761.72198487V265.89526367a9.24499512 9.24499512 0 0 0-9.22027588-9.22027588H261.63531494A9.24499512 9.24499512 0 0 0 252.44799805 265.89526367V761.66430664a9.26147461 9.26147461 0 0 0 9.22027588 9.31915283z m9.32739258-495.8267212h194.55688477v477.28729248H270.96270752zM728.04614258 768.56097412h23.203125a9.24499512 9.24499512 0 0 0 9.22027588-9.22027588V736.12109375a9.22027588 9.22027588 0 0 0-18.44055176 0v13.87573242h-13.88397217a9.24499512 9.24499512 0 0 0-9.22027588 9.22851563 9.10491943 9.10491943 0 0 0 9.12139893 9.31915283z m-111.1706543 0h55.63476563a9.22027588 9.22027588 0 1 0 0-18.44055175h-55.63476563a9.22027588 9.22027588 0 1 0 0 18.44055175z m-78.73077393 0h23.203125a9.22027588 9.22027588 0 1 0 0-18.44055175H547.4309082v-13.87573243a9.22027588 9.22027588 0 1 0-18.44055176 0v23.203125a8.94012451 8.94012451 0 0 0 9.12139893 9.11315918z m0-172.91107178a9.23675537 9.23675537 0 0 0 9.22027588-9.21203613v-49.94110108a9.22027588 9.22027588 0 1 0-18.44055176 0v49.94110108a9.0637207 9.0637207 0 0 0 9.22027588 9.21203613z m0 99.8739624a9.24499512 9.24499512 0 0 0 9.22027588-9.22027588v-49.93286133a9.22027588 9.22027588 0 1 0-18.44055176 0v49.93286133a9.10491943 9.10491943 0 0 0 9.22027588 9.22027588z m0-299.60540771a9.24499512 9.24499512 0 0 0 9.22027588-9.22851562v-49.93286133a9.22027588 9.22027588 0 1 0-18.44055176 0v49.93286133a9.1708374 9.1708374 0 0 0 9.22027588 9.22851562z m0 99.86572266a9.24499512 9.24499512 0 0 0 9.22027588-9.22027588v-49.93286133a9.22027588 9.22027588 0 1 0-18.44055176 0v49.93286133a9.1708374 9.1708374 0 0 0 9.22027588 9.22027588z m0-199.84680177a9.24499512 9.24499512 0 0 0 9.22027588-9.22027587v-13.87573242h13.88397217a9.22851563 9.22851563 0 0 0 0-18.4487915H538.03759766a9.24499512 9.24499512 0 0 0-9.22027588 9.22851562v23.203125a9.24499512 9.24499512 0 0 0 9.32739257 9.11315918z m78.73077393-23.07128905h55.63476563a9.22851563 9.22851563 0 0 0 0-18.4487915h-55.63476563a9.22851563 9.22851563 0 0 0 0 18.4487915z m111.1706543 0H741.88891602v13.87573242a9.22027588 9.22027588 0 1 0 18.44055176 0v-23.22784424a9.24499512 9.24499512 0 0 0-9.22027588-9.22027588h-23.17016602a9.24499512 9.24499512 0 0 0-9.22027588 9.22027588 9.41802979 9.41802979 0 0 0 9.32739258 9.32739258z m23.203125 354.20196533a9.24499512 9.24499512 0 0 0-9.22027588 9.22027588v49.94110107a9.22027588 9.22027588 0 0 0 18.44055176 0v-49.96582031a9.24499512 9.24499512 0 0 0-9.22027588-9.22027588z m0-99.86572266a9.23675537 9.23675537 0 0 0-9.22027588 9.22027588v49.93286133a9.22027588 9.22027588 0 1 0 18.44055176 0v-49.93286133a9.23675537 9.23675537 0 0 0-9.22027588-9.22027588z m0-199.7479248a9.24499512 9.24499512 0 0 0-9.22027588 9.22027587v49.91638184a9.22027588 9.22027588 0 1 0 18.44055176 0v-49.94110107A9.24499512 9.24499512 0 0 0 751.24926758 327.4296875z m0 99.8739624a9.24499512 9.24499512 0 0 0-9.22027588 9.22027588V486.45678711a9.22027588 9.22027588 0 1 0 18.44055176 0v-49.93286133a9.24499512 9.24499512 0 0 0-9.22027588-9.22027588z m0 0"  /></svg>