<?xml version="1.0" standalone="no"?><!DOCTYPE svg PUBLIC "-//W3C//DTD SVG 1.1//EN" "http://www.w3.org/Graphics/SVG/1.1/DTD/svg11.dtd"><svg t="1589595951196" class="icon" viewBox="0 0 2766 1024" version="1.1" xmlns="http://www.w3.org/2000/svg" p-id="2316" width="345.75" height="128" xmlns:xlink="http://www.w3.org/1999/xlink"><defs><style type="text/css"></style></defs><path d="M1089.654881 384.905119h-79.704485l-5.403694 29.423113h10.807388l-46.174565 233.493615s-3.863641 16.373193 7.619209 27.396728a28.126227 28.126227 0 0 0 20.344907 8.105541h346.268707l6.754618-36.339842H1056.989551s-17.183747 0.729499-15.265435-17.264802z" p-id="2317" fill="#ffffff"></path><path d="M1131.317361 312.792823h230.116307a27.639894 27.639894 0 0 1 21.614775 11.320739c3.809604 5.403694 8.105541 11.131609 6.619525 22.155145l-45.336992 234.11504s-4.566121 12.941847 8.4838 12.69868h8.105541l-5.998101 30.341742h-51.416147s-15.076306 0.864591-22.938681-11.888127c-2.945013-4.620158-8.510818-12.131293-6.322322-23.965382l44.769604-227.792718s3.755567-16.021953-13.806438-16.021953h-179.72686z" p-id="2318" fill="#ffffff"></path><path d="M1201.052032 384.905119l-13.563272 66.870712H1103.97467l-5.64686 29.288021h83.406016L1153.688654 623.424169h70.62628l26.775303-141.873984h22.155146l5.619841-30.260686h-21.398628l12.212349-66.38438h-68.626913zM1449.243694 312.792823l-72.166333 370.558312h34.151346s29.720317 3.458364 35.529288-32.638312L1506.928127 345.836412h21.209498l-8.753984 47.174248h-15.778786l-5.808971 29.585224h15.697731l-17.940264 89.701319h-15.53562l-5.754934 29.31504h15.589657l-27.829024 141.630818h38.636412s26.397045 1.810237 30.963166-32.584275l66.492454-337.974037zM1614.002322 312.792823l20.534037 25.451399h-30.774037l-6.268285 31.476517h56.49562l-16.400211 19.021002h-43.526755l-6.376359 31.773721h22.560423L1580.040106 456.612137h66.384379l31.125278-36.096675h28.531503L1736.855303 456.612137h73.490238l-31.638628-36.664063h50.416464l6.18723-30.963166h-118.6381l16.373192-19.021003h106.020475l6.268285-31.96285h-17.345857l22.209182-25.208232h-68.978153l-20.966333 25.451399h-10.94248l21.452665-25.451399h-68.356728l-8.402744 9.834723-8.375726-9.834723h-71.625963zM1578.473034 467.176359l-6.376359 32.206016 170.405489-0.324222-7.511135 38.285172h71.247705l13.806438-70.166966h-241.572138z" p-id="2319" fill="#ffffff"></path><path d="M1570.529604 507.082639l-9.429446 48.092876s-4.187863 25.721583 23.695198 25.721583H1726.480211l-9.375409 48.146913a23.641161 23.641161 0 0 1-23.83029 17.697097H1615.704485l-6.862691 36.664064h128.71599s25.343325 1.999367 37.150395-12.779737c4.94438-6.106174 7.646227-12.995884 10.267019-26.451081l19.264169-94.564644h-157.328549s-12.131293 0-9.132243-12.266385l5.890027-30.260686z" p-id="2320" fill="#ffffff"></path><path d="M1552.265119 600.647599h149.871451l-6.862691 31.395462h-149.19599l6.18723-31.395462zM2109.277889 338.001055l4.94438-25.208232h-71.058575l-4.94438 25.208232h-155.54533L1837.255937 571.008338c-2.99905 15.562639-2.323588 21.317573 5.403694 31.152295a27.01847 27.01847 0 0 0 25.262269 9.321372h116.530659l-13.995567 71.86913 233.547652 0.378258 6.646543-36.988285h-161.975725l6.754617-34.880844h126.554512c15.751768 0 23.641161-0.810554 31.260369-8.321689 9.564538-9.699631 10.807388-25.289288 10.807388-25.289287l47.363378-240.248233z m-118.259842 240.626491h-70.896464c-15.859842-0.729499-12.320422-15.832823-12.320422-15.832823l14.157678-69.113245h85.675567z m22.938681-117.827546h-85.675567l17.697098-90.646966H2031.788918z m141.738892 105.372032a13.806438 13.806438 0 0 1-15.805805 12.374459h-77.894248l16.967599-84.946069h91.862797z m21.155462-104.831663h-91.45752l17.399894-90.457836h91.430502zM2309.322639 338.001055h65.438733l8.99715-25.208232h72.949869l-8.753985 24.775937h271.022269l-61.115778 307.686332s-2.134459 20.020686-12.077256 28.585541c-9.078206 7.808338-12.995884 9.510501-29.720316 9.510502h-160.48971l7.430079-36.610027h105.831346s18.912929 0.756517 22.209182-20.885277L2641.082427 370.153034h-203.530131l-102.535093 313.576359H2262.526649L2364.494354 370.153034h-61.602111zM1009.274934 300.472401l98.644433-30.530871-51.308074 90.592929-6.430396-46.363694-40.905963-13.698364zM997.089604 710.369604l15.130343 26.829341 15.130343-26.829341h26.261953l-28.585541 50.173298 27.910079 49.605911h-26.82934l-14.535937-26.234934-15.18438 26.234934h-25.910712l28.045171-49.065541-28.045171-50.713668h26.613192zM1075.335092 710.369604l-17.129709 82.703536s-4.2419 17.075673 12.833773 17.075673h42.635145s13.212032 0.999683 16.724433-16.643378l17.183746-83.135831H1118.564644l-14.698048 71.815093a7.754301 7.754301 0 0 1-8.483799 6.484432s-7.024802-0.486332-5.592823-8.429762l14.211715-69.869763zM1165.387652 710.369604h54.307124s17.507968-0.999683 14.265752 16.940581l-17.886227 82.838628h-28.77467l15.373509-70.248021a5.403694 5.403694 0 0 0-5.754934-7.267969h-36.393879z" p-id="2321" fill="#ffffff"></path><path d="M1157.579314 747.465963l-13.076939 62.68285h28.77467l13.022902-62.68285h-28.720633zM1244.470712 710.369604h76.435251l-4.566121 22.344275h-77.056676l5.187546-22.344275zM1261.735515 747.465963l-13.833457 62.68285h29.261003l13.320105-62.68285h-28.747651zM1328.525172 710.369604l-4.94438 22.344275h53.982902l4.647177-22.344275h-53.685699zM1320.905963 747.465963l-13.212032 62.68285h53.928866l4.431029-21.398628h-25.019103l3.944697-19.345225h24.88401l4.458048-21.938997h-53.415515zM1601.384697 710.369604l-4.94438 22.344275h53.901847l4.75525-22.344275H1601.384697zM1593.630396 747.465963l-13.212032 62.68285h53.982902l4.43103-21.398628h-25.07314l3.944696-19.345225h24.829974l4.620158-21.938997h-53.523588zM1738.368338 710.369604l-4.94438 22.344275h54.036939l4.701214-22.344275H1738.368338zM1730.722111 747.465963l-13.320106 62.68285h53.982903l4.512084-21.398628h-25.07314l3.998734-19.345225h24.748918l4.755251-21.938997h-53.604644zM2526.740264 710.369604l-4.998417 22.344275h53.84781l4.755251-22.344275h-53.604644zM2518.985963 747.465963l-13.266069 62.68285h53.982903l4.512084-21.398628h-25.07314l3.998734-19.345225h24.829974l4.620158-21.938997h-53.604644zM1399.907968 710.369604H1453.593668s18.912929-0.432296 15.184379 17.940264l-17.021635 82.244222h-28.828708l14.454882-70.248021s1.918311-7.565172-6.835673-7.565172h-34.907863z" p-id="2322" fill="#ffffff"></path><path d="M1392.396834 747.465963l-13.266069 62.68285h29.098892l12.617625-62.68285h-28.450448zM1562.397045 710.369604h-61.467019s-11.023536-0.378259-13.509234 13.644327l-14.13066 68.734987s-4.512084 17.886227 14.13066 17.886227h40.527704s13.94153 1.134776 17.237784-15.562638l9.645593-47.606544h-35.772453l-4.809288 21.830924h8.105541l-2.945013 13.94153s-1.296887 5.052454-8.321689 5.052454a7.159894 7.159894 0 0 1-6.484433-7.808338l8.4838-42.527071a6.970765 6.970765 0 0 1 7.646227-5.268602h37.015303zM1672.497309 710.369604l-20.885277 99.779209h55.60401l4.2419-21.72285h-26.559156l16.292137-78.056359h-28.693614zM1878.648232 710.369604h-56.333509s-12.320422-0.945646-15.157362 14.022586l-14.184696 69.545541S1788.622691 810.55409 1807.049288 810.55409h50.173298l4.728232-21.966016h-31.77372s-7.808338 0.648443-5.808971-8.105541l8.564855-41.581425a7.484116 7.484116 0 0 1 8.267651-6.403377h32.773404zM2171.717573 710.369604h-56.360528s-12.563588-0.945646-15.211399 14.022586l-14.130659 69.545541s-4.2419 16.616359 13.887493 16.616359h50.227335l4.566122-21.966016h-31.395462s-7.889393 0.648443-5.9981-8.105541l8.564855-41.581425a7.457098 7.457098 0 0 1 8.10554-6.403377H2166.881266zM1882.403799 710.369604h76.62438l-4.809287 22.344275h-76.732454l4.917361-22.344275zM1899.938786 747.276834l-13.076939 63.358311h29.071873l12.833773-63.358311H1899.938786zM1966.296148 710.369604h53.550607s18.696781-0.378259 15.18438 17.940264l-8.808022 40.987019h-9.942796a12.644644 12.644644 0 0 1 7.132876 14.752084l-5.403694 26.586174h-28.07219l6.565488-33.340791s1.621108-7.700264-5.052454-8.105541H1983.155673L1974.72591 810.55409h-29.882427l13.509235-63.358312h44.418364l1.999367-7.889393s2.080422-6.70058-5.944064-6.70058h-36.772137zM2598.879578 710.369604h53.523588s18.642744-0.378259 15.076306 17.940264L2658.617414 769.864274h-9.753667s9.375409 2.863958 7.186913 14.184697l-5.376676 26.505119h-28.153245l6.619525-33.340792s1.621108-7.700264-5.052454-8.105541h-8.267652L2607.282322 810.55409h-28.990818l13.509235-62.790924h43.850976l1.837256-8.456781s2.188496-6.70058-5.835989-6.70058h-37.096359zM2056.564855 710.369604l-21.209499 100.265541h29.261003l20.885277-100.265541h-28.936781zM2209.921689 710.369604H2264.147757s18.453615-0.756517 14.454882 17.372876l-9.564539 42.473035H2226.3219l-8.4838 40.527704H2189.036412l13.374142-63.169182h43.229552l1.837255-7.267968s2.242533-7.430079-5.079472-7.43008h-37.042322zM2352.038839 710.369604H2313.591557s-15.157361-1.891293-17.967283 11.942164l-15.508601 70.761372s-4.512084 17.562005 15.022269 17.562005h37.339525a19.993668 19.993668 0 0 0 20.83124-17.12971l13.509235-66.708601s4.755251-16.42723-14.779103-16.42723z m-16.562322 28.720633l-8.64591 42.581109a7.727282 7.727282 0 0 1-8.808021 6.70058c-7.457098-1.377942-5.187546-9.564538-5.187546-9.564538l8.321688-40.932982c1.107757-5.619842 7.430079-5.106491 7.430079-5.10649 7.94343 0 6.88971 6.322322 6.88971 6.322321zM2375.571926 710.369604h28.207282l10.807388 50.173298 10.942481-50.173298h35.178047l10.807388 48.173932 10.456148-48.173932h28.693614l-21.263535 100.265541h-35.069974l-11.158628-52.091609-11.374776 52.091609h-34.853825l-21.37161-100.265541zM160.273562 365.64095S443.102902 126.014142 825.54934 43.067441c0 0 45.931398-10.321055 53.6857 4.836306 0 0 9.321372 14.616992-14.589974 45.661213 0 0-92.700369 105.507124-151.600633 146.980475 0 0 70.734354-91.646649-36.150713-78.353562 0 0.108074-168.0819 18.615726-516.620158 203.449077z" p-id="2323" fill="#ffffff"></path><path d="M42.500053 597.108179s48.633245-167.136253 293.285488-270.535936c0 0 144.548813-64.43905 355.725171-77.434934 0 0-162.381003 141.792929-303.795672 342.215936 0 0-100.724855 135.281478 35.82649 238.816254 0 0 99.968338 68.410765 196.532349-13.887494 0 0 45.55314-39.095726 71.436833-115.720105 0 0 129.283377-22.77657 198.234512-78.353562 0 0-50.362427 265.645594-276.155778 336.650132 0 0-218.498364 75.651715-359.940053-59.575726l55.874195-47.714617s12.320422-10.185963 2.999051-22.884644c0 0-10.077889-12.023219-29.206966 4.620158 0 0-73.679367 58.062691-79.893615 64.168866 0 0-40.770871 32.773404-72.787757 11.212665 0 0-32.422164-18.345541-6.88971-83.324961a556.175198 556.175198 0 0 1 46.795989-100.319578s-15.157361-89.836412 28.07219-180.159155l73.81446-35.475251s19.885594-5.9981 12.509551-25.019103c0 0-5.9981-14.941214-27.01847-6.430396-0.135092 0.270185-136.686438 47.49847-215.418258 119.151451z" p-id="2324" fill="#ffffff"></path></svg>