<?xml version="1.0" standalone="no"?><!DOCTYPE svg PUBLIC "-//W3C//DTD SVG 1.1//EN" "http://www.w3.org/Graphics/SVG/1.1/DTD/svg11.dtd"><svg t="1589595964370" class="icon" viewBox="0 0 1024 1024" version="1.1" xmlns="http://www.w3.org/2000/svg" p-id="2587" width="128" height="128" xmlns:xlink="http://www.w3.org/1999/xlink"><defs><style type="text/css"></style></defs><path d="M178.994305 354.962288S486.859465 94.068159 903.262383 3.751378c0 0 50.123449-11.254133 58.414309 5.233014 0 0 10.150787 15.951236-15.762091 49.713635 0 0-100.877382 114.905643-165.09214 160.048271 0 0 77.045101-99.774036-39.373703-85.115291 0.031524-0.063048-182.966352 20.112428-562.454453 221.331281z" p-id="2588" fill="#ffffff"></path><path d="M50.753933 607.029646s53.055198-181.989102 319.371486-294.561955c0 0 157.368716-70.141305 387.306099-84.327187 0 0-176.819136 154.468491-330.78324 372.61583 0 0-109.672629 147.312502 39.026937 260.042976 0 0 108.758427 74.491642 213.986146-15.131607 0 0 49.587538-42.557646 77.770157-126.096727 0 0 140.755472-24.778007 215.814549-85.115291 0 0-54.820552 289.234369-300.677647 366.531662 0 0-237.913001 82.404211-391.877105-64.845242l60.810147-51.951852s13.429301-11.096512 3.152418-24.935628c0 0-10.970415-13.082535-31.807899 5.04387 0 0-80.229043 63.048364-86.975218 69.889111 0 0-44.417572 35.685374-79.283317 12.168334 0 0-35.338608-19.954807-7.471231-90.695071a605.264292 605.264292 0 0 1 51.069174-109.262815s-16.487147-97.724964 30.578457-196.143459l80.386663-38.585599s21.657113-6.525506 13.618447-27.236893c0 0-6.525506-16.266478-29.569683-6.998368-0.031524 0-148.699566 51.447465-234.44534 129.595911z" p-id="2589" fill="#ffffff"></path></svg>