<?xml version="1.0" standalone="no"?><!DOCTYPE svg PUBLIC "-//W3C//DTD SVG 1.1//EN" "http://www.w3.org/Graphics/SVG/1.1/DTD/svg11.dtd"><svg t="1590023799126" class="icon" viewBox="0 0 1024 1024" version="1.1" xmlns="http://www.w3.org/2000/svg" p-id="3695" xmlns:xlink="http://www.w3.org/1999/xlink" width="64" height="64"><defs><style type="text/css"></style></defs><path d="M727.88 510.16c-32 0-56.93-25.81-56.93-57.76s25.8-57.75 56.93-57.75c32 0 56.94 25.8 56.94 57.75s-25.82 57.76-56.94 57.76z m0 0M608.69 352.05c-32 0-56.94-25.8-56.94-57.75s25.81-57.76 56.94-57.76c31.95 0 56.93 25.81 56.93 57.76s-25.8 57.75-56.93 57.75z m0 0M412.08 352.05c-31.95 0-56.93-25.8-56.93-57.75s25.8-57.76 56.93-57.76c31.92 0 56.92 25.81 56.92 57.76s-25.81 57.75-56.94 57.75z m0 0M292.89 510.16c-31.95 0-56.94-25.81-56.94-57.76s25.81-57.75 56.94-57.75c31.95 0 56.93 25.8 56.93 57.75s-26.21 57.76-56.93 57.76z m0 0" p-id="3696" fill="#2b2f51"></path><path d="M510 896.82c-211 0-383-172.44-383-384.21S298.21 128 510 128c210.12 0 382.56 154.83 385.43 344.88 0 124.52-100.76 226.51-224.46 226.51h-71.7a34.62 34.62 0 0 0-34.41 34.41c0 7.37 2 13.52 9.42 22.53 13.52 13.51 20.89 34.4 20.89 55.29 0 46.7-38.5 85.2-85.19 85.2z m-0.41-730.32c-189.65 0-344.89 155.24-344.89 345.7s154 346.12 344.89 346.12a35.93 35.93 0 0 0 35.63-35.64c0-9.83-4.5-18.43-7.78-21.71l-2-3.28c-8.6-11.87-20.48-29.89-20.48-56.11 0-48.33 39.73-88.07 88.07-88.07h74.47c99.12 0 181-81.91 181-181.85-3.69-167.12-158.93-305.16-349-305.16z m0 0" p-id="3697" fill="#2b2f51"></path></svg>