<?xml version="1.0" standalone="no"?><!DOCTYPE svg PUBLIC "-//W3C//DTD SVG 1.1//EN" "http://www.w3.org/Graphics/SVG/1.1/DTD/svg11.dtd"><svg t="1590023792279" class="icon" viewBox="0 0 1024 1024" version="1.1" xmlns="http://www.w3.org/2000/svg" p-id="3512" xmlns:xlink="http://www.w3.org/1999/xlink" width="64" height="64"><defs><style type="text/css"></style></defs><path d="M690.53 205.61h91.75L288.56 699.34a25.57 25.57 0 1 0 36.17 36.16l493.83-493.83v91.86a25.57 25.57 0 1 0 51.14 0L869.66 180a25.56 25.56 0 0 0-25.57-25.55H690.53a25.57 25.57 0 0 0 0 51.14z m0 0" p-id="3513" fill="#2b2f51"></path><path d="M460.28 205.61a25.57 25.57 0 0 0 0-51.14H306.72A25.57 25.57 0 0 0 281.15 180l-0.08 153.48a25.57 25.57 0 0 0 51.14 0l0.05-91.86L826.08 735.5a25.57 25.57 0 0 0 36.17-36.16L368.53 205.61z m0 0" p-id="3514" fill="#2b2f51"></path><path d="M818.52 563.85v91.76L324.8 161.89a25.58 25.58 0 0 0-36.17 36.17l493.83 493.82h-91.85a25.57 25.57 0 0 0 0 51.14l153.5-0.02a25.58 25.58 0 0 0 25.56-25.58V563.85a25.58 25.58 0 0 0-51.15 0z" p-id="3515" fill="#2b2f51"></path><path d="M332.29 563.85a25.58 25.58 0 0 0-51.15 0v153.56A25.58 25.58 0 0 0 306.7 743l153.48 0.08a25.57 25.57 0 0 0 0-51.14h-91.86l493.86-493.88A25.58 25.58 0 1 0 826 161.89L332.29 655.61v-91.76z" p-id="3516" fill="#2b2f51"></path></svg>