<?xml version="1.0" standalone="no"?><!DOCTYPE svg PUBLIC "-//W3C//DTD SVG 1.1//EN" "http://www.w3.org/Graphics/SVG/1.1/DTD/svg11.dtd"><svg t="1589039156843" class="icon" viewBox="0 0 1024 1024" version="1.1" xmlns="http://www.w3.org/2000/svg" p-id="3341" xmlns:xlink="http://www.w3.org/1999/xlink" width="128" height="128"><defs><style type="text/css"></style></defs><path d="M471.72 278.64v-9.05c0-21.77 18-39.59 39.94-39.59s39.93 17.82 39.93 39.59v9.05c96.87 18.6 170.53 103.59 170.53 204.94v189.88h44.07a18.09 18.09 0 0 1 18.09 18.09 18.09 18.09 0 0 1-18.09 18.09h-509.1A18.09 18.09 0 0 1 239 691.55a18.09 18.09 0 0 1 18.09-18.09h428.54V483.58c-0.27-95.17-78-172.24-174-172.51-96 0.31-173.67 77.31-174 172.51V674.3h-36.51V483.61c0-101.31 73.73-186.3 170.57-204.94zM584 724.76c-0.07 38-32.15 68.78-72.29 68.78-39.94 0-72.26-30.65-72.33-68.78z m0 0" p-id="3342"></path></svg>