<?xml version="1.0" standalone="no"?><!DOCTYPE svg PUBLIC "-//W3C//DTD SVG 1.1//EN" "http://www.w3.org/Graphics/SVG/1.1/DTD/svg11.dtd"><svg class="icon" width="48px" height="48.00px" viewBox="0 0 1024 1024" version="1.1" xmlns="http://www.w3.org/2000/svg"><path  d="M820.61968994 581.75460053v-63.04178239-74.84521866-149.55139159-1.7689705c0.09269714-6.17980958 0.22401809-15.54994582-13.68055344-15.88211058a78.84664536 78.84664536 0 0 0-11.96565627 0.94242094c-10.04219055 1.29776001-16.82453156 1.79214477-19.89898682-2.94313429-3.34482193-5.22193909-2.60324478-14.14403916-1.87711716-22.78032303 0.32444001-3.90872956 0.66432953-7.95650482 0.64115524-11.78798677v-0.20856857c-0.07724763-10.53657532-0.11587143-15.8203125-3.70788574-19.31190491s-8.98389817-3.48386765-19.73676681-3.48386764H283.71783447c-15.36455154 0-23.07386398 0-27.80914306 4.80480194s-4.63485718 12.61453628-4.63485719 28.25717926c0 13.37928772 0 21.45938873-2.77318954 24.17850494s-10.40525437 2.61096954-23.79999161 2.3174286c-7.36942292-0.16222-13.078022 0.5098343-16.99447632 4.32586669-3.27529907 3.26757431-4.69665528 8.28866959-4.69665527 16.27607346 0.57163239 150.56333542 0.59480667 310.53543091 0.06952286 489.13192749 0 6.05621338 0.54073334 12.2051239 4.48036194 16.12157822s10.1735115 4.4262886 15.78941345 4.40311432c73.55518342-0.47893524 148.38495254-0.42486191 220.75824738-0.37851334q67.89293289 0.04634858 135.77814102 0c72.38101959-0.04634858 147.22623825-0.09269714 220.82004546 0.37851334h0.7724762c5.40733338 0 11.24725342-0.61025619 15.02466203-4.37221528 3.97052766-3.94735337 4.4880867-10.04219055 4.45718765-16.10612868-0.44031143-68.17874909-0.3862381-137.57801056-0.33988953-204.67529298zM452.51933289 684.78747559c0 4.63485718-0.49438477 7.16857911-1.68399812 8.35046768s-3.63836288 1.63764953-7.60116576 1.54495239c-18.84841919-0.30899048-37.85133362-0.46348572-56.84652329-0.46348572s-38.01355361 0.15449524-56.89287186 0.45576095c-3.98597717 0.0617981-6.48880005-0.47893524-7.63978958-1.63764953s-1.70717239-3.80830764-1.6453743-8.2654953c0.34761428-31.45523071 0.29354096-63.42029572 0.23946763-94.33479309q0-17.17214585-0.03862381-34.33656692 0-15.85121154 0.03862381-31.72559738c0.04634858-31.27756118 0.10042191-63.61341476-0.30899048-95.42398454 0-4.41856385 0.50210952-7.01408386 1.66854859-8.15734863s3.65381241-1.63764953 7.67841338-1.54495239c37.70456314 0.61798096 75.98075867 0.61798096 113.76256943 0 4.0014267-0.07724763 6.48880005 0.43258667 7.6166153 1.54495239s1.67627334 3.73878479 1.65309906 8.18824768c-0.36306382 84.87195968-0.36306382 170.93353271 0 255.8054924z m-132.4719429 73.11487197v-1.54495239c0.18539429-9.96494294 0.30126572-15.97480774 2.27108001-17.80557632s8.92210007-1.91574097 19.2732811-1.91574097h46.27904892c5.51548005 0 11.11593247 0.03862381 16.5309906 0.07724762 13.18616867 0.10042191 26.82037354 0.20084381 40.16876221-0.28581619 3.36027145-0.10814667 5.54637909 0.32444001 6.48880005 1.25141144s1.39045716 3.17487717 1.30548477 6.77461623c-0.09269714 4.19454575-0.10814667 7.72476196-0.12359619 10.81466675 0 5.86309433-0.0617981 11.93475723-0.9346962 12.7767563-0.64115525 0.61798096-5.1369667 0.46348572-8.75215531 0.33988953-3.26757431-0.10814667-7.33852387-0.24719239-12.35961914-0.17766954-14.56890107 0.18539429-29.42361832 0.12359619-43.78395081 0.06952286-18.400383-0.06952285-37.43419648-0.14677048-56.16674423 0.27036667-4.39538955 0.07724763-7.15312958-0.49438477-8.41226578-1.75352096s-1.8693924-4.11729813-1.78442-8.89120103z m416.42646789-484.7210884c-0.91152191 2.25563049-1.54495239 2.47192383-5.77039718 1.93119049a28.74383926 28.74383926 0 0 0-3.52249146-0.29354096c-43.56765747 0.16222-87.84599304 0.15449524-130.66434861 0.14677049H453.73984528c-50.48131943 0-102.67753601-0.08497238-154.03175354 0.16221999-5.50775528 0-8.31956863-0.5098343-9.71775055-1.89256668s-2.00843811-4.24089431-2.00843812-8.79850387c0-4.2640686 0.63343048-7.09905624 1.94664002-8.41999055 1.59130097-1.59902572 5.10606766-1.91574097 10.25075913-1.91574096 117.53997802 0.22401809 237.02659607 0.21629333 352.56586075 0.20856857h71.89435959c5.484581 0 9.68685151 1.74579621 11.82661056 4.90522385 2.24790574 3.37572097 2.26335525 8.34274292 0.00772476 13.96636963z m47.22919464 483.97178649c0 5.76267243-0.63343048 8.85257722-2.11658477 10.32028198s-4.51898574 2.11658478-9.44738389 2.07796097c-85.08825303-0.5098343-173.64492416-0.5098343-270.72200775 0-5.30691147 0.04634858-8.4277153-0.64888-9.91086959-2.1320343s-2.16293335-4.58078384-2.13203431-9.98039246c0.18539429-54.55999374 0.20084381-110.01605988 0.21629333-163.64135742 0-62.5705719 0-127.21138 0.32444001-190.80162048 0-8.27322007-1.36728287-13.20934297-4.69665528-16.50781631-4.1636467-4.11729813-10.48250198-4.63485718-16.6932106-4.50353623-54.53681946 0.7724762-109.83839035 0.7724762-164.36748504 0-5.9094429-0.09269714-12.52956391 0.37851334-16.70093536 4.51126098-3.32937241 3.29847336-4.73527908 8.22687149-4.68893052 16.50009156 0.26264191 56.63795471 0.28581619 114.21060562 0.30899048 169.89068986 0 59.48066711 0.05407333 121.03157044 0.37078857 181.53190612 0 6.95228576-0.83427429 10.96143723-2.80408858 12.86172867s-5.80129624 2.5800705-12.25147248 2.31742859l-2.54917145-0.10042191c-12.53728867-0.47893524-20.0843811-0.7724762-22.64900207-3.51476669s-2.62641907-10.76831818-2.62641907-23.94676208V329.35572815c0-7.34624863 0-12.6531601 1.29003524-13.90457153s6.8441391-1.29776001 14.4607544-1.29776001h320.39995193c63.59796524 0.05407333 129.36658859 0.10042191 194.05374528-0.30899048 5.971241 0 9.18474197 0.63343048 10.76059341 2.20928192s2.26335525 4.85115052 2.24018097 10.38980484c-0.46348572 139.20793533-0.48666001 284.07812119-0.06952286 430.70955276z"  /><path  d="M570.35285187 679.17157363h162.84570694c7.46984483 0 15.05556106-0.69522858 19.97623443-5.70859907 3.13625336-3.20577622 4.63485718-7.72476196 4.55760956-13.52605821-0.3862381-18.05276871-16.99447632-18.05276871-24.06263351-18.05276871H569.30228425c-7.25355148 0.04634858-15.33365249 0.7724762-20.30067446 5.96351624-3.08990479 3.21350098-4.54216003 7.72476196-4.34904097 13.32521439 0.63343048 17.99869538 16.94040298 17.99869538 25.70028305 17.99869536zM620.7105751 505.34897996h0.23174286c11.17000581-0.16222 22.71852493-0.32444001 23.94676209 1.54495238s-3.97052766 12.40596772-8.96844865 22.57947922l-0.04634856 0.10814667q-7.57799149 15.52677155-15.19460679 31.05354309-6.95228576 14.22901154-13.90457153 28.45029831l-1.54495239 3.14397812 2.99720764 1.79986953 1.42908096 0.88062286 1.54495239 0.96559525 2.6418686 1.54495239 2.10886001-2.24790573c16.63913727-17.76695252 33.27054978-35.57252884 50.11825562-53.57122421 22.90391922-24.47977066 46.19407654-49.37667847 70.39575577-75.2623558l6.0098648-6.42700196H733.70066833c-17.76695252 0-32.24315644 0-48.30293655 0.04634858 4.33359146-7.16857911 8.53586197-14.14403916 12.69950867-21.04997634 7.72476196-12.74585724 15.23323059-25.26769639 23.17428589-38.43069077l3.49931717-5.79357148h-6.76689148c-5.60045243 0-10.87646484 0-15.98253251 0.06952286-12.24374771 0.08497238-22.81894685 0.15449524-33.5486412-0.27809143-9.58642959-0.40168762-15.24095535 3.05128098-19.54364777 11.88840866-8.89892578 18.22271347-18.37720871 36.56902313-27.54650115 54.31280136-4.28724289 8.31184388-8.72898102 16.90950394-13.05484773 25.38356781-4.17137146 8.19597244-6.27250672 12.3055458-4.03232574 15.88983535s6.68964386 3.56884003 16.41511917 3.39889528zM753.34473801 713.45406723c-4.88204956-5.02882004-12.47549057-5.72404861-19.94533539-5.72404862H569.02419282c-6.54287338 0.04634858-23.94676208 0.16222-24.30210115 17.96779633-0.14677048 5.69314957 1.37500763 10.21213532 4.52671051 13.44108582 5.05199433 5.18331528 12.98532486 5.87854385 20.0843811 5.87854385H733.70066833c7.07588196 0 23.65322113 0 24.13215638-17.95234681 0.13904572-5.80902099-1.3595581-10.35890579-4.4880867-13.61103057z"  /></svg>