<?xml version="1.0" standalone="no"?><!DOCTYPE svg PUBLIC "-//W3C//DTD SVG 1.1//EN" "http://www.w3.org/Graphics/SVG/1.1/DTD/svg11.dtd"><svg class="icon" width="48px" height="48.00px" viewBox="0 0 1024 1024" version="1.1" xmlns="http://www.w3.org/2000/svg"><path fill="#606266" d="M763.61094666 203.40348434H260.39677811A24.34844971 24.34844971 0 0 0 236.0483284 227.72875977a24.34844971 24.34844971 0 0 0 24.34844971 24.3484497h8.11872482v545.5690384A22.58720398 22.58720398 0 0 0 291.07180786 820.21800232h441.85638428a22.58720398 22.58720398 0 0 0 22.58720398-22.58720398V252.10038376h8.11872483A24.35617447 24.35617447 0 0 0 787.95939636 227.72875977a24.34844971 24.34844971 0 0 0-24.3484497-24.32527543z m-63.17310334 162.32042313H323.56988144a22.58720398 22.58720398 0 0 1-22.58720398-22.58720398v-52.21939086a22.58720398 22.58720398 0 0 1 22.58720398-22.58720399h376.86796189a22.58720398 22.58720398 0 0 1 22.58720397 22.58720399v52.21939086a22.58720398 22.58720398 0 0 1-22.58720397 22.58720398zM300.98267746 765.1867981V420.77828598a22.58720398 22.58720398 0 0 1 22.58720398-22.58720398h376.86796189a22.58720398 22.58720398 0 0 1 22.58720397 22.58720398v344.40851212A22.58720398 22.58720398 0 0 1 700.43784333 787.77400208H323.56988144a22.58720398 22.58720398 0 0 1-22.58720398-22.58720398z m64.88800049-415.66171647a32.49807358 32.49807358 0 1 0-32.44400025-32.49807358 32.57532119 32.57532119 0 0 0 32.44400025 32.49807358z m0-48.74324798a16.2683487 16.2683487 0 1 1-15.53449631 16.22200012 16.2683487 16.2683487 0 0 1 15.53449631-16.22200012z m89.34459686 48.74324798a32.49807358 32.49807358 0 1 0-32.44400024-32.49807358 32.57532119 32.57532119 0 0 0 32.44400024 32.49807358z m0-48.74324798a16.2683487 16.2683487 0 1 1-15.54222107 16.22200012 16.2683487 16.2683487 0 0 1 15.54222107-16.22200012z m202.84452438 48.74324798a32.49807358 32.49807358 0 1 0-32.44400024-32.49807358 32.57532119 32.57532119 0 0 0 32.44400024 32.49807358z m0-48.74324798a16.2683487 16.2683487 0 1 1-15.54222106 16.22200012 16.22200012 16.22200012 0 0 1 15.54222106-16.22200012z m-112.6115799 48.74324798H560.66600037v-48.74324798h32.90748596v-16.22200013H512.44031143v16.22200013h33.04653168z m90.01665117 64.88800049h-246.96063996a22.59492874 22.59492874 0 0 0-22.59492875 22.58720399v311.94906234A22.59492874 22.59492874 0 0 0 388.5042305 771.55200195h246.99926377a22.59492874 22.59492874 0 0 0 22.59492873-22.58720398v-58.58459472h16.22200013v-64.93434907h-16.22200013v-48.66600035h16.22200013v-64.95752335h-16.22200013v-74.80659485a22.59492874 22.59492874 0 0 0-22.59492873-22.58720398zM625.63124848 625.44585419h-16.22200013v64.93434906h16.22200012v26.10197067A22.59492874 22.59492874 0 0 1 603.0440445 739.10800171H420.96368027a22.59492874 22.59492874 0 0 1-22.58720398-22.59492874V469.5138092a22.58720398 22.58720398 0 0 1 22.58720398-22.58720397h182.08036422A22.58720398 22.58720398 0 0 1 625.63124848 469.5138092v42.34714509h-16.22200013v64.92662429h16.22200012z m-186.6765976 56.81562423h146.098423v16.22200013H438.95465088z m0-32.44400024h146.098423v16.22200012H438.95465088z m0-32.44400025h146.098423v16.22200013H438.95465088z m64.41679001-12.27464675l48.66600037-81.22587205h-48.66600037v-48.78959655L454.66681671 556.80361938l48.70462418-0.51755905z m0 0" /></svg>