<?xml version="1.0" standalone="no"?><!DOCTYPE svg PUBLIC "-//W3C//DTD SVG 1.1//EN" "http://www.w3.org/Graphics/SVG/1.1/DTD/svg11.dtd"><svg class="icon" width="48px" height="48.00px" viewBox="0 0 1024 1024" version="1.1" xmlns="http://www.w3.org/2000/svg"><path fill="#606266" d="M633.80757709 356.17782165c-14.99086619 0-28.10108475 13.11021857-28.10108475 28.09429542s13.11021857 28.10108475 28.10108475 28.10108475 28.09429542-13.11700791 28.09429541-28.10108475-13.11021857-28.09429542-28.09429541-28.09429542zM240.42633724 513.52760185l97.40668349 123.63390998L375.30339685 624.02413589 277.88992402 500.41738327z m541.36851805-18.73858272l-67.43852983-213.54516037c-1.87385827-3.74771654-5.62157482-9.36929137-9.36929136-11.24314965s-9.36250203-1.86706893-14.98407684 0L268.52742199 423.60956211c-5.62157482 1.87385827-9.36929137 7.46827573-11.24314963 13.11700791s0 11.23636029 3.74771655 16.85793512l148.0076462 185.45086496c3.74771654 3.7409272 9.36250203 7.46827573 14.98407684 7.46827573 1.87385827 0 3.74771654 0 5.62157482-1.87385829l342.78027714-125.48740022c9.36929137-3.7409272 13.11021857-14.98407684 9.36929136-24.35336821z m-352.16993654 108.62946509l-123.63390998-155.47592193 380.26423196-138.59761878 54.31473253 179.82929014zM746.23228413 609.08758444v56.19538016H663.77573077l-20.60565166-39.36460241 106.77597487-39.33744506-13.11021858-35.5897285-271.62118814 99.28054176 24.38052556 31.84201196 118.01233516-43.07837225 28.10108475 54.31473255c3.74771654 5.62157482 9.36250203 11.23636029 16.85793511 11.23636029H746.23228413v50.58059469h37.47037613V609.08758444z m0 0" /></svg>