<?xml version="1.0" standalone="no"?><!DOCTYPE svg PUBLIC "-//W3C//DTD SVG 1.1//EN" "http://www.w3.org/Graphics/SVG/1.1/DTD/svg11.dtd"><svg class="icon" width="48px" height="48.00px" viewBox="0 0 1024 1024" version="1.1" xmlns="http://www.w3.org/2000/svg"><path  d="M767.58919907 422.13784408H251.37425613c-39.39628601 0-48.12526703 17.49658584-48.12526702 43.745327v87.49837875c0 34.9931717 17.49658584 43.745327 48.12526702 43.745327h520.5871582c26.26419068 0 43.75305176-13.13209534 43.75305177-43.745327V465.88317108c0-30.62095643-13.13209534-43.745327-48.12526703-43.745327z m8.7521553 135.61592103H246.99431609V461.51095581H776.34135437z m0 0"  /><path  d="M658.2220192 527.13280869h61.24191284c4.37994004 0 8.7521553-4.37994004 8.75215531-8.7521553v-13.13209534c0-4.37221527-4.37221527-8.74443054-8.75215531-8.74443054h-61.24191284c-4.37221527 0-8.7521553 4.37221527-8.75215531 8.74443054v13.13209534c0 4.37221527 4.37994004 8.7521553 8.75215531 8.7521553zM290.74736786 496.55047607h26.26419068v30.62095643h-26.26419067z m56.86969757 0h30.62095642v30.62095643H347.61706542z m61.24191285 0h30.62868118v30.62095643h-30.62868118z m56.87742233 0h30.62095642v30.62095643h-30.62095642z m301.85279846 144.32172776H251.37425613c-39.39628601 0-48.12526703 17.50431061-48.12526702 43.75305176v91.86286926c0 35.00089645 17.49658584 43.745327 48.12526702 43.74532699h520.5871582c30.62868118 0 48.12526703-13.13209534 48.12526704-43.74532699V684.62525559c-4.37221527-30.62868118-17.49658584-43.75305176-52.52838135-43.75305176z m8.7521553 135.61592102H246.99431609V684.62525559H776.34135437z m0 0"  /><path  d="M658.2220192 745.86716843h61.24191284c4.37994004 0 8.7521553-4.37221527 8.75215531-8.7521553v-13.13209534c0-4.37994004-4.37221527-8.7521553-8.75215531-8.75215531h-61.24191284c-4.37221527 0-8.7521553 4.37221527-8.75215531 8.75215531v13.13209534c0 4.37994004 4.37994004 8.7521553 8.75215531 8.7521553z m-367.47465134-30.62095643h26.26419067v30.62095643h-26.26419067z m56.86969757 0h30.62095642v30.62095643H347.61706542z m61.24191284 0h30.62868119v30.62095643h-30.62868119z m56.87742234 4.37221527h30.62095641v26.26419068h-30.62095641z m301.85279846-516.21494293H251.37425613c-39.39628601 0-48.12526703 17.49658584-48.12526702 43.745327V334.63946533c0 35.00089645 17.49658584 43.75305176 48.12526702 43.75305176h520.5871582c26.26419068 0 43.75305176-13.13209534 43.75305177-43.75305176V247.14881134c0-30.62095643-13.13209534-43.745327-48.12526703-43.745327z m8.7521553 135.61592102H246.99431609V242.77659607H776.34135437z m0 0"  /><path  d="M658.2220192 308.39072418h61.24191284c4.37994004 0 8.7521553-4.37221527 8.75215531-8.74443053v-13.13209534c0-4.37994004-4.37221527-8.7521553-8.75215531-8.75215531h-61.24191284c-4.37221527 0-8.7521553 4.37221527-8.75215531 8.75215531v13.13209534c0 4.37221527 4.37994004 8.74443054 8.75215531 8.74443054z m-367.47465134-30.62095641h26.26419067v30.62095642h-26.26419067z m56.86969757 0h30.62095642v26.26419067H347.61706542z m61.24191284 0h30.62868119v30.62095642h-30.62868119z m56.87742234 0h30.62095641v30.62095642h-30.62095641z m0 0"  /></svg>