<?xml version="1.0" standalone="no"?><!DOCTYPE svg PUBLIC "-//W3C//DTD SVG 1.1//EN" "http://www.w3.org/Graphics/SVG/1.1/DTD/svg11.dtd"><svg class="icon" width="48px" height="43.81px" viewBox="0 0 1122 1024" version="1.1" xmlns="http://www.w3.org/2000/svg"><path  d="M540.248276 900.413793H188.910345V125.351724h706.206896v308.965517c0 7.062069-5.296552 14.124138-14.124138 14.124138s-14.124138-5.296552-14.124137-14.124138v-282.482758h-653.24138v722.096551h323.089655c7.062069 0 14.124138 5.296552 14.124138 14.124138s-3.531034 12.358621-10.593103 12.358621z"  /><path  d="M736.22069 344.275862h-388.413793c-7.062069 0-14.124138-5.296552-14.124138-14.124138s5.296552-14.124138 14.124138-14.124138h388.413793c7.062069 0 14.124138 5.296552 14.124138 14.124138s-5.296552 14.124138-14.124138 14.124138zM610.868966 489.048276H347.806897c-7.062069 0-14.124138-5.296552-14.124138-14.124138s5.296552-14.124138 14.124138-14.124138h261.296551c7.062069 0 14.124138 5.296552 14.124138 14.124138s-5.296552 14.124138-12.35862 14.124138zM542.013793 628.524138h-194.206896c-7.062069 0-14.124138-5.296552-14.124138-14.124138s5.296552-14.124138 14.124138-14.124138h194.206896c7.062069 0 14.124138 5.296552 14.124138 14.124138s-5.296552 14.124138-14.124138 14.124138zM937.489655 649.710345h-68.855172L792.717241 564.965517h-84.744827c-7.062069 0-14.124138-5.296552-14.124138-14.124138s5.296552-14.124138 14.124138-14.124138h95.337931l75.917241 84.744828h58.262069c7.062069 0 14.124138 5.296552 14.124138 14.124138s-7.062069 14.124138-14.124138 14.124138zM753.875862 697.37931h-91.806896c-7.062069 0-14.124138-5.296552-14.124138-14.124138s5.296552-14.124138 14.124138-14.124138h91.806896c7.062069 0 14.124138 5.296552 14.124138 14.124138s-7.062069 14.124138-14.124138 14.124138zM748.57931 861.572414h-84.744827c-7.062069 0-14.124138-5.296552-14.124138-14.124138s5.296552-14.124138 14.124138-14.124138h74.151724l100.634483-97.103448h143.006896c7.062069 0 14.124138 5.296552 14.124138 14.124138s-5.296552 14.124138-14.124138 14.124138h-132.413793l-100.634483 97.103448z"  /><path  d="M686.786207 552.606897m-24.717241 0a24.717241 24.717241 0 1 0 49.434482 0 24.717241 24.717241 0 1 0-49.434482 0Z"  /><path  d="M653.241379 683.255172m-24.717241 0a24.717241 24.717241 0 1 0 49.434483 0 24.717241 24.717241 0 1 0-49.434483 0Z"  /><path  d="M766.234483 683.255172m-24.717242 0a24.717241 24.717241 0 1 0 49.434483 0 24.717241 24.717241 0 1 0-49.434483 0Z"  /><path  d="M948.082759 635.586207m-24.717242 0a24.717241 24.717241 0 1 0 49.434483 0 24.717241 24.717241 0 1 0-49.434483 0Z"  /><path  d="M981.627586 752.110345m-24.717241 0a24.717241 24.717241 0 1 0 49.434483 0 24.717241 24.717241 0 1 0-49.434483 0Z"  /><path  d="M662.068966 849.213793m-24.717242 0a24.717241 24.717241 0 1 0 49.434483 0 24.717241 24.717241 0 1 0-49.434483 0Z"  /></svg>