<?xml version="1.0" standalone="no"?><!DOCTYPE svg PUBLIC "-//W3C//DTD SVG 1.1//EN" "http://www.w3.org/Graphics/SVG/1.1/DTD/svg11.dtd"><svg class="icon" width="48px" height="43.81px" viewBox="0 0 1122 1024" version="1.1" xmlns="http://www.w3.org/2000/svg"><path  d="M926.896552 707.972414H187.144828V271.889655c0-30.013793 22.951724-52.965517 52.965517-52.965517h633.820689c30.013793 0 52.965517 22.951724 52.965518 52.965517v436.082759z m-704.44138-35.310345h669.131035V271.889655c0-10.593103-7.062069-17.655172-17.655173-17.655172H240.110345c-10.593103 0-17.655172 7.062069-17.655173 17.655172v400.772414z"  /><path  d="M930.427586 769.765517H180.082759c-30.013793 0-52.965517-22.951724-52.965518-52.965517v-44.137931h856.275862v44.137931c0 30.013793-22.951724 52.965517-52.965517 52.965517zM162.427586 707.972414v8.827586c0 10.593103 7.062069 17.655172 17.655173 17.655172h750.344827c10.593103 0 17.655172-7.062069 17.655173-17.655172v-8.827586H162.427586zM852.744828 639.117241H266.593103V282.482759h587.917242v356.634482z m-554.372414-31.77931h522.593103V314.262069H298.372414v293.075862z"  /></svg>