<?xml version="1.0" standalone="no"?><!DOCTYPE svg PUBLIC "-//W3C//DTD SVG 1.1//EN" "http://www.w3.org/Graphics/SVG/1.1/DTD/svg11.dtd"><svg class="icon" width="48px" height="43.81px" viewBox="0 0 1122 1024" version="1.1" xmlns="http://www.w3.org/2000/svg"><path  d="M457.268966 803.310345H266.593103c-19.42069 0-45.903448-14.124138-77.682758-40.606897-51.2-44.137931-75.917241-120.055172-61.793104-188.910345 10.593103-47.668966 44.137931-88.275862 95.337931-112.993103-15.889655-38.841379-19.42069-104.165517 47.668966-146.537931 0 0 35.310345-26.482759 84.744828-14.124138 8.827586-42.372414 45.903448-143.006897 188.910344-143.006897 1.765517 0 174.786207-8.827586 225.986207 165.958621 37.075862-3.531034 146.537931-1.765517 183.613793 112.993104 1.765517 7.062069-1.765517 15.889655-8.827586 17.655172-7.062069 1.765517-15.889655-1.765517-17.655172-8.827586-37.075862-116.524138-158.896552-93.572414-164.193104-93.572414l-12.35862 1.765517-3.531035-12.35862c-42.372414-165.958621-195.972414-158.896552-201.268965-157.131035-155.365517 0-164.193103 128.882759-164.193104 134.17931l-1.765517 19.42069-17.655173-7.062069c-44.137931-17.655172-75.917241 5.296552-75.917241 5.296552-75.917241 47.668966-35.310345 121.82069-33.544827 123.586207l7.062068 14.124138-12.35862 7.062069c-49.434483 19.42069-82.97931 54.731034-91.806897 97.103448-12.358621 58.262069 8.827586 123.586207 52.965517 162.427586 24.717241 21.186207 47.668966 35.310345 60.027587 35.310345H459.034483c7.062069 0 14.124138 7.062069 14.124138 14.124138s-7.062069 14.124138-15.889655 14.124138z"  /><path  d="M729.158621 771.531034c-1.765517 0-3.531034 0-5.296552-1.765517l-79.448276-40.606896V508.468966l130.648276-58.262069 143.006897 68.855172c7.062069 3.531034 8.827586 10.593103 7.062068 17.655172-3.531034 7.062069-10.593103 8.827586-17.655172 7.062069l-132.413793-63.55862-104.165517 45.903448v187.144828l65.324138 33.544827c7.062069 3.531034 8.827586 12.358621 5.296551 17.655173-1.765517 3.531034-7.062069 7.062069-12.35862 7.062068z"  /><path  d="M833.324138 838.62069c-5.296552 0-8.827586-1.765517-12.358621-7.062069-3.531034-7.062069-1.765517-14.124138 5.296552-17.655173l111.227586-60.027586v-123.586207l-165.958621-77.682758-45.903448 19.420689c-7.062069 3.531034-14.124138 0-17.655172-7.062069-3.531034-7.062069 0-14.124138 7.062069-17.655172l56.496551-24.717242 192.44138 90.04138v155.365517l-125.351724 67.089655c0 3.531034-1.765517 3.531034-5.296552 3.531035z"  /><path  d="M727.393103 840.386207l-150.068965-70.62069V617.931034c0-7.062069 5.296552-14.124138 14.124138-14.124137s14.124138 5.296552 14.124138 14.124137v134.179311l120.055172 58.262069 144.772414-88.275862v-67.089655c0-7.062069 5.296552-14.124138 14.124138-14.124138s14.124138 5.296552 14.124138 14.124138v82.97931l-171.255173 102.4z"  /></svg>