<?xml version="1.0" standalone="no"?><!DOCTYPE svg PUBLIC "-//W3C//DTD SVG 1.1//EN" "http://www.w3.org/Graphics/SVG/1.1/DTD/svg11.dtd"><svg class="icon" width="48px" height="43.81px" viewBox="0 0 1122 1024" version="1.1" xmlns="http://www.w3.org/2000/svg"><path  d="M586.151724 688.551724c-77.682759 0-139.475862-63.558621-139.475862-139.475862s63.558621-139.475862 139.475862-139.475862 139.475862 63.558621 139.475862 139.475862-61.793103 139.475862-139.475862 139.475862z m0-248.937931c-60.027586 0-107.696552 49.434483-107.696552 107.696552s49.434483 107.696552 107.696552 107.696552 107.696552-49.434483 107.696552-107.696552-47.668966-107.696552-107.696552-107.696552zM512 263.062069c-54.731034 0-97.103448-44.137931-97.103448-97.103448S459.034483 67.089655 512 67.089655c54.731034 0 97.103448 44.137931 97.103448 97.103448s-42.372414 98.868966-97.103448 98.868966z m0-164.193103c-37.075862 0-65.324138 30.013793-65.324138 65.324137S476.689655 229.517241 512 229.517241c37.075862 0 65.324138-30.013793 65.324138-65.324138S549.075862 98.868966 512 98.868966zM282.482759 598.510345c-54.731034 0-97.103448-44.137931-97.103449-97.103448s44.137931-97.103448 97.103449-97.103449c54.731034 0 97.103448 44.137931 97.103448 97.103449s-42.372414 97.103448-97.103448 97.103448z m0-164.193104c-37.075862 0-65.324138 30.013793-65.324138 65.324138S247.172414 564.965517 282.482759 564.965517c37.075862 0 65.324138-30.013793 65.324138-65.324138s-28.248276-65.324138-65.324138-65.324138zM393.710345 912.772414c-54.731034 0-97.103448-44.137931-97.103448-97.103448 0-54.731034 44.137931-97.103448 97.103448-97.103449 54.731034 0 97.103448 44.137931 97.103448 97.103449 1.765517 52.965517-42.372414 97.103448-97.103448 97.103448z m0-164.193104c-37.075862 0-65.324138 30.013793-65.324138 65.324138 0 37.075862 30.013793 65.324138 65.324138 65.324138 37.075862 0 65.324138-30.013793 65.324138-65.324138 1.765517-35.310345-28.248276-65.324138-65.324138-65.324138zM780.358621 939.255172c-54.731034 0-97.103448-44.137931-97.103449-97.103448 0-54.731034 44.137931-97.103448 97.103449-97.103448s97.103448 44.137931 97.103448 97.103448-44.137931 97.103448-97.103448 97.103448z m0-164.193103c-37.075862 0-65.324138 30.013793-65.324138 65.324138 0 37.075862 30.013793 65.324138 65.324138 65.324138s65.324138-30.013793 65.324138-65.324138-30.013793-65.324138-65.324138-65.324138zM854.510345 478.455172c-54.731034 0-97.103448-44.137931-97.103448-97.103448s44.137931-97.103448 97.103448-97.103448c54.731034 0 97.103448 44.137931 97.103448 97.103448s-44.137931 97.103448-97.103448 97.103448z m0-164.193103c-37.075862 0-65.324138 30.013793-65.324138 65.324138s30.013793 65.324138 65.324138 65.324138c37.075862 0 65.324138-30.013793 65.324138-65.324138s-30.013793-65.324138-65.324138-65.324138z"  /><path  d="M674.674759 456.756966l97.085793-57.803035 16.242758 27.312552-97.068138 57.803034zM507.727448 250.579862l31.426207-4.802207 26.888828 176.286897-31.426207 4.802207zM362.284138 523.122759l6.302896-31.16138 100.369656 20.303449-6.285242 31.143724zM431.545379 744.907034l68.184276-98.816 26.147311 18.043587-68.166621 98.816zM636.769103 663.728552l26.641656-17.33738 80.93131 124.274759-26.641655 17.337379z"  /></svg>