<?xml version="1.0" standalone="no"?><!DOCTYPE svg PUBLIC "-//W3C//DTD SVG 1.1//EN" "http://www.w3.org/Graphics/SVG/1.1/DTD/svg11.dtd"><svg class="icon" width="48px" height="43.54px" viewBox="0 0 1129 1024" version="1.1" xmlns="http://www.w3.org/2000/svg"><path  d="M801.544828 552.606897c-10.593103 0-17.655172-7.062069-17.655173-17.655173v-176.551724l-176.551724-174.786207H351.337931v344.275862c0 10.593103-7.062069 17.655172-17.655172 17.655173s-17.655172-7.062069-17.655173-17.655173V165.958621c0-10.593103 7.062069-17.655172 17.655173-17.655173h280.717241c5.296552 0 8.827586 1.765517 12.358621 5.296552l187.144827 185.37931c3.531034 3.531034 5.296552 7.062069 5.296552 12.358621v183.613793c0 8.827586-8.827586 17.655172-17.655172 17.655173z"  /><path  d="M801.544828 368.993103H614.4c-10.593103 0-17.655172-7.062069-17.655172-17.655172V165.958621c0-10.593103 7.062069-17.655172 17.655172-17.655173s17.655172 7.062069 17.655172 17.655173v167.724138h169.489656c10.593103 0 17.655172 7.062069 17.655172 17.655172s-8.827586 17.655172-17.655172 17.655172zM549.075862 294.841379h-139.475862c-10.593103 0-17.655172-7.062069-17.655172-17.655172s7.062069-17.655172 17.655172-17.655173h139.475862c10.593103 0 17.655172 7.062069 17.655172 17.655173s-8.827586 17.655172-17.655172 17.655172zM549.075862 384.882759h-139.475862c-10.593103 0-17.655172-7.062069-17.655172-17.655173s7.062069-17.655172 17.655172-17.655172h139.475862c10.593103 0 17.655172 7.062069 17.655172 17.655172s-8.827586 17.655172-17.655172 17.655173zM718.565517 471.393103H409.6c-10.593103 0-17.655172-7.062069-17.655172-17.655172s7.062069-17.655172 17.655172-17.655172h308.965517c10.593103 0 17.655172 7.062069 17.655173 17.655172s-8.827586 17.655172-17.655173 17.655172zM718.565517 542.013793H409.6c-10.593103 0-17.655172-7.062069-17.655172-17.655172s7.062069-17.655172 17.655172-17.655173h308.965517c10.593103 0 17.655172 7.062069 17.655173 17.655173s-8.827586 17.655172-17.655173 17.655172z"  /><path  d="M888.055172 840.386207H241.875862c-10.593103 0-17.655172-7.062069-17.655172-17.655173V466.096552c0-7.062069 3.531034-12.358621 10.593103-15.889655 5.296552-3.531034 14.124138-1.765517 19.42069 1.765517l317.793103 256 305.434483-256c5.296552-5.296552 12.358621-5.296552 19.42069-1.765517 7.062069 3.531034 10.593103 8.827586 10.593103 15.889655v358.4c-1.765517 8.827586-10.593103 15.889655-19.42069 15.889655z m-628.524138-35.310345h609.103449V503.172414L582.62069 743.282759c-7.062069 5.296552-15.889655 5.296552-22.951724 0l-300.137932-241.875862v303.668965z"  /><path  d="M888.055172 483.751724c-3.531034 0-8.827586-1.765517-12.35862-5.296552l-84.744828-75.917241c-7.062069-7.062069-7.062069-17.655172-1.765517-24.717241s17.655172-7.062069 24.717241-1.765518l84.744828 75.917242c7.062069 7.062069 7.062069 17.655172 1.765517 24.717241-3.531034 3.531034-8.827586 7.062069-12.358621 7.062069zM241.875862 483.751724c-5.296552 0-10.593103-1.765517-14.124138-5.296552-7.062069-7.062069-5.296552-17.655172 1.765517-24.717241l88.275862-75.917241c7.062069-7.062069 17.655172-5.296552 24.717242 1.765517 7.062069 7.062069 5.296552 17.655172-1.765517 24.717241l-88.275862 75.917242c-1.765517 1.765517-5.296552 3.531034-10.593104 3.531034z"  /></svg>