<?xml version="1.0" standalone="no"?><!DOCTYPE svg PUBLIC "-//W3C//DTD SVG 1.1//EN" "http://www.w3.org/Graphics/SVG/1.1/DTD/svg11.dtd"><svg class="icon" width="48px" height="43.81px" viewBox="0 0 1122 1024" version="1.1" xmlns="http://www.w3.org/2000/svg"><path  d="M536.717241 870.4C335.448276 870.4 173.02069 706.206897 173.02069 506.703448S335.448276 143.006897 536.717241 143.006897 900.413793 305.434483 900.413793 506.703448s-164.193103 363.696552-363.696552 363.696552z m0-700.910345c-185.37931 0-337.213793 151.834483-337.213793 337.213793s151.834483 337.213793 337.213793 337.213793 337.213793-151.834483 337.213793-337.213793S722.096552 169.489655 536.717241 169.489655z"  /><path  d="M298.372414 647.944828c-3.531034 0-7.062069-1.765517-8.827586-3.531035-5.296552-5.296552-5.296552-14.124138 0-19.42069l155.365517-155.365517 111.227586 107.696552 197.737931-197.737931c5.296552-5.296552 14.124138-5.296552 19.42069 0 5.296552 5.296552 5.296552 14.124138 0 19.42069L554.372414 616.165517l-111.227586-107.696551-135.944828 135.944827c-1.765517 1.765517-5.296552 3.531034-8.827586 3.531035z"  /><path  d="M762.703448 557.903448c-1.765517 0-1.765517 0 0 0-8.827586 0-14.124138-7.062069-14.124138-14.124138l12.358621-151.834482-155.365517 5.296551c-7.062069 0-12.358621-5.296552-14.124138-12.35862 0-7.062069 5.296552-14.124138 12.358621-14.124138l185.37931-7.062069-14.124138 181.848276c0 7.062069-5.296552 12.358621-12.358621 12.35862z"  /></svg>