<?xml version="1.0" standalone="no"?><!DOCTYPE svg PUBLIC "-//W3C//DTD SVG 1.1//EN" "http://www.w3.org/Graphics/SVG/1.1/DTD/svg11.dtd"><svg class="icon" width="48px" height="43.81px" viewBox="0 0 1122 1024" version="1.1" xmlns="http://www.w3.org/2000/svg"><path  d="M926.896552 783.889655H195.972414c-7.062069 0-14.124138-5.296552-14.124138-14.124138V256c0-7.062069 5.296552-14.124138 14.124138-14.124138h730.924138c7.062069 0 14.124138 5.296552 14.124138 14.124138v513.765517c0 7.062069-7.062069 14.124138-14.124138 14.124138z m-716.8-26.482758h704.441379V270.124138H210.096552v487.282759z"  /><path  d="M399.006897 418.427586h-107.696552c-7.062069 0-14.124138-5.296552-14.124138-14.124138s5.296552-14.124138 14.124138-14.124138h107.696552c7.062069 0 14.124138 5.296552 14.124137 14.124138s-7.062069 14.124138-14.124137 14.124138zM399.006897 490.813793h-107.696552c-7.062069 0-14.124138-5.296552-14.124138-14.124138s5.296552-14.124138 14.124138-14.124138h107.696552c7.062069 0 14.124138 5.296552 14.124137 14.124138s-7.062069 14.124138-14.124137 14.124138zM399.006897 572.027586h-107.696552c-7.062069 0-14.124138-5.296552-14.124138-14.124138s5.296552-14.124138 14.124138-14.124138h107.696552c7.062069 0 14.124138 5.296552 14.124137 14.124138s-7.062069 14.124138-14.124137 14.124138zM478.455172 651.475862H291.310345c-7.062069 0-14.124138-5.296552-14.124138-14.124138s5.296552-14.124138 14.124138-14.124138h187.144827c7.062069 0 14.124138 5.296552 14.124138 14.124138s-7.062069 14.124138-14.124138 14.124138zM669.131034 693.848276c-100.634483 0-181.848276-81.213793-181.848275-181.848276s81.213793-181.848276 181.848275-181.848276c100.634483 0 181.848276 81.213793 181.848276 181.848276s-81.213793 181.848276-181.848276 181.848276z m0-335.448276c-84.744828 0-155.365517 68.855172-155.365517 155.365517s68.855172 155.365517 155.365517 155.365517c84.744828 0 155.365517-68.855172 155.365518-155.365517s-68.855172-155.365517-155.365518-155.365517z"  /><path  d="M665.6 594.97931l-72.386207-79.448276c-5.296552-5.296552-5.296552-14.124138 0-19.420689 5.296552-5.296552 14.124138-5.296552 19.42069 0l51.2 56.496552 88.275862-109.462069c5.296552-5.296552 12.358621-7.062069 19.420689-1.765518 5.296552 5.296552 7.062069 12.358621 1.765518 19.42069l-107.696552 134.17931z"  /></svg>