<?xml version="1.0" standalone="no"?><!DOCTYPE svg PUBLIC "-//W3C//DTD SVG 1.1//EN" "http://www.w3.org/Graphics/SVG/1.1/DTD/svg11.dtd"><svg class="icon" width="48px" height="43.81px" viewBox="0 0 1122 1024" version="1.1" xmlns="http://www.w3.org/2000/svg"><path  d="M903.944828 653.241379c-8.827586 0-15.889655-7.062069-15.889656-15.889655V188.910345H254.234483v450.206896c0 8.827586-7.062069 15.889655-15.889655 15.889656s-15.889655-7.062069-15.889656-15.889656V173.02069c0-8.827586 7.062069-15.889655 15.889656-15.889656h665.6c8.827586 0 15.889655 7.062069 15.889655 15.889656v466.096551c-1.765517 7.062069-7.062069 14.124138-15.889655 14.124138z"  /><path  d="M956.910345 746.813793H194.206897c-8.827586 0-15.889655-7.062069-15.889656-15.889655v-93.572414c0-8.827586 7.062069-15.889655 15.889656-15.889655h764.468965c8.827586 0 15.889655 7.062069 15.889655 15.889655v93.572414c-1.765517 8.827586-8.827586 15.889655-17.655172 15.889655z m-748.579311-30.013793h732.689656V653.241379H208.331034v63.558621zM575.558621 188.910345c-8.827586 0-15.889655-7.062069-15.889655-15.889655V123.586207c0-8.827586 7.062069-15.889655 15.889655-15.889655s15.889655 7.062069 15.889655 15.889655v49.434483c0 8.827586-7.062069 15.889655-15.889655 15.889655z"  /><path  d="M349.572414 893.351724c-3.531034 0-7.062069-1.765517-8.827586-3.531034-7.062069-5.296552-7.062069-14.124138-1.765518-21.186207l114.758621-146.537931c5.296552-7.062069 14.124138-7.062069 21.186207-1.765518 7.062069 5.296552 7.062069 14.124138 1.765517 21.186207l-114.758621 146.537931c-3.531034 3.531034-8.827586 5.296552-12.35862 5.296552zM808.606897 893.351724c-5.296552 0-8.827586-1.765517-12.358621-5.296552L679.724138 741.517241c-5.296552-7.062069-3.531034-15.889655 1.765517-21.186207 7.062069-5.296552 15.889655-3.531034 21.186207 1.765518l118.289655 146.537931c5.296552 7.062069 3.531034 15.889655-1.765517 21.186207-3.531034 1.765517-7.062069 3.531034-10.593103 3.531034zM379.586207 504.937931c-3.531034 0-7.062069-1.765517-10.593104-3.531034-7.062069-5.296552-7.062069-15.889655-1.765517-21.186207l79.448276-97.103449c5.296552-7.062069 15.889655-7.062069 21.186207-1.765517s7.062069 15.889655 1.765517 21.186207l-79.448276 97.103448c-1.765517 3.531034-7.062069 5.296552-10.593103 5.296552zM626.758621 460.8c-1.765517 0-5.296552 0-7.062069-1.765517L512 395.475862c-7.062069-3.531034-10.593103-14.124138-5.296552-21.186207 3.531034-7.062069 14.124138-10.593103 21.186207-5.296552l107.696552 63.558621c7.062069 3.531034 10.593103 14.124138 5.296552 21.186207-3.531034 5.296552-8.827586 7.062069-14.124138 7.062069zM690.317241 450.206897c-3.531034 0-7.062069-1.765517-10.593103-5.296552-5.296552-5.296552-5.296552-15.889655 0-21.186207l88.275862-88.275862c5.296552-5.296552 15.889655-5.296552 21.186207 0 5.296552 5.296552 5.296552 15.889655 0 21.186207l-88.275862 88.275862c-1.765517 3.531034-5.296552 5.296552-10.593104 5.296552z"  /><path  d="M481.986207 409.6c-26.482759 0-49.434483-22.951724-49.434483-49.434483s22.951724-49.434483 49.434483-49.434483c26.482759 0 49.434483 21.186207 49.434483 49.434483v3.531035c0 5.296552-1.765517 17.655172-7.062069 26.482758-5.296552 8.827586-17.655172 19.42069-42.372414 19.42069z m0-67.089655c-10.593103 0-17.655172 8.827586-17.655173 17.655172s8.827586 17.655172 17.655173 17.655173c7.062069 0 12.358621-1.765517 14.124138-5.296552 3.531034-3.531034 3.531034-10.593103 3.531034-12.358621v-1.765517c1.765517-8.827586-7.062069-15.889655-17.655172-15.889655z m49.434483 17.655172zM349.572414 561.434483c-26.482759 0-49.434483-22.951724-49.434483-49.434483s22.951724-49.434483 49.434483-49.434483 49.434483 22.951724 49.434483 49.434483-22.951724 49.434483-49.434483 49.434483z m0-68.855173c-10.593103 0-17.655172 8.827586-17.655173 17.655173s8.827586 17.655172 17.655173 17.655172 17.655172-8.827586 17.655172-17.655172-7.062069-17.655172-17.655172-17.655173zM656.772414 512c-26.482759 0-49.434483-22.951724-49.434483-49.434483s22.951724-49.434483 49.434483-49.434483c22.951724 0 35.310345 10.593103 42.372414 19.42069 7.062069 10.593103 7.062069 21.186207 7.062069 26.482759v1.765517c0 28.248276-21.186207 51.2-49.434483 51.2z m0-67.089655c-10.593103 0-17.655172 8.827586-17.655173 17.655172s8.827586 17.655172 17.655173 17.655173 17.655172-8.827586 17.655172-17.655173v-1.765517s0-8.827586-3.531034-12.358621c-1.765517-3.531034-7.062069-3.531034-14.124138-3.531034zM803.310345 370.758621c-26.482759 0-49.434483-22.951724-49.434483-49.434483s22.951724-49.434483 49.434483-49.434483 49.434483 22.951724 49.434483 49.434483S829.793103 370.758621 803.310345 370.758621z m0-68.855173c-10.593103 0-17.655172 8.827586-17.655173 17.655173s8.827586 17.655172 17.655173 17.655172 17.655172-8.827586 17.655172-17.655172-8.827586-17.655172-17.655172-17.655173z"  /></svg>