<?xml version="1.0" standalone="no"?><!DOCTYPE svg PUBLIC "-//W3C//DTD SVG 1.1//EN" "http://www.w3.org/Graphics/SVG/1.1/DTD/svg11.dtd"><svg class="icon" width="48px" height="43.81px" viewBox="0 0 1122 1024" version="1.1" xmlns="http://www.w3.org/2000/svg"><path  d="M935.724138 617.931034h-65.324138l-72.386207-79.448275h-77.682759c-7.062069 0-14.124138-7.062069-14.124137-14.124138s7.062069-14.124138 14.124137-14.124138h90.04138l72.386207 79.448276h52.965517c7.062069 0 14.124138 7.062069 14.124138 14.124138s-7.062069 14.124138-14.124138 14.124137zM762.703448 662.068966h-84.744827c-7.062069 0-14.124138-7.062069-14.124138-14.124138s7.062069-14.124138 14.124138-14.124138h84.744827c7.062069 0 14.124138 7.062069 14.124138 14.124138s-7.062069 14.124138-14.124138 14.124138zM757.406897 817.434483h-81.213794c-7.062069 0-14.124138-7.062069-14.124137-14.124138s7.062069-14.124138 14.124137-14.124138h68.855173l95.337931-90.041379h135.944827c7.062069 0 14.124138 7.062069 14.124138 14.124138s-7.062069 14.124138-14.124138 14.124137h-123.586206l-95.337931 90.04138z"  /><path  d="M700.910345 526.124138m-22.951724 0a22.951724 22.951724 0 1 0 45.903448 0 22.951724 22.951724 0 1 0-45.903448 0Z"  /><path  d="M667.365517 647.944828m-22.951724 0a22.951724 22.951724 0 1 0 45.903448 0 22.951724 22.951724 0 1 0-45.903448 0Z"  /><path  d="M775.062069 647.944828m-22.951724 0a22.951724 22.951724 0 1 0 45.903448 0 22.951724 22.951724 0 1 0-45.903448 0Z"  /><path  d="M944.551724 603.806897m-22.951724 0a22.951724 22.951724 0 1 0 45.903448 0 22.951724 22.951724 0 1 0-45.903448 0Z"  /><path  d="M976.331034 711.503448m-22.951724 0a22.951724 22.951724 0 1 0 45.903449 0 22.951724 22.951724 0 1 0-45.903449 0Z"  /><path  d="M676.193103 803.310345m-22.951724 0a22.951724 22.951724 0 1 0 45.903449 0 22.951724 22.951724 0 1 0-45.903449 0Z"  /><path  d="M524.358621 815.668966h-264.827587c-21.186207 0-47.668966-14.124138-79.448275-42.372414-52.965517-45.903448-79.448276-123.586207-63.558621-194.206897 10.593103-49.434483 45.903448-90.041379 98.868965-114.758621-15.889655-38.841379-21.186207-107.696552 49.434483-151.834482 0 0 37.075862-28.248276 88.275862-14.124138 8.827586-42.372414 45.903448-146.537931 194.206897-146.537931 1.765517 0 180.082759-8.827586 233.048276 171.255172 38.841379-3.531034 150.068966-1.765517 188.910345 116.524138 1.765517 7.062069-1.765517 15.889655-8.827587 17.655173-7.062069 1.765517-15.889655-1.765517-17.655172-8.827587-38.841379-120.055172-164.193103-97.103448-169.489655-95.337931l-14.124138 3.531035-3.531035-12.358621c-44.137931-169.489655-201.268966-162.427586-208.331034-162.427586-158.896552 0-169.489655 132.413793-169.489655 137.710345l-1.765518 19.420689-19.420689-7.062069c-44.137931-17.655172-75.917241 5.296552-77.682759 7.062069-77.682759 49.434483-35.310345 125.351724-33.544827 127.117242l8.827586 14.124138-15.889655 5.296551c-51.2 21.186207-86.510345 56.496552-95.337931 100.634483-12.358621 60.027586 8.827586 127.117241 54.731034 165.958621 26.482759 22.951724 49.434483 35.310345 61.793103 35.310345h264.827587c7.062069 0 14.124138 7.062069 14.124138 14.124138s-5.296552 14.124138-14.124138 14.124138z"  /></svg>