<?xml version="1.0" standalone="no"?><!DOCTYPE svg PUBLIC "-//W3C//DTD SVG 1.1//EN" "http://www.w3.org/Graphics/SVG/1.1/DTD/svg11.dtd"><svg class="icon" width="48px" height="43.81px" viewBox="0 0 1122 1024" version="1.1" xmlns="http://www.w3.org/2000/svg"><path  d="M561.434483 665.6c-240.110345 0-427.255172-72.386207-427.255173-165.958621S323.089655 335.448276 561.434483 335.448276 988.689655 407.834483 988.689655 501.406897s-187.144828 164.193103-427.255172 164.193103z m0-301.903448c-238.344828 0-399.006897 70.62069-399.006897 135.944827S323.089655 635.586207 561.434483 635.586207s399.006897-70.62069 399.006896-135.944828-160.662069-135.944828-399.006896-135.944827z"  /><path  d="M386.648276 880.993103c-14.124138 0-26.482759-3.531034-38.841379-10.593103-40.606897-22.951724-54.731034-84.744828-38.84138-173.02069 14.124138-82.97931 52.965517-181.848276 109.462069-278.951724C538.482759 210.096552 695.613793 84.744828 775.062069 130.648276c81.213793 45.903448 49.434483 245.406897-70.62069 451.972414-56.496552 97.103448-121.82069 180.082759-187.144827 234.813793-49.434483 42.372414-93.572414 63.558621-130.648276 63.55862zM736.22069 150.068966c-67.089655 0-188.910345 102.4-293.075862 282.482758-54.731034 93.572414-91.806897 190.675862-105.931035 270.124138-12.358621 74.151724-3.531034 127.117241 24.717241 143.006897 28.248276 15.889655 79.448276-1.765517 135.944828-49.434483 61.793103-52.965517 127.117241-132.413793 181.848276-225.986207 118.289655-206.565517 137.710345-379.586207 81.213793-413.131035-7.062069-5.296552-15.889655-7.062069-24.717241-7.062068z"  /><path  d="M737.986207 880.993103c-84.744828 0-215.393103-118.289655-319.558621-296.606896-56.496552-97.103448-95.337931-195.972414-109.462069-278.951724-15.889655-88.275862-1.765517-150.068966 38.84138-173.02069C429.02069 84.744828 586.151724 211.862069 706.206897 418.427586c120.055172 206.565517 150.068966 406.068966 70.620689 451.972414-12.358621 7.062069-24.717241 10.593103-38.841379 10.593103zM388.413793 150.068966c-8.827586 0-17.655172 1.765517-24.717241 5.296551-28.248276 15.889655-38.841379 68.855172-24.717242 143.006897 14.124138 79.448276 51.2 176.551724 105.931035 270.124138 118.289655 206.565517 259.531034 308.965517 317.793103 277.186207 56.496552-33.544828 38.841379-206.565517-81.213793-413.131035-104.165517-180.082759-225.986207-282.482759-293.075862-282.482758z"  /><path  d="M561.434483 570.262069c-38.841379 0-68.855172-31.77931-68.855173-68.855172s31.77931-68.855172 68.855173-68.855173 68.855172 31.77931 68.855172 68.855173-30.013793 68.855172-68.855172 68.855172z m0-109.462069c-22.951724 0-40.606897 17.655172-40.606897 40.606897s17.655172 40.606897 40.606897 40.606896c22.951724 0 40.606897-17.655172 40.606896-40.606896s-17.655172-40.606897-40.606896-40.606897zM441.37931 190.675862c-22.951724 0-40.606897-17.655172-40.606896-40.606896s17.655172-40.606897 40.606896-40.606897c22.951724 0 40.606897 17.655172 40.606897 40.606897s-19.42069 40.606897-40.606897 40.606896z m0-52.965517c-7.062069 0-12.358621 5.296552-12.35862 12.358621s5.296552 12.358621 12.35862 12.35862 12.358621-5.296552 12.358621-12.35862-7.062069-12.358621-12.358621-12.358621zM459.034483 877.462069c-22.951724 0-40.606897-17.655172-40.606897-40.606897s17.655172-40.606897 40.606897-40.606896 40.606897 17.655172 40.606896 40.606896-17.655172 40.606897-40.606896 40.606897z m0-52.965517c-7.062069 0-12.358621 5.296552-12.358621 12.35862s5.296552 12.358621 12.358621 12.358621 12.358621-5.296552 12.35862-12.358621-5.296552-12.358621-12.35862-12.35862zM916.303448 469.627586c-22.951724 0-40.606897-17.655172-40.606896-40.606896s17.655172-40.606897 40.606896-40.606897 40.606897 17.655172 40.606897 40.606897-17.655172 40.606897-40.606897 40.606896z m0-52.965517c-7.062069 0-12.358621 5.296552-12.35862 12.358621s5.296552 12.358621 12.35862 12.35862 12.358621-5.296552 12.358621-12.35862-5.296552-12.358621-12.358621-12.358621z"  /></svg>