<?xml version="1.0" standalone="no"?><!DOCTYPE svg PUBLIC "-//W3C//DTD SVG 1.1//EN" "http://www.w3.org/Graphics/SVG/1.1/DTD/svg11.dtd"><svg class="icon" width="48px" height="43.81px" viewBox="0 0 1122 1024" version="1.1" xmlns="http://www.w3.org/2000/svg"><path  d="M679.724138 813.903448c-7.062069 0-14.124138-5.296552-14.124138-14.124138V229.517241H268.358621v570.262069c0 7.062069-5.296552 14.124138-14.124138 14.124138s-14.124138-5.296552-14.124138-14.124138V203.034483h450.206896v596.744827c3.531034 8.827586-3.531034 14.124138-10.593103 14.124138zM875.696552 826.262069c-7.062069 0-14.124138-5.296552-14.124138-14.124138V446.675862h-114.758621c-7.062069 0-14.124138-5.296552-14.124138-14.124138s5.296552-14.124138 14.124138-14.124138h141.241379V812.137931c1.765517 8.827586-5.296552 14.124138-12.35862 14.124138z"  /><path  d="M932.193103 826.262069H192.441379c-7.062069 0-14.124138-5.296552-14.124138-14.124138s5.296552-14.124138 14.124138-14.124138h739.751724c7.062069 0 14.124138 5.296552 14.124138 14.124138s-7.062069 14.124138-14.124138 14.124138zM550.841379 379.586207h-171.255172c-7.062069 0-14.124138-5.296552-14.124138-14.124138s5.296552-14.124138 14.124138-14.124138h171.255172c7.062069 0 14.124138 5.296552 14.124138 14.124138s-7.062069 14.124138-14.124138 14.124138zM550.841379 481.986207h-171.255172c-7.062069 0-14.124138-5.296552-14.124138-14.124138s5.296552-14.124138 14.124138-14.124138h171.255172c7.062069 0 14.124138 5.296552 14.124138 14.124138s-7.062069 14.124138-14.124138 14.124138zM550.841379 579.089655h-171.255172c-7.062069 0-14.124138-5.296552-14.124138-14.124138s5.296552-14.124138 14.124138-14.124138h171.255172c7.062069 0 14.124138 5.296552 14.124138 14.124138s-7.062069 14.124138-14.124138 14.124138zM550.841379 686.786207h-171.255172c-7.062069 0-14.124138-5.296552-14.124138-14.124138s5.296552-14.124138 14.124138-14.124138h171.255172c7.062069 0 14.124138 5.296552 14.124138 14.124138s-7.062069 14.124138-14.124138 14.124138z"  /></svg>