<?xml version="1.0" standalone="no"?><!DOCTYPE svg PUBLIC "-//W3C//DTD SVG 1.1//EN" "http://www.w3.org/Graphics/SVG/1.1/DTD/svg11.dtd"><svg class="icon" width="48px" height="43.81px" viewBox="0 0 1122 1024" version="1.1" xmlns="http://www.w3.org/2000/svg"><path  d="M504.937931 773.296552c-125.351724 0-227.751724-102.4-227.751724-227.751724S379.586207 317.793103 504.937931 317.793103c42.372414 0 82.97931 12.358621 118.289655 33.544828 7.062069 5.296552 10.593103 15.889655 5.296552 22.951724s-14.124138 10.593103-22.951724 5.296552c-30.013793-19.42069-65.324138-28.248276-100.634483-28.248276-107.696552 0-194.206897 86.510345-194.206897 194.206897s86.510345 194.206897 194.206897 194.206896 194.206897-86.510345 194.206897-194.206896c0-33.544828-8.827586-67.089655-24.717242-97.103449-5.296552-8.827586-1.765517-17.655172 5.296552-22.951724 7.062069-5.296552 17.655172-1.765517 22.951724 5.296552 19.42069 33.544828 30.013793 72.386207 30.013793 112.993103 0 127.117241-102.4 229.517241-227.751724 229.517242z"  /><path  d="M497.875862 935.724138c-211.862069 0-384.882759-173.02069-384.882759-384.882759S286.013793 165.958621 497.875862 165.958621c75.917241 0 148.303448 21.186207 211.862069 63.55862 7.062069 5.296552 10.593103 15.889655 5.296552 22.951725s-15.889655 10.593103-22.951724 5.296551c-58.262069-37.075862-123.586207-58.262069-194.206897-58.262069-194.206897 0-353.103448 158.896552-353.103448 353.103449s158.896552 353.103448 353.103448 353.103448 353.103448-158.896552 353.103448-353.103448c0-61.793103-15.889655-123.586207-47.668965-176.551725-5.296552-7.062069-1.765517-17.655172 5.296552-22.951724 8.827586-5.296552 17.655172-1.765517 22.951724 5.296552C865.103448 416.662069 882.758621 483.751724 882.758621 550.841379c1.765517 211.862069-171.255172 384.882759-384.882759 384.882759z"  /><path  d="M497.875862 600.275862c-28.248276 0-49.434483-22.951724-49.434483-49.434483 0-28.248276 22.951724-49.434483 49.434483-49.434482s49.434483 22.951724 49.434483 49.434482c1.765517 26.482759-21.186207 49.434483-49.434483 49.434483z m0-67.089655c-8.827586 0-15.889655 7.062069-15.889655 15.889655s7.062069 15.889655 15.889655 15.889655 15.889655-7.062069 15.889655-15.889655c1.765517-8.827586-5.296552-15.889655-15.889655-15.889655z"  /><path  d="M497.875862 566.731034c-5.296552 0-8.827586-1.765517-12.358621-5.296551-5.296552-7.062069-5.296552-17.655172 1.765518-22.951724l270.124138-245.406897v-95.337931c0-5.296552 1.765517-10.593103 5.296551-12.358621l114.758621-91.806896c3.531034-5.296552 10.593103-7.062069 15.889655-5.296552 5.296552 1.765517 8.827586 7.062069 10.593104 12.358621l15.889655 75.917241v1.765517c1.765517 0 5.296552 1.765517 7.062069 1.765518l54.731034 33.544827c5.296552 3.531034 7.062069 8.827586 7.062069 14.124138 0 5.296552-1.765517 10.593103-7.062069 14.124138l-114.75862 82.97931c-3.531034 1.765517-7.062069 3.531034-12.358621 3.531035l-75.917242-10.593104-268.35862 245.406897c-3.531034 1.765517-7.062069 3.531034-12.358621 3.531034z m312.496552-278.951724l45.903448 7.062069 90.041379-65.324138-33.544827-21.186207c-3.531034-1.765517-5.296552-3.531034-5.296552-7.062068l-97.103448 86.510344z m-19.42069-82.97931v56.496552l95.337931-86.510345-8.827586-40.606897-86.510345 70.62069z"  /></svg>