<?xml version="1.0" standalone="no"?><!DOCTYPE svg PUBLIC "-//W3C//DTD SVG 1.1//EN" "http://www.w3.org/Graphics/SVG/1.1/DTD/svg11.dtd"><svg class="icon" width="48px" height="43.54px" viewBox="0 0 1129 1024" version="1.1" xmlns="http://www.w3.org/2000/svg"><path  d="M755.641379 886.289655c-112.993103 0-204.8-91.806897-204.8-204.8S642.648276 476.689655 755.641379 476.689655s204.8 91.806897 204.8 204.8-93.572414 204.8-204.8 204.8z m0-372.524138c-91.806897 0-167.724138 75.917241-167.724138 167.724138s75.917241 167.724138 167.724138 167.724138 167.724138-75.917241 167.724138-167.724138-75.917241-167.724138-167.724138-167.724138z"  /><path  d="M829.793103 810.372414c-3.531034 0-7.062069-1.765517-10.593103-3.531035L755.641379 759.172414l-65.324138 47.668965c-7.062069 5.296552-15.889655 5.296552-21.186207 0-7.062069-5.296552-8.827586-12.358621-7.062068-21.186207l24.717241-75.917241-65.324138-45.903448c-7.062069-5.296552-8.827586-12.358621-7.062069-21.186207 1.765517-7.062069 8.827586-12.358621 17.655172-12.358621h79.448276l24.717242-75.917241c1.765517-7.062069 8.827586-12.358621 17.655172-12.358621s15.889655 5.296552 17.655172 12.358621l24.717242 75.917241h79.448276c7.062069 0 14.124138 5.296552 17.655172 12.358621 1.765517 7.062069 0 15.889655-7.062069 21.186207l-65.324138 45.903448 24.717242 75.917241c1.765517 7.062069 0 15.889655-7.062069 21.186207-1.765517 1.765517-5.296552 3.531034-8.827587 3.531035z m-74.151724-91.806897c3.531034 0 7.062069 1.765517 10.593104 3.531035l28.248276 21.186207-10.593104-33.544828c-1.765517-7.062069 0-15.889655 7.062069-21.186207l30.013793-21.186207h-35.310345c-8.827586 0-15.889655-5.296552-17.655172-12.35862l-10.593103-33.544828-10.593104 33.544828c-1.765517 7.062069-8.827586 12.358621-17.655172 12.35862h-35.310345L723.862069 688.551724c7.062069 5.296552 8.827586 12.358621 7.062069 21.186207l-10.593104 33.544828 28.248276-21.186207c-1.765517-3.531034 1.765517-3.531034 7.062069-3.531035z"  /><path  d="M536.717241 865.103448H229.517241c-10.593103 0-17.655172-8.827586-17.655172-17.655172V164.193103c0-10.593103 8.827586-17.655172 17.655172-17.655172h619.696552c10.593103 0 17.655172 8.827586 17.655173 17.655172v270.124138c0 10.593103-8.827586 17.655172-17.655173 17.655173s-17.655172-8.827586-17.655172-17.655173V183.613793H247.172414V829.793103h289.544827c10.593103 0 17.655172 8.827586 17.655173 17.655173s-7.062069 17.655172-17.655173 17.655172z"  /><path  d="M715.034483 358.4h-353.103449c-10.593103 0-17.655172-8.827586-17.655172-17.655172s8.827586-17.655172 17.655172-17.655173h353.103449c10.593103 0 17.655172 8.827586 17.655172 17.655173s-7.062069 17.655172-17.655172 17.655172zM538.482759 489.048276h-176.551725c-10.593103 0-17.655172-8.827586-17.655172-17.655173s8.827586-17.655172 17.655172-17.655172h176.551725c10.593103 0 17.655172 8.827586 17.655172 17.655172s-7.062069 17.655172-17.655172 17.655173zM473.158621 617.931034h-111.227587c-10.593103 0-17.655172-8.827586-17.655172-17.655172s8.827586-17.655172 17.655172-17.655172h111.227587c10.593103 0 17.655172 8.827586 17.655172 17.655172s-7.062069 17.655172-17.655172 17.655172z"  /></svg>