<?xml version="1.0" standalone="no"?><!DOCTYPE svg PUBLIC "-//W3C//DTD SVG 1.1//EN" "http://www.w3.org/Graphics/SVG/1.1/DTD/svg11.dtd"><svg class="icon" width="48px" height="43.81px" viewBox="0 0 1122 1024" version="1.1" xmlns="http://www.w3.org/2000/svg"><path  d="M900.413793 854.510345H261.296552c-8.827586 0-15.889655-7.062069-15.889655-15.889655V208.331034c0-8.827586 7.062069-15.889655 15.889655-15.889655H900.413793c8.827586 0 15.889655 7.062069 15.889655 15.889655v630.289656c0 8.827586-7.062069 15.889655-15.889655 15.889655z m-621.462069-33.544828h605.572414V224.22069H278.951724v596.744827z"  /><path  d="M330.151724 538.482759c-3.531034 0-8.827586-1.765517-12.358621-5.296552-7.062069-7.062069-7.062069-17.655172 0-22.951724l164.193104-160.662069c5.296552-5.296552 14.124138-7.062069 21.186207-1.765517l120.055172 86.510344 169.489655-164.193103c7.062069-7.062069 17.655172-7.062069 22.951725 0 7.062069 7.062069 7.062069 17.655172 0 22.951724L635.586207 466.096552c-5.296552 5.296552-14.124138 7.062069-21.186207 1.765517L494.344828 381.351724l-155.365518 150.068966c0 5.296552-5.296552 7.062069-8.827586 7.062069zM388.413793 792.717241c-8.827586 0-15.889655-7.062069-15.889655-15.889655v-164.193103c0-8.827586 7.062069-15.889655 15.889655-15.889655s15.889655 7.062069 15.889655 15.889655V776.827586c0 8.827586-7.062069 15.889655-15.889655 15.889655z"  /><path  d="M517.296552 792.717241c-8.827586 0-15.889655-7.062069-15.889655-15.889655V485.517241c0-8.827586 7.062069-15.889655 15.889655-15.889655s15.889655 7.062069 15.889655 15.889655V776.827586c1.765517 8.827586-7.062069 15.889655-15.889655 15.889655zM644.413793 792.717241c-8.827586 0-15.889655-7.062069-15.889655-15.889655V568.496552c0-8.827586 7.062069-15.889655 15.889655-15.889655s15.889655 7.062069 15.889655 15.889655V776.827586c0 8.827586-7.062069 15.889655-15.889655 15.889655zM773.296552 792.717241c-8.827586 0-15.889655-7.062069-15.889655-15.889655V441.37931c0-8.827586 7.062069-15.889655 15.889655-15.889655s15.889655 7.062069 15.889655 15.889655v335.448276c1.765517 8.827586-7.062069 15.889655-15.889655 15.889655z"  /></svg>