<?xml version="1.0" standalone="no"?><!DOCTYPE svg PUBLIC "-//W3C//DTD SVG 1.1//EN" "http://www.w3.org/Graphics/SVG/1.1/DTD/svg11.dtd"><svg class="icon" width="48px" height="43.81px" viewBox="0 0 1122 1024" version="1.1" xmlns="http://www.w3.org/2000/svg"><path  d="M596.744828 858.041379H312.496552c-5.296552 0-10.593103-3.531034-14.124138-7.062069l-141.24138-245.406896c-3.531034-5.296552-3.531034-10.593103 0-15.889655l141.24138-245.406897c3.531034-5.296552 7.062069-7.062069 14.124138-7.062069h284.248276c5.296552 0 10.593103 3.531034 14.124138 7.062069l141.241379 245.406897c3.531034 5.296552 3.531034 10.593103 0 15.889655l-141.241379 245.406896c-3.531034 3.531034-7.062069 7.062069-14.124138 7.062069z m-275.42069-31.77931h266.593103l132.413793-231.282759-132.413793-231.282758H321.324138l-132.413793 231.282758 132.413793 231.282759zM850.97931 418.427586H723.862069c-7.062069 0-12.358621-3.531034-15.889655-8.827586L646.17931 300.137931c-3.531034-5.296552-3.531034-12.358621 0-17.655172l63.558621-109.462069c3.531034-5.296552 8.827586-8.827586 15.889655-8.827587h125.351724c7.062069 0 12.358621 3.531034 15.889656 8.827587l63.55862 109.462069c3.531034 5.296552 3.531034 12.358621 0 17.655172l-63.55862 109.462069c-3.531034 5.296552-10.593103 8.827586-15.889656 8.827586z m-116.524138-35.310345h105.931035l52.965517-91.806896-52.965517-91.806897h-105.931035l-52.965517 91.806897 52.965517 91.806896z"  /></svg>