<?xml version="1.0" standalone="no"?><!DOCTYPE svg PUBLIC "-//W3C//DTD SVG 1.1//EN" "http://www.w3.org/Graphics/SVG/1.1/DTD/svg11.dtd"><svg class="icon" width="48px" height="43.54px" viewBox="0 0 1129 1024" version="1.1" xmlns="http://www.w3.org/2000/svg"><path  d="M911.006897 858.041379H245.406897c-10.593103 0-17.655172-7.062069-17.655173-17.655172V181.848276c0-10.593103 7.062069-17.655172 17.655173-17.655173h665.6c10.593103 0 17.655172 7.062069 17.655172 17.655173v658.537931c0 10.593103-8.827586 17.655172-17.655172 17.655172z m-647.944828-35.310345h630.289655V199.503448H263.062069v623.227586z"  /><path  d="M245.406897 294.841379h665.6v35.310345H245.406897zM245.406897 467.862069h665.6v35.310345H245.406897zM245.406897 642.648276h665.6v35.310345H245.406897z"  /><path  d="M453.737931 294.841379h35.310345v547.310345h-35.310345zM672.662069 294.841379h35.310345v547.310345h-35.310345z"  /></svg>