<?xml version="1.0" standalone="no"?><!DOCTYPE svg PUBLIC "-//W3C//DTD SVG 1.1//EN" "http://www.w3.org/Graphics/SVG/1.1/DTD/svg11.dtd"><svg class="icon" width="48px" height="48.00px" viewBox="0 0 1024 1024" version="1.1" xmlns="http://www.w3.org/2000/svg"><path  d="M796.51584512 711.33294679V586.80157073c0-14.1876022-1.94132735-28.15242915-10.82051313-39.87677337-11.59704407-15.34603361-28.45158451-24.05972918-47.80120798-24.09155422h-31.31583799V313.22080888c0-6.8423833 0.45191555-13.90754187-0.23550527-20.73719516-1.94132735-19.30506842-10.89052822-36.49695428-27.36953322-47.3238324C670.48869225 239.57766955 660.1455547 236.96165137 650.02519243 236.93619134H381.30093146c-13.13101092 0-25.93740647 1.0629563-37.24802518 8.91101081-16.21167467 11.23423863-25.3072707 28.92259508-26.48479713 48.48226381-0.14003018 2.31686281-0.0827451 4.65282065-0.0827451 7.00150848V522.82051313h-30.9148425c-16.05891449 0-31.92051371 5.83034707-43.05291223 17.70745147a58.73629125 58.73629125 0 0 0-15.91251929 39.69855315v85.50751374c0 21.27185581-0.19731523 42.55644162 0 63.82829742 0.12730015 14.04120704 5.14929125 26.85396757 14.04757203 37.59810061 9.75119182 11.77526429 24.01517412 18.0575269 38.95384725 19.64241382a97.71559853 97.71559853 0 0 0 10.31131251 0.2482353h448.16655863c0.36917046 0 0.7383409 0 1.10114635-0.03819003 14.84319801-0.43918552 29.33632058-6.39683275 39.78129826-17.06458573A58.4435009 58.4435009 0 0 0 796.51584512 729.68326405c0.03182504-6.13586744 0-12.24627485 0-18.35031726z m-45.73258047-146.39517758a7.30702887 7.30702887 0 0 1-0.8974661-0.70015084c0.03182504-0.04455505 0.41372549 0.24187029 0.87200607 0.6683258zM664.28917472 282.8979121a10.76322805 10.76322805 0 0 1-0.78289594-1.02476625c0.45828055 0.49010559 0.83381602 0.93565613 0.78289595 1.02476626zM365.60482242 277.1312151c0.03819005 0.05092007-0.38826547 0.37553546-0.89746608 0.75107091z m-1.5657919 1.33028661c1.27300155-0.77653095 2.54600309-1.52760185 3.81900464-2.20865768a36.22962396 36.22962396 0 0 1 3.5580393-0.96111616c2.76877836-0.15276019 5.56301676-0.07001509 8.32543011-0.07001509h238.21677896c10.90325822 0 21.81288146-0.09547512 32.71613968 0 0.63650077 0 1.3111916 0.03182504 1.96678739 0.07001509a35.40853794 35.40853794 0 0 1 3.60259437 0.97384618c1.27300155 0.63650077 2.44416296 1.34938163 3.6407844 2.09408754 0.75107091 0.67469082 1.49577682 1.34938163 2.20229268 2.07499252 0.10184013 0.10820512 0.59194571 0.59194571 1.08841632 1.10751134 0.20368026 0.28642535 0.40736049 0.57921571 0.63650078 0.87837108a41.9644959 41.9644959 0 0 1 2.54600308 4.53825049 47.51478263 47.51478263 0 0 1 1.82039221 6.72144815c0.71924587 8.22995498 0.12730015 16.77179534 0.12730016 24.95719528v186.6538514c0 5.8430771-0.07001509 11.69251918-0.08274511 17.54196129H355.75179046V324.10497208c0-8.94920085-0.06365008-17.90476672 0-26.85396758 0-1.27300155 0.06365008-2.48235302 0.1591252-3.71716451a48.31040861 48.31040861 0 0 1 1.79493218-6.594148 41.52531037 41.52531037 0 0 1 2.34868785-4.18181006c0.08911011-0.14639518 0.2482353-0.37553546 0.43282052-0.63650077 0.50920062-0.59194571 1.20935147-1.41303172 1.48941181-1.70582207 0.6619608-0.68105582 1.35574665-1.33665162 2.06862751-1.97315239zM269.63960101 568.56582362a5.77306201 5.77306201 0 0 1-0.70015084 0.89746608c-0.04455505-0.05728507 0.28006034-0.43918552 0.70015084-0.89746608zM273.31221046 744.95928258a6.48594287 6.48594287 0 0 1 0.90383111 0.70015087c-0.07638009 0.07001509-0.45191555-0.25460031-0.90383111-0.70015087z m370.84444485 3.81900464h-358.73183515c-1.01203623 0-2.01770744-0.03819005-3.02337866-0.10184013a42.16817615 42.16817615 0 0 1-4.91378597-1.34938164 38.38736157 38.38736157 0 0 1-3.81900462-2.18319764c-0.23550529-0.15276019-0.47101057-0.31825039-0.70015086-0.47737557-0.70015085-0.63650077-1.45122176-1.41939672-1.52123685-1.49577683-0.63650077-0.63650077-1.20935147-1.34938163-1.82675722-2.00497744a38.0054611 38.0054611 0 0 1-2.32959283-4.04177989 41.67170556 41.67170556 0 0 1-1.35574664-4.95834101c-0.38826547-5.2765914-0.09547512-10.68048296-0.0954751-15.9125193V597.29110347c0-6.36500772-0.42645551-13.01644078 0.07001508-19.4450986a42.4609665 42.4609665 0 0 1 1.38120666-5.09200618 39.02386234 39.02386234 0 0 1 2.18319766-3.81900463c0.15276019-0.24187029 0.31825039-0.47101057 0.47737558-0.70015085 0.63650077-0.70015085 1.41939672-1.45122176 1.49577681-1.52760185 0.63650077-0.63650077 1.34938163-1.20298646 2.00497744-1.82039221a38.0054611 38.0054611 0 0 1 4.04177989-2.32959282 40.7360494 40.7360494 0 0 1 4.90105595-1.34938164c4.5318855-0.31825039 9.15924611-0.10184013 13.66567159-0.10184012h442.55262182c1.01840124 0 2.03043747 0.03819005 3.04247369 0.10184012a40.7360494 40.7360494 0 0 1 4.92015096 1.34938164 38.38736157 38.38736157 0 0 1 3.81900464 2.18319765c0.23550529 0.15276019 0.46464556 0.31825039 0.70015085 0.47737558 0.70015085 0.63650077 1.45122176 1.41939672 1.52123684 1.4894118 0.63650077 0.63650077 1.20298646 1.35574665 1.82039221 2.01134244a36.91704478 36.91704478 0 0 1 2.32959283 4.04177991 40.21411879 40.21411879 0 0 1 1.36211165 4.95834102c0.38826547 5.2765914 0.09547512 10.68048296 0.09547511 15.91251929v118.98745433c0 6.36500772 0.42009052 13.01644078-0.07638008 19.44509859a39.8131233 39.8131233 0 0 1-1.38120668 5.09200618 37.1716451 37.1716451 0 0 1-2.18319766 3.81900463c-0.15276019 0.23550529-0.31188538 0.47101057-0.47737557 0.70015085-0.63650077 0.70015085-1.41939672 1.45122176-1.48941181 1.52123685-0.63650077 0.63650077-1.34938163 1.20935147-2.01134243 1.8267572a38.55921678 38.55921678 0 0 1-4.0354149 2.32959283 41.70353059 41.70353059 0 0 1-4.939246 1.35574665c-0.84654603 0.05092007-1.69309206 0.08911011-2.54600309 0.09547513H644.1439253z m110.27375877-7.45978905a7.10971362 7.10971362 0 0 1 0.70015084-0.9038311c0.01273001 0.08911011-0.28642535 0.44555055-0.71288087 0.9101961z"  /><path  d="M477.50165815 377.01728126l51.81116285-0.21004525 82.47777005-0.34371042 18.78313778-0.08274509c10.00579214-0.03819005 19.59785878-8.77098065 19.13321321-19.13321322s-8.4081752-19.17776826-19.13321321-19.13321321l-51.81116284 0.21641026-82.47777005 0.34371042-18.78313779 0.07638009c-10.00579214 0.04455505-19.59785878 8.77098065-19.13321321 19.13321321S466.80844518 377.06183631 477.50165815 377.01728126zM630.57372883 419.89197327H477.50165815c-10.01215714 0-19.59785878 8.79644067-19.13321321 19.13321321s8.44000024 19.13321321 19.13321321 19.1332132h153.07207068c10.01215714 0 19.59785878-8.80280569 19.13321321-19.1332132s-8.4081752-19.13321321-19.13321321-19.13321321z"  /><path  d="M393.48355623 338.43260445m19.13321322 0l-1e-8 0q19.13321321 0 19.13321322 19.13321322l0 0q0 19.13321321-19.13321322 19.13321321l1e-8 0q-19.13321321 0-19.13321322-19.13321321l0 0q0-19.13321321 19.13321322-19.13321322Z"  /><path  d="M393.48355623 420.61758416m19.13321322 0l-1e-8 0q19.13321321 0 19.13321322 19.1332132l0 0q0 19.13321321-19.13321322 19.13321321l1e-8 0q-19.13321321 0-19.13321322-19.13321321l0 0q0-19.13321321 19.13321322-19.1332132Z"  /></svg>