<?xml version="1.0" standalone="no"?><!DOCTYPE svg PUBLIC "-//W3C//DTD SVG 1.1//EN" "http://www.w3.org/Graphics/SVG/1.1/DTD/svg11.dtd"><svg class="icon" width="48px" height="48.00px" viewBox="0 0 1024 1024" version="1.1" xmlns="http://www.w3.org/2000/svg"><path fill="#606266" d="M600.70274759 473.20570228h-2.82436608a8.28299671 8.28299671 0 0 0-8.28299672 8.2829967v2.8243661a8.28299671 8.28299671 0 0 0 8.28299672 8.28978606h2.82436608a8.28978606 8.28978606 0 0 0 8.28978607-8.28978606v-2.8243661a8.28978606 8.28978606 0 0 0-8.28978607-8.2829967z m0-38.80108707h-2.82436608a8.28978606 8.28978606 0 0 0-8.28299672 8.28978605v2.8243661a8.28978606 8.28978606 0 0 0 8.28299672 8.28978605h2.82436608a8.28978606 8.28978606 0 0 0 8.28978607-8.28978605v-2.8243661a8.28978606 8.28978606 0 0 0-8.28978607-8.28978605zM240.42633724 248.7161233v526.5677534A8.28978606 8.28978606 0 0 0 248.7161233 783.57366276h526.5677534A8.28978606 8.28978606 0 0 0 783.57366276 775.2838767V248.7161233A8.28978606 8.28978606 0 0 0 775.2838767 240.42633724H248.7161233A8.28978606 8.28978606 0 0 0 240.42633724 248.7161233zM742.00931367 747.59015244H280.48345249a8.4595196 8.4595196 0 0 1-8.52062366-8.39162618V284.77431637A8.45273025 8.45273025 0 0 1 280.48345249 276.40984756h461.52586118a8.45273025 8.45273025 0 0 1 8.52062367 8.38483683v454.43099924A8.4595196 8.4595196 0 0 1 742.00931367 747.59015244z m-415.70459492-22.20793627h390.78771137a8.28978606 8.28978606 0 0 0 8.28978605-8.28978606V306.90756988a8.28978606 8.28978606 0 0 0-8.28978605-8.28978605H326.30471875a8.28978606 8.28978606 0 0 0-8.28978605 8.28978606V376.21316862h-11.10736282a8.28978606 8.28978606 0 0 0-8.28978605 8.28978605v80.41296155a8.28978606 8.28978606 0 0 0 8.28978605 8.28978606h11.10736282v77.58859544h-11.10736282a8.28978606 8.28978606 0 0 0-8.28978605 8.28978606v80.41296155A8.28978606 8.28978606 0 0 0 306.90756988 647.78683138h11.10736281v69.30559873a8.28978606 8.28978606 0 0 0 8.28978606 8.28978606z m19.39714886-407.36049414h351.99341364a8.28978606 8.28978606 0 0 1 8.28978605 8.28978605v371.37698383a8.28978606 8.28978606 0 0 1-8.28978605 8.28978606H345.7018676a8.28978606 8.28978606 0 0 1-8.2829967-8.28978606V647.78683138h11.10736281a8.28978606 8.28978606 0 0 0 8.28978605-8.28978605V559.08408378a8.28978606 8.28978606 0 0 0-8.28978605-8.28978605h-11.10736281V473.20570228h11.10736281a8.28978606 8.28978606 0 0 0 8.28978605-8.28978606V384.50295467A8.28978606 8.28978606 0 0 0 348.5262337 376.21316862h-11.1073628v-49.90844987a8.28978606 8.28978606 0 0 1 8.28299671-8.28978606z m-19.39714886 77.58859546h2.82436609a8.28978606 8.28978606 0 0 1 8.28978606 8.28978604v41.61866383a8.28978606 8.28978606 0 0 1-8.28978606 8.28978605h-2.82436609a8.28978606 8.28978606 0 0 1-8.28978606-8.28978605v-41.61866383a8.28978606 8.28978606 0 0 1 8.28978606-8.28978604z m0 174.5811291h2.82436609a8.28978606 8.28978606 0 0 1 8.28978606 8.28978605v41.61866382a8.28978606 8.28978606 0 0 1-8.28978606 8.28978605h-2.82436609a8.28978606 8.28978606 0 0 1-8.28978606-8.28978605v-41.61866382a8.28978606 8.28978606 0 0 1 8.28978606-8.28978605z m205.09243011 96.99253365a77.59538479 77.59538479 0 0 0 42.04639234-142.3724927 8.23547132 8.23547132 0 0 1-3.60514038-8.07931646 32.43947402 32.43947402 0 0 0 0.35304577-4.75253911V394.92459399c0-16.05679281-10.00748947-30.6063518-25.20203591-35.8001981-27.15736628-9.27424059-52.38655955 10.65926626-52.38655954 36.4859216V512a33.33566711 33.33566711 0 0 0 0.35304576 4.7525391 8.24226067 8.24226067 0 0 1-3.59835104 8.07931646 77.58859545 77.58859545 0 0 0 42.039603 142.37249271z m-19.39714886-271.57366275c0-13.49721104 13.79594207-23.76269549 28.06034871-17.50971192a18.2429608 18.2429608 0 0 1 10.73394901 16.75609499v89.45636452a8.28299671 8.28299671 0 0 1-8.2829967 8.28978606h-22.22151496A8.28978606 8.28978606 0 0 1 512 484.31306508z m88.70274759 0h-2.82436608a8.28978606 8.28978606 0 0 0-8.28299672 8.28978604v2.81757675a8.28299671 8.28299671 0 0 0 8.28299672 8.28978606h2.82436608a8.28978606 8.28978606 0 0 0 8.28978607-8.28978606v-2.81757675a8.28978606 8.28978606 0 0 0-8.28978607-8.28978604z m8.28978607 0" /></svg>