<?xml version="1.0" standalone="no"?><!DOCTYPE svg PUBLIC "-//W3C//DTD SVG 1.1//EN" "http://www.w3.org/Graphics/SVG/1.1/DTD/svg11.dtd"><svg class="icon" width="48px" height="48.00px" viewBox="0 0 1024 1024" version="1.1" xmlns="http://www.w3.org/2000/svg"><path fill="#606266" d="M798.51914597 212.0629425H224.76245117a21.80700303 21.80700303 0 1 0 0 43.61400605h34.53741074v100.57640075c0 3.02810669-0.30899048 7.269001 2.71911621 11.20862961l56.65340423 79.9744606c3.9396286 5.15241623 9.09204483 8.49723816 15.44952393 8.79077912v41.49742126c0 33.62588882 27.56967545 61.7980957 60.25314331 61.79809571h234.80186462c32.11183548 0 58.46872329-27.56195068 58.16745758-61.49682999v-41.50514603h0.60253143a21.42848969 21.42848969 0 0 0 17.87509919-9.08432007l57.8584671-79.9744606c2.72684097-4.24089431 4.24089431-8.49723816 4.24089432-12.72268295V255.67694854h30.59778214a21.80700303 21.80700303 0 1 0 0-43.61400604z m-154.49523926 244.45781709v41.50514602c0 8.78305435-5.45368195 17.87509919-14.54572678 17.87509917H394.40594863c-8.78305435 0-16.66231155-8.49723816-16.66231155-17.87509917v-41.50514603z m79.96673584-200.84381105V347.77156067l-47.25236893 64.8262024H346.84458924l-43.62173082-64.8262024V255.67694854z"  /><path fill="#606266" d="M348.35864258 334.14508057h57.25593567a14.24446106 14.24446106 0 0 0 0-28.48119736h-57.25593567a14.24446106 14.24446106 0 0 0 0 28.48119736z m132.68823623 0H538.26419068a14.24446106 14.24446106 0 1 0 0-28.48119736h-57.21731187a14.24446106 14.24446106 0 1 0 0 28.48119736z m132.68051148 0h57.25593566a14.24446106 14.24446106 0 0 0 0-28.48119736h-57.25593566a14.24446106 14.24446106 0 0 0 0 28.48119736z m-247.19238281 250.2204895c-59.37252045 46.34857177-40.2923584 84.81788635-26.04789734 112.99009323 13.90457153 27.56967545 23.01979065 45.44477463-21.21219635 77.54888534a14.14403916 14.14403916 0 0 0-3.02810669 19.99940873 13.94319534 13.94319534 0 0 0 11.51762008 5.75494766 14.87016678 14.87016678 0 0 0 8.49723816-2.72684097c63.61341476-46.34857177 44.22426223-85.42814255 29.68626022-113.90933991-13.63420486-27.26068496-22.71852493-45.43704987 18.1763649-77.24761963 6.3574791-4.85115052 7.269001-13.94319534 2.42557526-20.30067444-4.85115052-6.05621338-13.63420486-6.95228576-19.99940872-2.11658477z m165.10133743 18.17636489a14.40668106 14.40668106 0 1 0-22.11599349-18.47763061c-48.46515656 57.55720139-21.80700303 91.15219117-2.11658479 115.7169342 19.08016206 23.94676208 31.802845 39.6821022-4.54988479 80.27572632-5.45368195 5.75494766-4.84342575 14.8469925 1.21278762 20.30067444a14.30625916 14.30625916 0 0 0 9.69457627 3.63063813 13.4642601 13.4642601 0 0 0 10.59837341-4.84342575c52.71377563-58.46872329 25.44536591-92.69714356 5.76267242-117.53997804-19.38915253-23.63004684-32.11183548-39.39628601 1.54495239-79.06293869z m163.57955932 77.24761963c-23.32878113-19.68269348-39.07957077-32.71436692-13.90457153-78.15141677a14.29853439 14.29853439 0 0 0-25.14410018-13.63420486c-36.3527298 66.03899002-3.63063813 93.60866547 20.60194015 113.90161514 23.63004684 19.69041824 39.07957077 32.72209167 11.20862961 79.67319488a14.63069917 14.63069917 0 0 0 4.85115051 19.69041825 13.38701248 13.38701248 0 0 0 7.269001 2.12430953 14.45302963 14.45302963 0 0 0 12.41369248-6.95228577c40.2923584-68.16329956 6.95228576-96.03424073-17.26484299-116.64390563z m0 0"  /><path fill="#606266" d="M537.39129257 607.084095c7.57026672-9.09204483 6.3574791-23.01979065-2.72684097-30.89904785-9.09204483-7.57026672-23.02751541-6.3574791-30.89904785 2.72684098-52.41250991 62.40062714-22.1159935 100.26741028-2.12430954 125.41151045 18.47763062 23.32878113 27.87094117 34.83867646-4.24089431 70.58115007a21.70658112 21.70658112 0 0 0 1.54495239 30.89904785 21.34351731 21.34351731 0 0 0 30.89904785-1.81531906c57.25593567-63.3430481 26.35688782-101.78146362 6.06393814-127.23455429-18.50080491-23.01979065-27.90184021-34.83867646 1.48315429-69.66962815zM700.06705475 673.72561646c-22.71852493-19.08016206-34.23614502-28.77473831-12.12015153-68.75038148a21.57526016 21.57526016 0 0 0-8.49723815-29.68626022 21.75292969 21.75292969 0 0 0-29.68626023 8.79077911c-39.68982697 71.48494721-2.42557526 102.99425125 22.10826875 123.59619141 22.7262497 19.08788681 33.9348793 28.48119736 9.39331054 69.97861862-6.05621338 10.30483246-2.72684097 23.94676208 7.57799148 29.9952507a23.8617897 23.8617897 0 0 0 11.20862962 3.02810669 21.49801254 21.49801254 0 0 0 18.77889633-10.90736389c43.63718033-73.33116532 6.0716629-105.14173507-18.76344682-126.04494094zM378.36161804 573.7980957a21.01135254 21.01135254 0 0 0-16.36104584 4.54216003c-64.52493667 49.98693467-42.71793366 93.30739975-28.17220687 122.05123902 13.32521438 26.65815353 20.29294968 39.98336792-18.7866211 68.16329957a21.9537735 21.9537735 0 0 0 13.03167344 39.6821022 20.96500397 20.96500397 0 0 0 13.01622391-4.24089433c69.06709671-50.28820039 46.64983749-94.24209594 32.11183547-123.29492568-13.32521438-26.35688782-19.99168396-39.6821022 16.05205536-67.85430908a21.5675354 21.5675354 0 0 0 8.18052292-14.53800202 22.27048874 22.27048874 0 0 0-4.54216004-16.36104583A21.58298493 21.58298493 0 0 0 378.36161804 573.7980957zM692.79805374 319.90834426a21.7297554 21.7297554 0 0 0-21.81472779-21.81472777h-57.25593566a21.81472778 21.81472778 0 1 0 0 43.6217308h57.25593566a21.7297554 21.7297554 0 0 0 21.81472779-21.80700303zM538.26419068 341.71534729a21.81472778 21.81472778 0 1 0 0-43.6217308h-57.21731187a21.81472778 21.81472778 0 1 0 0 43.6217308zM405.61457825 298.09361649h-57.25593567a21.81472778 21.81472778 0 0 0 0 43.6217308h57.25593567a21.81472778 21.81472778 0 1 0 0-43.6217308z"  /></svg>