<?xml version="1.0" standalone="no"?><!DOCTYPE svg PUBLIC "-//W3C//DTD SVG 1.1//EN" "http://www.w3.org/Graphics/SVG/1.1/DTD/svg11.dtd"><svg class="icon" width="48px" height="43.54px" viewBox="0 0 1129 1024" version="1.1" xmlns="http://www.w3.org/2000/svg"><path  d="M570.615172 891.586207a17.655172 17.655172 0 0 1-8.827586-2.295173L233.048276 699.497931a17.655172 17.655172 0 0 1-8.827586-15.36v-379.586207a17.655172 17.655172 0 0 1 8.827586-15.36L561.787586 99.398621a17.655172 17.655172 0 0 1 17.655173 0l328.73931 189.793103a17.655172 17.655172 0 0 1 8.827586 15.36v379.586207a17.655172 17.655172 0 0 1-8.827586 15.36L579.442759 889.291034a17.655172 17.655172 0 0 1-8.827587 2.295173zM259.531034 673.897931l311.084138 179.729655 311.084138-179.729655V314.791724L570.615172 135.062069 259.531034 314.791724z"  /><path  d="M570.615172 673.015172a19.244138 19.244138 0 0 1-8.827586-2.295172l-139.475862-80.507586a17.655172 17.655172 0 0 1-8.827586-15.36v-161.015173a17.655172 17.655172 0 0 1 8.827586-15.36l139.475862-80.684138a17.655172 17.655172 0 0 1 17.655173 0l139.475862 80.507587a17.655172 17.655172 0 0 1 8.827586 15.36v161.015172a17.655172 17.655172 0 0 1-8.827586 15.36L579.442759 670.896552a19.244138 19.244138 0 0 1-8.827587 2.11862zM448.794483 564.965517l121.820689 70.62069 121.82069-70.62069v-141.241379l-121.82069-70.62069-121.820689 70.62069z"  /><path  d="M710.091034 431.492414a17.655172 17.655172 0 0 1-8.827586-33.015173l189.263449-109.285517a17.655172 17.655172 0 0 1 17.655172 30.72l-189.263448 109.285517a17.655172 17.655172 0 0 1-8.827587 2.295173zM431.13931 431.492414a17.655172 17.655172 0 0 1-8.827586-2.295173L233.048276 319.911724a17.655172 17.655172 0 0 1 17.655172-30.72l189.263449 109.285517a17.655172 17.655172 0 0 1-8.827587 33.015173zM431.13931 592.507586a17.655172 17.655172 0 0 1-14.124138-7.23862 17.655172 17.655172 0 0 1 3.707587-24.717242l139.475862-102.929655a17.655172 17.655172 0 0 1 24.540689 3.707586 17.655172 17.655172 0 0 1-3.531034 24.717242L441.37931 588.976552a17.655172 17.655172 0 0 1-10.24 3.531034zM570.615172 891.586207a17.655172 17.655172 0 0 1-17.655172-17.655173V655.36a17.655172 17.655172 0 0 1 35.310345 0V873.931034a17.655172 17.655172 0 0 1-17.655173 17.655173z"  /><path  d="M710.091034 592.507586a17.655172 17.655172 0 0 1-10.593103-3.531034l-139.29931-102.929655a17.655172 17.655172 0 0 1-7.238621-14.30069v-138.416552a17.655172 17.655172 0 0 1 35.310345 0v129.588966l132.237241 97.633103a17.655172 17.655172 0 0 1 3.707586 24.717242 17.655172 17.655172 0 0 1-14.124138 7.23862z"  /></svg>