<?xml version="1.0" standalone="no"?><!DOCTYPE svg PUBLIC "-//W3C//DTD SVG 1.1//EN" "http://www.w3.org/Graphics/SVG/1.1/DTD/svg11.dtd"><svg class="icon" width="48px" height="43.54px" viewBox="0 0 1129 1024" version="1.1" xmlns="http://www.w3.org/2000/svg"><path  d="M396.535172 574.675862a17.655172 17.655172 0 0 1-13.594482-28.777931l67.972413-83.508965a17.655172 17.655172 0 1 1 27.365518 22.245517l-67.972414 83.685517a17.655172 17.655172 0 0 1-13.771035 6.355862zM610.33931 537.070345a17.655172 17.655172 0 0 1-8.827586-2.471724l-93.395862-54.20138a17.655172 17.655172 0 0 1-6.355862-24.187586 17.655172 17.655172 0 0 1 24.011034-6.355862l93.395863 54.201379a17.655172 17.655172 0 0 1-8.827587 33.015173zM666.129655 528.066207A17.655172 17.655172 0 0 1 653.241379 497.875862l75.74069-76.623448a17.655172 17.655172 0 0 1 24.893793 0 17.655172 17.655172 0 0 1 0 25.070345l-75.74069 76.623448a17.655172 17.655172 0 0 1-12.005517 5.12z"  /><path  d="M486.4 492.755862a46.962759 46.962759 0 1 1 46.962759-47.315862v2.648276a46.786207 46.786207 0 0 1-7.415173 25.776552 44.491034 44.491034 0 0 1-39.547586 18.891034z m0-58.615172a11.652414 11.652414 0 1 0 0 23.304827 15.713103 15.713103 0 0 0 9.710345-2.471724 11.828966 11.828966 0 0 0 1.942069-7.238621v-1.942069a11.828966 11.828966 0 0 0-11.652414-11.652413z m46.962759 11.652413zM370.758621 623.58069a46.962759 46.962759 0 1 1 46.962758-46.962759A47.13931 47.13931 0 0 1 370.758621 623.58069zM370.758621 564.965517a11.652414 11.652414 0 1 0 11.652413 11.652414A11.828966 11.828966 0 0 0 370.758621 564.965517zM637.175172 581.031724a46.962759 46.962759 0 0 1 0-93.925517 44.491034 44.491034 0 0 1 39.547587 18.891034 47.492414 47.492414 0 0 1 7.591724 25.776552v2.648276a47.13931 47.13931 0 0 1-47.139311 46.609655z m0-58.615172a11.652414 11.652414 0 1 0 11.652414 11.652414 7.238621 7.238621 0 0 1 0-1.942069 12.182069 12.182069 0 0 0-2.11862-7.238621 15.36 15.36 0 0 0-9.533794-2.471724zM762.350345 459.034483a46.962759 46.962759 0 1 1 46.962758-46.962759A46.962759 46.962759 0 0 1 762.350345 459.034483z m0-58.615173a11.652414 11.652414 0 1 0 11.652414 11.652414 11.652414 11.652414 0 0 0-11.652414-11.652414z"  /><path  d="M658.891034 812.137931a17.655172 17.655172 0 0 1-7.944827-1.942069l-158.896552-81.213793-222.455172 54.024828a17.655172 17.655172 0 0 1-15.006897-3.177931 17.655172 17.655172 0 0 1-6.885517-13.947587V281.246897a17.655172 17.655172 0 0 1 11.652414-16.595863l237.815172-86.157241a17.655172 17.655172 0 0 1 15.889655 2.118621l144.948966 97.809655L847.448276 227.398621a17.655172 17.655172 0 0 1 15.183448 2.824827 17.655172 17.655172 0 0 1 7.062069 13.594483l15.889655 480.044138a17.655172 17.655172 0 0 1-12.182069 17.655172l-209.037241 68.855173a18.714483 18.714483 0 0 1-5.473104 1.765517zM494.344828 691.729655a17.655172 17.655172 0 0 1 7.944827 1.942069l157.484138 80.86069 189.44-61.969655-15.183448-445.44-175.315862 47.492413a17.655172 17.655172 0 0 1-14.477242-2.295172l-144.242758-97.456552L282.482759 293.605517v449.853793l207.801379-51.2a17.655172 17.655172 0 0 1 4.06069-0.529655z"  /></svg>