<?xml version="1.0" standalone="no"?><!DOCTYPE svg PUBLIC "-//W3C//DTD SVG 1.1//EN" "http://www.w3.org/Graphics/SVG/1.1/DTD/svg11.dtd"><svg class="icon" width="48px" height="43.54px" viewBox="0 0 1129 1024" version="1.1" xmlns="http://www.w3.org/2000/svg"><path  d="M531.773793 485.34069h-263.062069a17.655172 17.655172 0 0 1-17.655172-17.655173V204.446897a17.655172 17.655172 0 0 1 17.655172-17.655173h263.062069a17.655172 17.655172 0 0 1 17.655173 17.655173v263.23862a17.655172 17.655172 0 0 1-17.655173 17.655173z m-245.406896-35.310345h227.751724V222.102069h-227.751724zM531.773793 836.148966h-263.062069a17.655172 17.655172 0 0 1-17.655172-17.655173V555.255172a17.655172 17.655172 0 0 1 17.655172-17.655172h263.062069a17.655172 17.655172 0 0 1 17.655173 17.655172v263.238621a17.655172 17.655172 0 0 1-17.655173 17.655173z m-245.406896-35.310345h227.751724V572.910345h-227.751724zM879.404138 836.148966H616.165517a17.655172 17.655172 0 0 1-17.655172-17.655173V555.255172a17.655172 17.655172 0 0 1 17.655172-17.655172h263.238621a17.655172 17.655172 0 0 1 17.655172 17.655172v263.238621a17.655172 17.655172 0 0 1-17.655172 17.655173z m-245.583448-35.310345h227.928276V572.910345H633.82069zM749.638621 517.826207a17.655172 17.655172 0 0 1-13.417931-5.826207l-150.068966-176.551724a17.655172 17.655172 0 0 1 1.942069-24.893793l176.551724-150.068966a17.655172 17.655172 0 0 1 24.893793 1.942069l150.245518 176.551724a17.655172 17.655172 0 0 1 4.060689 12.888276 17.655172 17.655172 0 0 1-6.002758 12.005517l-176.551725 150.245518a17.655172 17.655172 0 0 1-11.652413 3.707586z m-125.175173-191.558621l127.293793 149.009655 148.656552-127.117241-127.293793-149.009655z"  /></svg>