<?xml version="1.0" standalone="no"?><!DOCTYPE svg PUBLIC "-//W3C//DTD SVG 1.1//EN" "http://www.w3.org/Graphics/SVG/1.1/DTD/svg11.dtd"><svg class="icon" width="48px" height="43.54px" viewBox="0 0 1129 1024" version="1.1" xmlns="http://www.w3.org/2000/svg"><path  d="M583.503448 409.6a17.655172 17.655172 0 0 1-12.535172-5.296552l-96.397242-96.220689a17.655172 17.655172 0 0 1 0-24.893793 17.655172 17.655172 0 0 1 25.070345 0l82.979311 83.508965 79.624827-83.332414A17.655172 17.655172 0 0 1 688.551724 307.729655l-91.983448 96.397242a18.537931 18.537931 0 0 1-12.535173 5.473103z"  /><path  d="M693.671724 420.722759H470.333793a17.655172 17.655172 0 0 1 0-35.310345h223.337931a17.655172 17.655172 0 0 1 0 35.310345zM693.671724 483.575172H470.333793a17.655172 17.655172 0 0 1 0-35.310344h223.337931a17.655172 17.655172 0 1 1 0 35.310344z"  /><path  d="M583.503448 576.971034a17.655172 17.655172 0 0 1-17.655172-17.655172V391.944828a17.655172 17.655172 0 0 1 35.310345 0v167.371034a17.655172 17.655172 0 0 1-17.655173 17.655172zM604.336552 752.993103a84.744828 84.744828 0 0 1-19.067586-2.295172l-158.896552-26.482759a17.655172 17.655172 0 0 1 5.826207-35.310344l159.955862 26.65931a36.546207 36.546207 0 0 0 45.373793-26.129655 40.077241 40.077241 0 0 0-3.707586-30.190345 32.308966 32.308966 0 0 0-17.655173-12.005517l-165.605517-25.953104c-33.721379-3.177931-38.488276 32.485517-39.017931 36.546207a17.655172 17.655172 0 0 1-7.238621 12.535173 17.655172 17.655172 0 0 1-14.124138 2.824827l-121.291034-26.65931a17.655172 17.655172 0 1 1 7.591724-34.427586L380.822069 635.586207a69.031724 69.031724 0 0 1 73.798621-48.728276l167.017931 25.953103a66.206897 66.206897 0 0 1 41.489655 27.188966 73.268966 73.268966 0 0 1 8.651034 58.615172 72.386207 72.386207 0 0 1-67.442758 54.377931z"  /><path  d="M563.553103 865.103448A105.931034 105.931034 0 0 1 494.344828 835.795862l-214.686897-49.434483a17.655172 17.655172 0 0 1 7.944828-34.427586l219.100689 50.493793a16.595862 16.595862 0 0 1 7.944828 4.237242A70.62069 70.62069 0 0 0 567.437241 829.793103a60.027586 60.027586 0 0 0 37.605518-20.656551 18.891034 18.891034 0 0 1 6.885517-5.473104l249.644138-108.226207a29.66069 29.66069 0 0 0-8.297931-17.655172 52.965517 52.965517 0 0 0-33.368276-12.005517l-160.485517 46.786207a17.655172 17.655172 0 1 1-9.886897-33.897931L812.137931 630.642759h4.237241a88.275862 88.275862 0 0 1 61.44 22.245517 70.62069 70.62069 0 0 1 19.067587 55.613793 17.655172 17.655172 0 0 1-10.593104 15.36l-256.529655 110.344828A93.395862 93.395862 0 0 1 570.968276 865.103448zM370.758621 620.049655a17.655172 17.655172 0 0 1-14.124138-6.708965 284.424828 284.424828 0 1 1 463.271724-17.655173 17.655172 17.655172 0 0 1-29.66069-19.420689 249.291034 249.291034 0 1 0-406.068965 15.713103 17.655172 17.655172 0 0 1-3.177931 24.893793 17.655172 17.655172 0 0 1-10.24 3.177931z"  /></svg>