<?xml version="1.0" standalone="no"?><!DOCTYPE svg PUBLIC "-//W3C//DTD SVG 1.1//EN" "http://www.w3.org/Graphics/SVG/1.1/DTD/svg11.dtd"><svg class="icon" width="48px" height="43.54px" viewBox="0 0 1129 1024" version="1.1" xmlns="http://www.w3.org/2000/svg"><path  d="M560.728276 847.448276a99.222069 99.222069 0 0 1-35.310345-10.24 49.964138 49.964138 0 0 0-6.355862-2.648276 406.068966 406.068966 0 0 1-94.455172-49.787586 362.284138 362.284138 0 0 1-155.012414-294.84138v-141.241379-70.620689a17.655172 17.655172 0 0 1 5.649655-13.064828 17.655172 17.655172 0 0 1 13.594483-4.413793c1.235862 0 127.823448 9.886897 264.827586-91.806897a17.655172 17.655172 0 0 1 20.833103 0c1.412414 1.05931 141.241379 101.870345 261.296552 91.806897a17.655172 17.655172 0 0 1 13.417931 4.766896 17.655172 17.655172 0 0 1 5.826207 12.888276v230.4c0 1.588966 9.533793 257.412414-286.366897 337.743449a28.424828 28.424828 0 0 1-7.944827 1.05931zM304.904828 295.90069v195.089655a326.797241 326.797241 0 0 0 140.005517 264.827586 370.758621 370.758621 0 0 0 86.333793 45.373793l8.121379 3.354483a100.811034 100.811034 0 0 0 21.539311 7.415172c266.24-72.562759 259.001379-293.252414 258.648275-302.609655V296.077241h-0.882758c-108.755862 0-219.983448-68.678621-254.411035-91.806896a471.04 471.04 0 0 1-259.354482 91.630345z"  /><path  d="M532.656552 685.726897a15.889655 15.889655 0 0 1-6.708966-1.412414 17.655172 17.655172 0 0 1-10.769655-18.714483l15.713103-110.874483h-67.795862a17.655172 17.655172 0 0 1-16.242758-25.070345l70.620689-162.251034a17.655172 17.655172 0 0 1 16.066207-10.593104h114.405518a17.655172 17.655172 0 0 1 15.713103 25.6l-40.783448 80.154483h50.846896a17.655172 17.655172 0 0 1 14.124138 28.248276L547.310345 678.664828a17.655172 17.655172 0 0 1-14.653793 7.062069z m-42.902069-166.311725h61.44a17.655172 17.655172 0 0 1 13.417931 6.179311 17.655172 17.655172 0 0 1 4.060689 13.947586l-8.827586 63.028965 78.565517-104.695172h-44.491034a17.655172 17.655172 0 0 1-15.006897-8.474483 17.655172 17.655172 0 0 1 0-17.655172l40.96-79.448276h-75.564137z"  /></svg>