<?xml version="1.0" standalone="no"?><!DOCTYPE svg PUBLIC "-//W3C//DTD SVG 1.1//EN" "http://www.w3.org/Graphics/SVG/1.1/DTD/svg11.dtd"><svg class="icon" width="48px" height="43.54px" viewBox="0 0 1129 1024" version="1.1" xmlns="http://www.w3.org/2000/svg"><path  d="M794.482759 796.777931H368.110345A126.764138 126.764138 0 0 1 241.522759 670.896552V342.863448a126.764138 126.764138 0 0 1 126.587586-126.587586H794.482759a126.764138 126.764138 0 0 1 126.764138 126.587586V670.896552A126.764138 126.764138 0 0 1 794.482759 796.777931zM368.110345 251.586207a91.453793 91.453793 0 0 0-91.277242 91.277241V670.896552a91.453793 91.453793 0 0 0 91.277242 91.277241H794.482759A91.453793 91.453793 0 0 0 885.406897 670.896552V342.863448A91.453793 91.453793 0 0 0 794.482759 251.586207z"  /><path  d="M903.062069 406.068966H259.177931a17.655172 17.655172 0 0 1 0-35.310345h643.884138a17.655172 17.655172 0 0 1 0 35.310345zM346.041379 358.046897a43.784828 43.784828 0 1 1 43.784828-43.784828 43.784828 43.784828 0 0 1-43.784828 43.784828z m0-52.965518a8.474483 8.474483 0 1 0 8.474483 8.297931 8.297931 8.297931 0 0 0-8.474483-7.415172zM456.209655 358.046897a43.784828 43.784828 0 1 1 43.608276-43.784828 43.784828 43.784828 0 0 1-43.608276 43.784828z m0-52.965518a8.474483 8.474483 0 1 0 8.297931 8.297931 8.297931 8.297931 0 0 0-8.297931-7.415172zM568.143448 358.046897a43.784828 43.784828 0 1 1 43.784828-43.784828 43.784828 43.784828 0 0 1-43.784828 43.784828z m0-52.965518a8.474483 8.474483 0 1 0 8.474483 8.297931 8.297931 8.297931 0 0 0-8.474483-7.415172zM547.310345 675.133793a15.713103 15.713103 0 0 1-5.649655-0.882759 17.655172 17.655172 0 0 1-12.005518-22.245517l54.377931-163.133793a17.655172 17.655172 0 1 1 33.368276 11.29931l-54.201379 162.957242a17.655172 17.655172 0 0 1-15.889655 12.005517zM474.571034 635.586207a17.655172 17.655172 0 0 1-7.062068-1.588966l-88.275863-38.841379a17.655172 17.655172 0 0 1-10.416551-15.889655 17.655172 17.655172 0 0 1 9.886896-16.066207l88.275862-43.608276a17.655172 17.655172 0 1 1 15.536552 31.77931l-54.377931 26.659311 53.848276 23.657931a17.655172 17.655172 0 0 1-7.415173 33.897931zM678.311724 635.586207a17.655172 17.655172 0 0 1-7.415172-33.544828l53.848276-23.657931L670.896552 551.724138a17.655172 17.655172 0 0 1 15.713103-31.77931l88.275862 43.608275a17.655172 17.655172 0 0 1 9.886897 16.066207 17.655172 17.655172 0 0 1-10.593104 15.889656l-88.275862 38.841379a17.655172 17.655172 0 0 1-7.591724 1.235862z"  /></svg>