<?xml version="1.0" standalone="no"?><!DOCTYPE svg PUBLIC "-//W3C//DTD SVG 1.1//EN" "http://www.w3.org/Graphics/SVG/1.1/DTD/svg11.dtd"><svg class="icon" width="48px" height="43.54px" viewBox="0 0 1129 1024" version="1.1" xmlns="http://www.w3.org/2000/svg"><path  d="M873.048276 855.746207h-557.903448A96.926897 96.926897 0 0 1 218.394483 759.172414V383.823448a96.926897 96.926897 0 0 1 96.750345-96.926896h557.903448a96.926897 96.926897 0 0 1 96.926896 96.926896V759.172414a96.926897 96.926897 0 0 1-96.926896 96.573793z m-557.903448-535.657931a63.735172 63.735172 0 0 0-63.558621 63.735172V759.172414a63.735172 63.735172 0 0 0 63.558621 63.735172h557.903448A63.735172 63.735172 0 0 0 936.783448 759.172414V383.823448a63.735172 63.735172 0 0 0-63.735172-63.735172z"  /><path  d="M824.849655 615.812414a16.066207 16.066207 0 0 1-12.182069-5.473104l-82.626207-90.217931a16.595862 16.595862 0 1 1 24.54069-22.422069l82.626207 90.217931a17.655172 17.655172 0 0 1-1.05931 23.48138 16.242759 16.242759 0 0 1-11.299311 4.413793zM551.017931 666.482759a15.713103 15.713103 0 0 1-11.29931-4.590345 17.655172 17.655172 0 0 1 0-23.48138l130.11862-136.297931a16.595862 16.595862 0 0 1 24.011035 22.951725l-130.648276 136.297931a17.655172 17.655172 0 0 1-12.182069 5.12zM491.52 644.590345a16.41931 16.41931 0 0 1-13.241379-6.532414l-95.867587-128.353103a16.595862 16.595862 0 1 1 26.482759-19.950345L504.761379 617.931034a16.41931 16.41931 0 0 1-13.241379 26.482759z"  /><path  d="M368.463448 525.417931a62.322759 62.322759 0 1 1 62.322759-62.146207 62.322759 62.322759 0 0 1-62.322759 62.146207z m0-91.277241a29.131034 29.131034 0 1 0 29.131035 29.131034 28.954483 28.954483 0 0 0-29.131035-29.131034zM510.057931 731.983448a62.322759 62.322759 0 1 1 62.322759-62.146207 62.322759 62.322759 0 0 1-62.322759 62.146207z m0-91.277241a29.131034 29.131034 0 1 0 29.131035 29.131034 28.954483 28.954483 0 0 0-29.131035-29.131034zM709.031724 539.895172a62.322759 62.322759 0 1 1 62.146207-62.322758 62.322759 62.322759 0 0 1-62.146207 62.322758z m0-91.277241a29.131034 29.131034 0 1 0 28.954483 28.954483 29.131034 29.131034 0 0 0-28.954483-28.954483zM847.448276 701.44a62.322759 62.322759 0 1 1 62.322758-62.322759A62.322759 62.322759 0 0 1 847.448276 701.44z m0-91.277241a29.131034 29.131034 0 1 0 28.248276 28.954482 29.131034 29.131034 0 0 0-28.248276-28.954482zM858.217931 252.115862H323.972414a16.772414 16.772414 0 0 1 0-33.368276h534.245517a16.772414 16.772414 0 0 1 0 33.368276zM796.777931 178.670345h-411.365517a16.595862 16.595862 0 0 1 0-33.191724h411.365517a16.595862 16.595862 0 0 1 0 33.191724z"  /></svg>