<?xml version="1.0" standalone="no"?><!DOCTYPE svg PUBLIC "-//W3C//DTD SVG 1.1//EN" "http://www.w3.org/Graphics/SVG/1.1/DTD/svg11.dtd"><svg class="icon" width="48px" height="43.54px" viewBox="0 0 1129 1024" version="1.1" xmlns="http://www.w3.org/2000/svg"><path  d="M921.6 722.096552H219.630345a17.655172 17.655172 0 0 1-17.655173-17.655173V287.249655a52.965517 52.965517 0 0 1 52.965518-52.965517H886.289655a52.965517 52.965517 0 0 1 52.965517 52.965517V704.441379a17.655172 17.655172 0 0 1-17.655172 17.655173z m-684.314483-35.310345H903.944828V287.249655a17.655172 17.655172 0 0 0-17.655173-17.655172H254.94069a17.655172 17.655172 0 0 0-17.655173 17.655172z"  /><path  d="M942.962759 783.36H196.325517a52.965517 52.965517 0 0 1-52.965517-52.965517V704.441379a17.655172 17.655172 0 0 1 17.655172-17.655172h817.257931a17.655172 17.655172 0 0 1 17.655173 17.655172v25.953104a52.965517 52.965517 0 0 1-52.965517 52.965517zM178.670345 722.096552v8.297931a17.655172 17.655172 0 0 0 17.655172 17.655172h746.637242a17.655172 17.655172 0 0 0 17.655172-17.655172v-8.297931zM850.096552 654.477241H296.96a17.655172 17.655172 0 0 1-17.655172-17.655172V314.085517a17.655172 17.655172 0 0 1 17.655172-17.655172h553.136552a17.655172 17.655172 0 0 1 17.655172 17.655172v322.736552a17.655172 17.655172 0 0 1-17.655172 17.655172z m-535.48138-35.310344h517.826207V331.74069H314.615172z"  /><path  d="M547.310345 564.965517a19.950345 19.950345 0 0 1-5.649655 0 17.655172 17.655172 0 0 1-12.005518-23.128276l48.551725-145.831724a17.655172 17.655172 0 1 1 33.368275 11.299311l-48.551724 145.655172A17.655172 17.655172 0 0 1 547.310345 564.965517zM482.515862 529.655172a17.655172 17.655172 0 0 1-7.062069-1.412413l-79.271724-35.310345a17.655172 17.655172 0 0 1-10.416552-15.713104 17.655172 17.655172 0 0 1 9.886897-16.242758L474.747586 423.724138a17.655172 17.655172 0 1 1 15.536552 31.602759L445.263448 476.689655l44.314483 19.597242a17.655172 17.655172 0 0 1-7.062069 33.721379zM664.54069 529.655172a17.655172 17.655172 0 0 1-7.062069-33.721379L701.793103 476.689655l-45.020689-22.245517a17.655172 17.655172 0 1 1 15.536552-30.72l79.271724 38.841379a17.655172 17.655172 0 0 1 9.886896 16.242759 17.655172 17.655172 0 0 1-10.593103 15.713103l-79.271724 35.310345a16.242759 16.242759 0 0 1-7.062069-0.176552z"  /></svg>