<?xml version="1.0" standalone="no"?><!DOCTYPE svg PUBLIC "-//W3C//DTD SVG 1.1//EN" "http://www.w3.org/Graphics/SVG/1.1/DTD/svg11.dtd"><svg class="icon" width="48px" height="43.54px" viewBox="0 0 1129 1024" version="1.1" xmlns="http://www.w3.org/2000/svg"><path  d="M600.275862 685.02069H261.296552v-17.655173c0-63.558621 33.544828-120.055172 88.275862-148.303448-22.951724-22.951724-37.075862-52.965517-37.075862-86.510345a118.289655 118.289655 0 0 1 236.57931 0c0 33.544828-14.124138 65.324138-37.075862 86.510345 52.965517 30.013793 88.275862 84.744828 88.275862 148.303448v17.655173z m-301.903448-35.310345H564.965517c-7.062069-51.2-42.372414-95.337931-93.572414-111.227586l-40.606896-12.358621-40.606897 12.358621c-49.434483 17.655172-84.744828 60.027586-91.806896 111.227586z m132.413793-300.137931c-45.903448 0-82.97931 37.075862-82.97931 82.97931 0 31.77931 17.655172 60.027586 45.903448 74.151724l37.075862 19.42069 37.075862-19.42069c28.248276-14.124138 45.903448-42.372414 45.903448-74.151724 1.765517-45.903448-37.075862-82.97931-82.97931-82.97931z"  /><path  d="M972.8 859.806897h-812.137931v-688.551725h812.137931v688.551725z m-776.827586-35.310345h741.517241v-617.931035h-741.517241v617.931035z"  /><path  d="M850.97931 420.193103H663.834483c-10.593103 0-17.655172-7.062069-17.655173-17.655172s7.062069-17.655172 17.655173-17.655172h187.144827c10.593103 0 17.655172 7.062069 17.655173 17.655172s-7.062069 17.655172-17.655173 17.655172zM850.97931 533.186207H663.834483c-10.593103 0-17.655172-7.062069-17.655173-17.655173s7.062069-17.655172 17.655173-17.655172h187.144827c10.593103 0 17.655172 7.062069 17.655173 17.655172s-7.062069 17.655172-17.655173 17.655173zM850.97931 647.944828H663.834483c-10.593103 0-17.655172-7.062069-17.655173-17.655173s7.062069-17.655172 17.655173-17.655172h187.144827c10.593103 0 17.655172 7.062069 17.655173 17.655172s-7.062069 17.655172-17.655173 17.655173z"  /></svg>