<?xml version="1.0" standalone="no"?><!DOCTYPE svg PUBLIC "-//W3C//DTD SVG 1.1//EN" "http://www.w3.org/Graphics/SVG/1.1/DTD/svg11.dtd"><svg class="icon" width="48px" height="43.54px" viewBox="0 0 1129 1024" version="1.1" xmlns="http://www.w3.org/2000/svg"><path  d="M554.372414 880.993103c-201.268966 0-363.696552-162.427586-363.696552-363.696551 0-201.268966 162.427586-363.696552 363.696552-363.696552C755.641379 151.834483 918.068966 316.027586 918.068966 517.296552c0 199.503448-162.427586 363.696552-363.696552 363.696551z m0-697.37931c-183.613793 0-333.682759 150.068966-333.682759 333.682759S370.758621 849.213793 554.372414 849.213793s333.682759-150.068966 333.682758-333.682759-150.068966-331.917241-333.682758-331.917241z"  /><path  d="M517.296552 730.924138c-7.062069 0-14.124138-5.296552-14.124138-12.358621l-3.531035-37.075862c-1.765517 0-3.531034-1.765517-5.296551-1.765517l-28.248276 24.717241c-5.296552 5.296552-14.124138 5.296552-19.42069 0L379.586207 635.586207c-5.296552-5.296552-5.296552-14.124138-1.765517-19.42069l24.717241-28.248276c0-1.765517-1.765517-3.531034-1.765517-5.296551l-37.075862-3.531035c-7.062069 0-12.358621-7.062069-12.358621-14.124138v-93.572414c0-7.062069 5.296552-14.124138 12.358621-14.124137l37.075862-3.531035c0-1.765517 1.765517-3.531034 1.765517-5.296552l-24.717241-28.248276c-5.296552-5.296552-5.296552-14.124138 0-19.420689l65.324138-65.324138c5.296552-5.296552 14.124138-5.296552 19.420689-1.765517l28.248276 24.717241c1.765517 0 3.531034-1.765517 5.296552-1.765517l3.531034-37.075862c0-7.062069 7.062069-12.358621 14.124138-12.358621h93.572414c7.062069 0 14.124138 5.296552 14.124138 12.358621l3.531034 37.075862c1.765517 0 3.531034 1.765517 5.296552 1.765517l28.248276-24.717241c5.296552-5.296552 14.124138-5.296552 19.42069 0l65.324138 65.324138c5.296552 5.296552 5.296552 14.124138 1.765517 19.420689L723.862069 446.675862c0 1.765517 1.765517 3.531034 1.765517 5.296552l37.075862 3.531034c7.062069 0 12.358621 7.062069 12.358621 14.124138v93.572414c0 7.062069-5.296552 14.124138-12.358621 14.124138l-37.075862 3.531034c0 1.765517-1.765517 3.531034-1.765517 5.296552l24.717241 28.248276c5.296552 5.296552 5.296552 14.124138 0 19.42069l-65.324138 65.324138c-5.296552 5.296552-14.124138 5.296552-19.420689 1.765517L635.586207 676.193103c-1.765517 0-3.531034 1.765517-5.296552 1.765518l-3.531034 37.075862c0 7.062069-7.062069 12.358621-14.124138 12.35862l-95.337931 3.531035z m-26.482759-84.744828c1.765517 0 3.531034 0 7.062069 1.765518 5.296552 3.531034 12.358621 5.296552 19.42069 7.062069 5.296552 1.765517 8.827586 7.062069 10.593103 12.35862l3.531035 33.544828h67.089655l3.531034-33.544828c0-5.296552 3.531034-10.593103 10.593104-12.35862 7.062069-1.765517 12.358621-5.296552 19.420689-8.827587 5.296552-1.765517 10.593103-1.765517 15.889656 1.765518L670.896552 670.896552l47.668965-47.668966-21.186207-26.482758c-3.531034-3.531034-5.296552-10.593103-1.765517-15.889656 3.531034-7.062069 5.296552-12.358621 7.062069-19.420689 1.765517-5.296552 7.062069-8.827586 12.358621-10.593104l33.544827-3.531034v-67.089655l-33.544827-3.531035c-5.296552 0-10.593103-3.531034-12.358621-10.593103-1.765517-7.062069-5.296552-12.358621-8.827586-19.42069-1.765517-5.296552-1.765517-10.593103 1.765517-15.889655l21.186207-26.482759-47.668966-47.668965-26.482758 21.186207c-3.531034 3.531034-10.593103 5.296552-15.889655 1.765517-7.062069-3.531034-12.358621-5.296552-19.42069-7.062069-5.296552-1.765517-8.827586-7.062069-10.593103-12.358621l-3.531035-33.544827h-67.089655l-3.531035 33.544827c0 5.296552-3.531034 10.593103-10.593103 12.358621-7.062069 1.765517-12.358621 5.296552-19.42069 8.827586-5.296552 1.765517-10.593103 1.765517-15.889655-1.765517l-26.482758-21.186207-47.668966 47.668966 21.186207 26.482758c3.531034 5.296552 5.296552 10.593103 1.765517 15.889655-3.531034 5.296552-5.296552 12.358621-7.062069 19.42069-1.765517 5.296552-7.062069 8.827586-12.35862 10.593103l-33.544828 3.531035v67.089655l33.544828 3.531035c5.296552 0 10.593103 3.531034 12.35862 10.593103 1.765517 7.062069 5.296552 12.358621 8.827586 19.42069 1.765517 5.296552 1.765517 10.593103-1.765517 15.889655l-21.186207 26.482758 47.668966 47.668966 26.482758-21.186207c5.296552-3.531034 8.827586-5.296552 12.358621-5.296552z m72.386207-3.531034c-68.855172 0-127.117241-56.496552-127.117241-125.351724 0-70.62069 56.496552-127.117241 125.351724-127.117242 33.544828 0 65.324138 12.358621 90.041379 37.075862 24.717241 22.951724 37.075862 54.731034 37.075862 90.04138 0 33.544828-12.358621 65.324138-37.075862 90.041379-22.951724 22.951724-54.731034 35.310345-88.275862 35.310345z m0-224.22069c-54.731034 0-97.103448 44.137931-97.103448 97.103448s44.137931 97.103448 97.103448 97.103449 97.103448-44.137931 97.103448-97.103449c0-26.482759-10.593103-51.2-28.248276-68.855172-19.42069-17.655172-42.372414-28.248276-68.855172-28.248276z"  /></svg>