<?xml version="1.0" standalone="no"?><!DOCTYPE svg PUBLIC "-//W3C//DTD SVG 1.1//EN" "http://www.w3.org/Graphics/SVG/1.1/DTD/svg11.dtd"><svg class="icon" width="48px" height="43.54px" viewBox="0 0 1129 1024" version="1.1" xmlns="http://www.w3.org/2000/svg"><path  d="M764.468966 903.944828H266.593103c-10.593103 0-17.655172-8.827586-17.655172-17.655173V132.413793c0-10.593103 8.827586-17.655172 17.655172-17.655172h344.275863c5.296552 0 8.827586 1.765517 12.35862 5.296551l229.517242 227.751725c3.531034 3.531034 5.296552 8.827586 5.296551 12.35862v208.331035c0 10.593103-8.827586 17.655172-17.655172 17.655172s-17.655172-8.827586-17.655173-17.655172V367.227586L602.041379 150.068966h-317.793103v716.8h480.22069c10.593103 0 17.655172 8.827586 17.655172 17.655172s-7.062069 19.42069-17.655172 19.42069z"  /><path  d="M840.386207 377.82069h-229.517241c-10.593103 0-17.655172-8.827586-17.655173-17.655173V132.413793c0-10.593103 8.827586-17.655172 17.655173-17.655172s17.655172 8.827586 17.655172 17.655172v210.096552h211.862069c10.593103 0 17.655172 8.827586 17.655172 17.655172s-8.827586 17.655172-17.655172 17.655173zM529.655172 287.77931h-171.255172c-10.593103 0-17.655172-8.827586-17.655172-17.655172s8.827586-17.655172 17.655172-17.655172H529.655172c10.593103 0 17.655172 8.827586 17.655173 17.655172s-7.062069 17.655172-17.655173 17.655172zM529.655172 399.006897h-171.255172c-10.593103 0-17.655172-8.827586-17.655172-17.655173s8.827586-17.655172 17.655172-17.655172H529.655172c10.593103 0 17.655172 8.827586 17.655173 17.655172s-7.062069 17.655172-17.655173 17.655173zM720.331034 503.172414H358.4c-10.593103 0-17.655172-8.827586-17.655172-17.655173s8.827586-17.655172 17.655172-17.655172h361.931034c10.593103 0 17.655172 8.827586 17.655173 17.655172s-7.062069 17.655172-17.655173 17.655173zM720.331034 602.041379H358.4c-10.593103 0-17.655172-8.827586-17.655172-17.655172s8.827586-17.655172 17.655172-17.655173h361.931034c10.593103 0 17.655172 8.827586 17.655173 17.655173s-7.062069 17.655172-17.655173 17.655172zM623.227586 709.737931h-264.827586c-10.593103 0-17.655172-8.827586-17.655172-17.655172s8.827586-17.655172 17.655172-17.655173h264.827586c10.593103 0 17.655172 8.827586 17.655173 17.655173s-7.062069 17.655172-17.655173 17.655172zM623.227586 812.137931h-264.827586c-10.593103 0-17.655172-8.827586-17.655172-17.655172s8.827586-17.655172 17.655172-17.655173h264.827586c10.593103 0 17.655172 8.827586 17.655173 17.655173s-7.062069 17.655172-17.655173 17.655172zM685.02069 859.806897c-5.296552 0-10.593103-1.765517-14.124138-5.296552-3.531034-5.296552-5.296552-12.358621-3.531035-17.655173l21.186207-68.855172c1.765517-7.062069 7.062069-10.593103 14.124138-12.358621 7.062069-1.765517 12.358621 0 17.655172 5.296552l51.2 54.731035c5.296552 5.296552 5.296552 12.358621 3.531035 17.655172-1.765517 7.062069-7.062069 10.593103-14.124138 12.358621l-72.386207 14.124138h-3.531034z m30.013793-51.2l-3.531035 8.827586 10.593104-1.765517-7.062069-7.062069z"  /><path  d="M757.406897 845.682759c-5.296552 0-10.593103-1.765517-14.124138-5.296552-7.062069-7.062069-7.062069-19.42069 1.765517-26.482759l134.17931-125.351724-24.717241-26.482758-135.944828 123.586206c-7.062069 7.062069-19.42069 7.062069-26.482758-1.765517-7.062069-7.062069-7.062069-19.42069 1.765517-26.482758l150.068965-135.944828c7.062069-7.062069 19.42069-7.062069 26.482759 1.765517l49.434483 52.965517c7.062069 7.062069 7.062069 19.42069-1.765517 26.482759l-148.303449 137.710345c-3.531034 3.531034-7.062069 5.296552-12.35862 5.296552z"  /><path  d="M905.710345 707.972414c-5.296552 0-10.593103-1.765517-14.124138-5.296552-7.062069-7.062069-7.062069-19.42069 1.765517-26.482759l19.42069-17.655172-24.717242-26.482759-19.420689 17.655173c-7.062069 7.062069-19.42069 7.062069-26.482759-1.765517-7.062069-7.062069-7.062069-19.42069 1.765517-26.482759l33.544828-30.013793c7.062069-7.062069 19.42069-7.062069 26.482759 1.765517l49.434482 52.965517c7.062069 7.062069 7.062069 19.42069-1.765517 26.482759L918.068966 704.441379c-3.531034 1.765517-8.827586 3.531034-12.358621 3.531035z"  /></svg>