<?xml version="1.0" standalone="no"?><!DOCTYPE svg PUBLIC "-//W3C//DTD SVG 1.1//EN" "http://www.w3.org/Graphics/SVG/1.1/DTD/svg11.dtd"><svg class="icon" width="48px" height="43.81px" viewBox="0 0 1122 1024" version="1.1" xmlns="http://www.w3.org/2000/svg"><path  d="M448.441379 817.434483H257.765517c-19.42069 0-45.903448-14.124138-77.682758-40.606897-51.2-44.137931-75.917241-120.055172-61.793104-188.910345 10.593103-47.668966 44.137931-88.275862 95.337931-111.227586-15.889655-38.841379-19.42069-104.165517 47.668966-146.537931 0 0 35.310345-26.482759 84.744827-14.124138 8.827586-42.372414 45.903448-143.006897 188.910345-143.006896h5.296552c28.248276 0 174.786207 8.827586 220.689655 165.95862 37.075862-3.531034 146.537931-1.765517 183.613793 112.993104 1.765517 7.062069-1.765517 15.889655-8.827586 17.655172-7.062069 1.765517-15.889655-1.765517-17.655172-8.827586-37.075862-116.524138-158.896552-93.572414-164.193104-91.806897H741.517241l-3.531034-12.35862c-42.372414-165.958621-195.972414-157.131034-201.268966-157.131035-153.6 0-164.193103 128.882759-164.193103 134.179311L370.758621 353.103448l-17.655173-7.062069c-42.372414-17.655172-74.151724 5.296552-75.917241 5.296552-74.151724 47.668966-35.310345 121.82069-33.544828 123.586207l7.062069 14.124138-14.124138 5.296552c-49.434483 19.42069-82.97931 54.731034-91.806896 97.103448-12.358621 58.262069 8.827586 123.586207 52.965517 162.427586 24.717241 21.186207 47.668966 35.310345 60.027586 35.310345h190.675862c7.062069 0 14.124138 7.062069 14.124138 14.124138s-7.062069 14.124138-14.124138 14.124138z"  /><path  d="M944.551724 600.275862H549.075862c-7.062069 0-12.358621-5.296552-12.358621-12.358621s5.296552-12.358621 12.358621-12.35862h395.475862c7.062069 0 12.358621 5.296552 12.358621 12.35862s-5.296552 12.358621-12.358621 12.358621zM944.551724 707.972414H549.075862c-7.062069 0-12.358621-5.296552-12.358621-12.358621s5.296552-12.358621 12.358621-12.358621h395.475862c7.062069 0 12.358621 5.296552 12.358621 12.358621s-5.296552 12.358621-12.358621 12.358621zM944.551724 815.668966H549.075862c-7.062069 0-12.358621-5.296552-12.358621-12.358621s5.296552-12.358621 12.358621-12.358621h395.475862c7.062069 0 12.358621 5.296552 12.358621 12.358621s-5.296552 12.358621-12.358621 12.358621z"  /></svg>