<?xml version="1.0" standalone="no"?><!DOCTYPE svg PUBLIC "-//W3C//DTD SVG 1.1//EN" "http://www.w3.org/Graphics/SVG/1.1/DTD/svg11.dtd"><svg class="icon" width="48px" height="43.54px" viewBox="0 0 1129 1024" version="1.1" xmlns="http://www.w3.org/2000/svg"><path  d="M564.965517 762.703448c-160.662069 0-287.77931-74.151724-287.77931-167.724138 0-12.358621 1.765517-26.482759 7.062069-38.841379l33.544827 12.358621c-3.531034 8.827586-5.296552 17.655172-5.296551 24.717241 0 72.386207 114.758621 132.413793 252.468965 132.413793s252.468966-60.027586 252.468966-132.413793c0-8.827586-1.765517-15.889655-5.296552-24.717241l33.544828-12.358621c3.531034 12.358621 7.062069 24.717241 7.062069 37.075862 0 95.337931-127.117241 169.489655-287.779311 169.489655z"  /><path  d="M564.965517 914.537931c-233.048276 0-423.724138-188.910345-423.724138-423.724138 0-233.048276 190.675862-423.724138 423.724138-423.724138s423.724138 188.910345 423.724138 423.724138-190.675862 423.724138-423.724138 423.724138z m0-810.372414c-213.627586 0-388.413793 174.786207-388.413793 388.413793s174.786207 388.413793 388.413793 388.413793 388.413793-174.786207 388.413793-388.413793-174.786207-388.413793-388.413793-388.413793z"  /><path  d="M564.965517 690.317241c-160.662069 0-287.77931-63.558621-287.77931-144.772413 0-74.151724 100.634483-132.413793 243.641379-143.006897l3.531035 35.310345c-118.289655 8.827586-210.096552 56.496552-210.096552 107.696552 0 52.965517 100.634483 109.462069 252.468965 109.462069s252.468966-56.496552 252.468966-109.462069c0-51.2-91.806897-98.868966-208.331034-107.696552l3.531034-35.310345c141.241379 10.593103 240.110345 70.62069 240.110345 143.006897-1.765517 81.213793-128.882759 144.772414-289.544828 144.772413z"  /><path  d="M605.572414 538.482759h-81.213793c-10.593103 0-17.655172-7.062069-17.655173-17.655173V406.068966c-42.372414-21.186207-70.62069-61.793103-70.620689-107.696552 0-67.089655 56.496552-120.055172 127.117241-120.055173s127.117241 54.731034 127.117241 120.055173c0 45.903448-26.482759 86.510345-70.620689 107.696552v112.993103c3.531034 10.593103-5.296552 19.42069-14.124138 19.42069z m-63.558621-35.310345h45.903448v-107.696552c0-7.062069 5.296552-14.124138 12.358621-15.889655 35.310345-12.358621 58.262069-44.137931 58.262069-79.448276 0-47.668966-42.372414-84.744828-91.806897-84.744828s-91.806897 38.841379-91.806896 84.744828c0 35.310345 22.951724 67.089655 58.262069 79.448276 7.062069 1.765517 12.358621 8.827586 12.358621 15.889655v107.696552z"  /></svg>