<?xml version="1.0" standalone="no"?><!DOCTYPE svg PUBLIC "-//W3C//DTD SVG 1.1//EN" "http://www.w3.org/Graphics/SVG/1.1/DTD/svg11.dtd"><svg class="icon" width="48px" height="43.54px" viewBox="0 0 1129 1024" version="1.1" xmlns="http://www.w3.org/2000/svg"><path  d="M778.593103 716.8H342.510345v-17.655172c0-84.744828 47.668966-158.896552 120.055172-195.972414-33.544828-28.248276-54.731034-70.62069-54.731034-116.524138 0-82.97931 68.855172-151.834483 151.834483-151.834483s151.834483 68.855172 151.834482 151.834483c0 45.903448-19.42069 88.275862-54.731034 116.524138 74.151724 37.075862 120.055172 111.227586 120.055172 195.972414v17.655172z m-400.772413-35.310345h365.462069c-7.062069-72.386207-56.496552-135.944828-127.117242-157.131034l-42.372414-12.358621 38.84138-19.42069c38.841379-19.42069 63.558621-60.027586 63.55862-104.165517 0-63.558621-52.965517-116.524138-116.524137-116.524138s-116.524138 52.965517-116.524138 116.524138c0 44.137931 24.717241 84.744828 63.55862 104.165517L547.310345 512l-42.372414 12.358621c-70.62069 22.951724-120.055172 84.744828-127.117241 157.131034z"  /><path  d="M561.434483 935.724138c-233.048276 0-423.724138-190.675862-423.724138-423.724138s188.910345-423.724138 423.724138-423.724138 423.724138 190.675862 423.724138 423.724138-190.675862 423.724138-423.724138 423.724138z m0-812.137931c-213.627586 0-388.413793 174.786207-388.413793 388.413793s174.786207 388.413793 388.413793 388.413793 388.413793-174.786207 388.413793-388.413793-174.786207-388.413793-388.413793-388.413793z"  /></svg>