<?xml version="1.0" standalone="no"?><!DOCTYPE svg PUBLIC "-//W3C//DTD SVG 1.1//EN" "http://www.w3.org/Graphics/SVG/1.1/DTD/svg11.dtd"><svg class="icon" width="48px" height="43.81px" viewBox="0 0 1122 1024" version="1.1" xmlns="http://www.w3.org/2000/svg"><path  d="M584.386207 902.17931c-3.531034 0-5.296552 0-8.827586-1.765517-5.296552-3.531034-8.827586-8.827586-8.827587-14.124138L564.965517 614.4c0-5.296552 3.531034-12.358621 8.827586-14.124138l298.372414-176.551724c5.296552-3.531034 12.358621-3.531034 17.655173 0 5.296552 3.531034 8.827586 8.827586 8.827586 14.124138l1.765517 270.124138c0 5.296552-3.531034 12.358621-8.827586 14.124138l-298.372414 174.786207c-1.765517 3.531034-5.296552 5.296552-8.827586 5.296551z m15.889655-278.951724l1.765517 231.282759 264.827587-155.365517-1.765518-231.282759-264.827586 155.365517zM503.172414 902.17931c-3.531034 0-8.827586-1.765517-10.593104-3.531034L233.048276 672.662069c-3.531034-3.531034-5.296552-7.062069-5.296552-12.358621l-1.765517-270.124138c0-7.062069 3.531034-12.358621 10.593103-15.889655 5.296552-3.531034 12.358621-1.765517 17.655173 1.765517L512 602.041379c3.531034 3.531034 5.296552 7.062069 5.296552 12.358621l1.765517 270.124138c0 7.062069-3.531034 12.358621-10.593103 15.889655 0 0-1.765517 1.765517-5.296552 1.765517zM261.296552 653.241379l224.220689 194.206897-1.765517-224.22069-224.22069-194.206896 1.765518 224.220689zM536.717241 556.137931c-3.531034 0-8.827586-1.765517-10.593103-3.531034L266.593103 328.386207c-3.531034-3.531034-7.062069-8.827586-5.296551-14.124138s3.531034-10.593103 8.827586-12.358621l298.372414-174.786207c7.062069-3.531034 14.124138-3.531034 19.420689 1.765518L847.448276 353.103448c3.531034 3.531034 7.062069 8.827586 5.296552 14.124138s-3.531034 10.593103-8.827587 12.358621l-298.372413 174.786207c-3.531034 0-7.062069 1.765517-8.827587 1.765517zM305.434483 317.793103l231.282758 201.268966 266.593104-157.131035-229.517242-201.268965L305.434483 317.793103z"  /></svg>