<?xml version="1.0" standalone="no"?><!DOCTYPE svg PUBLIC "-//W3C//DTD SVG 1.1//EN" "http://www.w3.org/Graphics/SVG/1.1/DTD/svg11.dtd"><svg class="icon" width="48px" height="43.81px" viewBox="0 0 1122 1024" version="1.1" xmlns="http://www.w3.org/2000/svg"><path  d="M750.344828 829.793103H188.910345c-8.827586 0-17.655172-7.062069-17.655173-17.655172 0-120.055172 68.855172-224.22069 176.551725-271.889655-51.2-38.841379-82.97931-98.868966-82.979311-164.193104 0-112.993103 91.806897-204.8 204.8-204.8s204.8 91.806897 204.8 204.8c0 65.324138-30.013793 125.351724-82.97931 164.193104 105.931034 47.668966 176.551724 153.6 176.551724 271.889655 0 10.593103-7.062069 17.655172-17.655172 17.655172z m-543.779311-33.544827h527.889655c-7.062069-109.462069-79.448276-203.034483-185.37931-234.813793-7.062069-1.765517-10.593103-8.827586-12.358621-14.124138 0-7.062069 3.531034-14.124138 8.827587-15.889655 58.262069-30.013793 93.572414-88.275862 93.572413-151.834483 0-93.572414-75.917241-169.489655-169.489655-169.489655S300.137931 282.482759 300.137931 376.055172c0 65.324138 35.310345 123.586207 93.572414 151.834483 7.062069 3.531034 10.593103 8.827586 8.827586 15.889655 0 7.062069-5.296552 12.358621-12.358621 14.124138-104.165517 35.310345-176.551724 128.882759-183.613793 238.344828z"  /><path  d="M921.6 829.793103h-120.055172c-8.827586 0-17.655172-7.062069-17.655173-17.655172s7.062069-17.655172 17.655173-17.655172h102.4c-3.531034-91.806897-58.262069-174.786207-146.537931-217.158621-5.296552-1.765517-8.827586-7.062069-8.827587-12.358621 0-5.296552 1.765517-10.593103 5.296552-15.889655 38.841379-33.544828 61.793103-79.448276 61.793104-130.648276 0-81.213793-72.386207-157.131034-165.958621-171.255172-8.827586-1.765517-15.889655-10.593103-14.124138-19.42069 1.765517-8.827586 10.593103-15.889655 19.42069-14.124138 111.227586 17.655172 194.206897 105.931034 194.206896 206.565517 0 51.2-19.42069 100.634483-56.496552 139.475863 90.041379 52.965517 143.006897 144.772414 143.006897 247.172413v5.296552c3.531034 10.593103-5.296552 17.655172-14.124138 17.655172z"  /></svg>