<?xml version="1.0" standalone="no"?><!DOCTYPE svg PUBLIC "-//W3C//DTD SVG 1.1//EN" "http://www.w3.org/Graphics/SVG/1.1/DTD/svg11.dtd"><svg class="icon" width="48px" height="43.81px" viewBox="0 0 1122 1024" version="1.1" xmlns="http://www.w3.org/2000/svg"><path  d="M955.144828 529.655172c-7.062069 0-14.124138-5.296552-14.124138-14.124138 0-215.393103-174.786207-390.17931-390.179311-390.17931-176.551724 0-331.917241 120.055172-376.055172 289.544828 0 8.827586-8.827586 14.124138-15.889655 12.35862-7.062069-1.765517-10.593103-8.827586-8.827586-15.889655C197.737931 227.751724 363.696552 98.868966 552.606897 98.868966c229.517241 0 416.662069 187.144828 416.662069 416.662068 0 8.827586-5.296552 14.124138-14.124138 14.124138zM552.606897 932.193103c-224.22069 0-407.834483-174.786207-416.662069-399.006896 0-7.062069 5.296552-14.124138 12.35862-14.124138 7.062069 0 14.124138 5.296552 14.124138 12.358621 8.827586 210.096552 180.082759 374.289655 390.179311 374.289655 171.255172 0 321.324138-109.462069 372.524137-273.655173 1.765517-7.062069 10.593103-10.593103 17.655173-8.827586 7.062069 1.765517 10.593103 10.593103 8.827586 17.655173-54.731034 174.786207-215.393103 291.310345-399.006896 291.310344z"  /><path  d="M955.144828 591.448276l60.027586-100.634483h-118.289655zM150.068966 457.268966l-58.262069 100.634482h116.524137zM533.186207 685.02069h70.62069v14.124138h-90.04138V670.896552c0-7.062069 0-12.358621 1.765517-15.889655 1.765517-3.531034 3.531034-7.062069 7.062069-8.827587 3.531034-3.531034 7.062069-5.296552 12.358621-7.062069 5.296552-1.765517 10.593103-1.765517 17.655173-1.765517h7.062069c8.827586 0 15.889655 0 19.420689-1.765517 5.296552-3.531034 7.062069-7.062069 7.062069-14.124138 0-5.296552-1.765517-10.593103-7.062069-12.358621-3.531034-1.765517-8.827586-1.765517-17.655172-1.765517h-44.137931v-14.124138H564.965517c10.593103 0 17.655172 0 21.186207 1.765517 7.062069 1.765517 12.358621 5.296552 15.889655 12.358621 1.765517 5.296552 3.531034 8.827586 3.531035 15.889655s-1.765517 12.358621-7.062069 17.655173c-3.531034 5.296552-7.062069 7.062069-12.358621 8.827586-5.296552 1.765517-12.358621 1.765517-21.186207 1.765517h-10.593103c-8.827586 0-14.124138 1.765517-15.889655 3.531035-3.531034 1.765517-5.296552 7.062069-5.296552 15.889655v14.124138zM612.634483 674.427586v-14.124138l61.793103-68.855172h26.482759v68.855172h15.889655v14.124138h-15.889655v24.717242h-17.655173v-24.717242h-70.620689z m19.420689-14.124138h52.965518v-58.262069l-52.965518 58.262069zM748.57931 591.448276v28.248276h17.655173c7.062069 0 14.124138 0 17.655172 1.765517l10.593104 5.296552c3.531034 1.765517 5.296552 5.296552 7.062069 10.593103 1.765517 3.531034 1.765517 10.593103 1.765517 17.655173v44.137931h-15.889655V653.241379c0-8.827586-1.765517-14.124138-3.531035-15.889655-3.531034-3.531034-8.827586-3.531034-15.889655-3.531034h-17.655172v67.089655h-15.889656v-107.696552h14.124138zM534.951724 517.296552c-75.917241 0-137.710345-61.793103-137.710345-137.710345s61.793103-137.710345 137.710345-137.710345 137.710345 61.793103 137.710345 137.710345-61.793103 137.710345-137.710345 137.710345z m0-248.937931c-61.793103 0-111.227586 49.434483-111.227586 111.227586s49.434483 111.227586 111.227586 111.227586 111.227586-49.434483 111.227586-111.227586-49.434483-111.227586-111.227586-111.227586z"  /><path  d="M662.068966 561.434483c-3.531034 0-5.296552-1.765517-8.827587-3.531035-33.544828-26.482759-72.386207-40.606897-114.75862-40.606896-7.062069 0-14.124138-5.296552-14.124138-14.124138s5.296552-14.124138 14.124138-14.124138c47.668966 0 93.572414 15.889655 130.648275 45.903448 5.296552 5.296552 7.062069 12.358621 1.765518 19.42069-1.765517 5.296552-5.296552 7.062069-8.827586 7.062069z"  /><path  d="M344.275862 715.034483c-7.062069 0-14.124138-5.296552-14.124138-14.124138 0-114.758621 93.572414-210.096552 210.096552-210.096552 7.062069 0 14.124138 5.296552 14.124138 14.124138s-5.296552 14.124138-14.124138 14.124138c-100.634483 0-181.848276 81.213793-181.848276 181.848276-1.765517 7.062069-7.062069 14.124138-14.124138 14.124138z"  /></svg>