<?xml version="1.0" standalone="no"?><!DOCTYPE svg PUBLIC "-//W3C//DTD SVG 1.1//EN" "http://www.w3.org/Graphics/SVG/1.1/DTD/svg11.dtd"><svg class="icon" width="48px" height="43.81px" viewBox="0 0 1122 1024" version="1.1" xmlns="http://www.w3.org/2000/svg"><path  d="M903.944828 847.448276H430.786207c-10.593103 0-17.655172-7.062069-17.655173-17.655173V363.696552c0-10.593103 7.062069-17.655172 17.655173-17.655173h473.158621c10.593103 0 17.655172 7.062069 17.655172 17.655173V829.793103c0 10.593103-7.062069 17.655172-17.655172 17.655173z m-455.503449-35.310345h437.848276V381.351724H448.441379V812.137931z"  /><path  d="M584.386207 552.606897c-10.593103 0-17.655172-7.062069-17.655173-17.655173V494.344828c0-10.593103 7.062069-17.655172 17.655173-17.655173s17.655172 7.062069 17.655172 17.655173v40.606896c0 8.827586-8.827586 17.655172-17.655172 17.655173zM734.455172 552.606897c-10.593103 0-17.655172-7.062069-17.655172-17.655173V494.344828c0-10.593103 7.062069-17.655172 17.655172-17.655173s17.655172 7.062069 17.655173 17.655173v40.606896c0 8.827586-7.062069 17.655172-17.655173 17.655173zM584.386207 709.737931c-10.593103 0-17.655172-7.062069-17.655173-17.655172V653.241379c0-10.593103 7.062069-17.655172 17.655173-17.655172s17.655172 7.062069 17.655172 17.655172v40.606897c0 8.827586-8.827586 15.889655-17.655172 15.889655zM734.455172 709.737931c-10.593103 0-17.655172-7.062069-17.655172-17.655172V653.241379c0-10.593103 7.062069-17.655172 17.655172-17.655172s17.655172 7.062069 17.655173 17.655172v40.606897c0 8.827586-7.062069 15.889655-17.655173 15.889655z"  /><path  d="M489.048276 847.448276H266.593103c-10.593103 0-17.655172-7.062069-17.655172-17.655173V197.737931c0-10.593103 7.062069-17.655172 17.655172-17.655172h446.675863c10.593103 0 17.655172 7.062069 17.655172 17.655172v165.958621c0 10.593103-7.062069 17.655172-17.655172 17.655172s-17.655172-7.062069-17.655173-17.655172v-148.303449H284.248276V812.137931h204.8c10.593103 0 17.655172 7.062069 17.655172 17.655172s-8.827586 17.655172-17.655172 17.655173z"  /></svg>