<?xml version="1.0" standalone="no"?><!DOCTYPE svg PUBLIC "-//W3C//DTD SVG 1.1//EN" "http://www.w3.org/Graphics/SVG/1.1/DTD/svg11.dtd"><svg class="icon" width="48px" height="43.81px" viewBox="0 0 1122 1024" version="1.1" xmlns="http://www.w3.org/2000/svg"><path  d="M715.034483 561.434483c-1.765517 0-5.296552 0-7.062069-1.765517-5.296552-1.765517-10.593103-8.827586-10.593104-15.889656l-1.765517-118.289655h-317.793103c-8.827586 0-15.889655-7.062069-15.889656-15.889655v-118.289655c0-5.296552 1.765517-8.827586 5.296552-12.358621 3.531034-3.531034 7.062069-5.296552 12.358621-5.296552l317.793103 3.531035v-105.931035c0-7.062069 3.531034-12.358621 8.827587-15.889655 5.296552-3.531034 12.358621-1.765517 17.655172 1.765517L941.02069 335.448276c3.531034 3.531034 5.296552 7.062069 5.296551 12.358621 0 5.296552-1.765517 8.827586-5.296551 12.35862l-215.393104 194.206897c-3.531034 5.296552-7.062069 7.062069-10.593103 7.062069z m-319.558621-167.724138h317.793104c8.827586 0 15.889655 7.062069 15.889655 15.889655v97.103448l173.020689-157.131034-174.786207-144.772414v90.041379c0 5.296552-1.765517 8.827586-5.296551 12.358621-3.531034 3.531034-7.062069 3.531034-12.358621 5.296552l-317.793103-3.531035v84.744828zM319.558621 429.02069h-111.227587c-8.827586 0-15.889655-7.062069-15.889655-15.889656v-121.820689c0-8.827586 7.062069-15.889655 15.889655-15.889655h111.227587c8.827586 0 15.889655 7.062069 15.889655 15.889655v121.820689c0 8.827586-7.062069 15.889655-15.889655 15.889656z m-95.337931-33.544828h77.682758v-88.275862h-77.682758v88.275862zM437.848276 886.289655c-3.531034 0-7.062069-1.765517-10.593104-3.531034L210.096552 704.441379c-3.531034-3.531034-5.296552-7.062069-5.296552-12.35862 0-5.296552 1.765517-8.827586 5.296552-12.358621l215.393103-194.206897c5.296552-3.531034 12.358621-5.296552 17.655173-3.531034 5.296552 1.765517 10.593103 8.827586 10.593103 15.889655l1.765517 118.289655h317.793104c8.827586 0 15.889655 7.062069 15.889655 15.889655v118.289656c0 5.296552-1.765517 8.827586-5.296552 12.35862-3.531034 3.531034-7.062069 5.296552-12.358621 5.296552l-317.793103-3.531034v107.696551c0 7.062069-3.531034 12.358621-8.827586 15.889655-1.765517-1.765517-5.296552-1.765517-7.062069-1.765517zM245.406897 690.317241l174.786206 144.772414v-90.041379c0-5.296552 1.765517-8.827586 5.296552-12.358621 3.531034-3.531034 7.062069-5.296552 12.358621-5.296552l317.793103 3.531035v-84.744828h-317.793103c-8.827586 0-15.889655-7.062069-15.889655-15.889655v-97.103448l-176.551724 157.131034zM942.786207 766.234483h-111.227586c-8.827586 0-15.889655-7.062069-15.889655-15.889655v-120.055173c0-8.827586 7.062069-15.889655 15.889655-15.889655h111.227586c8.827586 0 15.889655 7.062069 15.889655 15.889655v120.055173c0 8.827586-7.062069 15.889655-15.889655 15.889655zM847.448276 732.689655h77.682758v-86.510345H847.448276v86.510345z"  /></svg>