<?xml version="1.0" standalone="no"?><!DOCTYPE svg PUBLIC "-//W3C//DTD SVG 1.1//EN" "http://www.w3.org/Graphics/SVG/1.1/DTD/svg11.dtd"><svg class="icon" width="48px" height="43.81px" viewBox="0 0 1122 1024" version="1.1" xmlns="http://www.w3.org/2000/svg"><path  d="M672.662069 866.868966h-167.724138c-8.827586 0-14.124138-5.296552-15.889655-14.124138l-7.062069-74.151725c-7.062069-1.765517-14.124138-5.296552-21.186207-8.827586l-56.496552 47.668966c-5.296552 5.296552-15.889655 5.296552-21.186207-1.765517L264.827586 697.37931c-5.296552-5.296552-5.296552-14.124138-1.765517-21.186207l47.668965-56.496551c-3.531034-7.062069-5.296552-14.124138-8.827586-21.186207l-72.386207-7.062069c-8.827586 0-14.124138-7.062069-14.124138-15.889655v-167.724138c0-8.827586 5.296552-14.124138 14.124138-15.889655l74.151725-7.062069c3.531034-7.062069 5.296552-14.124138 8.827586-21.186207L264.827586 307.2c-5.296552-5.296552-5.296552-15.889655 1.765517-21.186207l118.289656-118.289655c5.296552-5.296552 14.124138-5.296552 21.186207-1.765517l56.496551 47.668965c7.062069-3.531034 14.124138-5.296552 21.186207-8.827586l7.062069-74.151724c0-8.827586 8.827586-14.124138 15.889655-14.124138h167.724138c8.827586 0 14.124138 5.296552 15.889655 14.124138l7.062069 74.151724c7.062069 3.531034 14.124138 5.296552 21.186207 8.827586l56.496552-47.668965c5.296552-5.296552 15.889655-5.296552 21.186207 1.765517l118.289655 118.289655c5.296552 5.296552 5.296552 14.124138 1.765517 21.186207L865.103448 367.227586c3.531034 7.062069 5.296552 14.124138 8.827586 21.186207l74.151725 7.062069c8.827586 0 14.124138 7.062069 14.124138 15.889655v167.724138c0 8.827586-5.296552 14.124138-14.124138 15.889655l-74.151725 5.296552c-1.765517 7.062069-5.296552 14.124138-8.827586 21.186207l47.668966 56.496552c5.296552 5.296552 5.296552 15.889655-1.765517 21.186207l-118.289656 118.289655c-5.296552 5.296552-14.124138 5.296552-21.186207 1.765517l-56.496551-47.668966c-7.062069 3.531034-14.124138 5.296552-21.186207 8.827587l-7.062069 74.151724c0 7.062069-7.062069 12.358621-14.124138 12.358621z m-153.6-31.779311h139.475862l7.062069-68.855172c0-5.296552 5.296552-10.593103 10.593103-12.358621 12.358621-3.531034 24.717241-8.827586 35.310345-14.124138 5.296552-3.531034 12.358621-1.765517 17.655173 1.765517l52.965517 44.137931 98.868965-98.868965-44.137931-54.731035c-3.531034-5.296552-5.296552-10.593103-1.765517-17.655172 5.296552-12.358621 10.593103-22.951724 14.124138-35.310345 1.765517-5.296552 7.062069-10.593103 14.124138-10.593103l68.855172-7.062069v-139.475862l-68.855172-7.062069c-5.296552 0-10.593103-5.296552-12.358621-10.593104-3.531034-12.358621-8.827586-24.717241-14.124138-35.310345-3.531034-5.296552-1.765517-12.358621 1.765518-17.655172l44.137931-52.965517-98.868966-98.868966-54.731034 44.137931c-5.296552 3.531034-10.593103 5.296552-17.655173 1.765518-10.593103-5.296552-22.951724-10.593103-35.310345-14.124138-5.296552-1.765517-10.593103-7.062069-10.593103-14.124138l-7.062069-68.855173h-139.475862l-7.062069 68.855173c0 5.296552-5.296552 10.593103-10.593103 12.35862-12.358621 3.531034-24.717241 8.827586-35.310345 14.124138-5.296552 3.531034-12.358621 1.765517-17.655173-1.765517l-52.965517-44.137931-97.103448 102.4 44.137931 52.965517c3.531034 5.296552 5.296552 10.593103 1.765517 17.655173-5.296552 12.358621-10.593103 22.951724-14.124138 35.310345-1.765517 5.296552-7.062069 10.593103-14.124138 10.593103L247.172414 423.724138v139.475862l68.855172 7.062069c5.296552 0 10.593103 5.296552 12.358621 10.593103 3.531034 12.358621 8.827586 24.717241 14.124138 35.310345 3.531034 5.296552 1.765517 12.358621-1.765517 17.655173l-44.137931 52.965517 98.868965 98.868965 52.965517-44.137931c5.296552-3.531034 10.593103-5.296552 17.655173-1.765517 12.358621 5.296552 22.951724 10.593103 35.310345 14.124138 5.296552 1.765517 10.593103 7.062069 10.593103 14.124138l7.062069 67.089655z m70.62069-125.351724c-120.055172 0-217.158621-97.103448-215.393104-217.158621 0-58.262069 22.951724-111.227586 63.558621-151.834482s95.337931-61.793103 153.6-63.558621c118.289655 0 215.393103 97.103448 215.393103 217.158621-1.765517 120.055172-98.868966 215.393103-217.15862 215.393103z m0-400.772414c-49.434483 0-95.337931 19.42069-130.648276 54.731035s-54.731034 81.213793-54.731035 130.648276c0 102.4 82.97931 185.37931 185.379311 185.37931S775.062069 596.744828 775.062069 494.344828s-82.97931-185.37931-185.37931-185.379311zM388.413793 494.344828z"  /></svg>