<?xml version="1.0" standalone="no"?><!DOCTYPE svg PUBLIC "-//W3C//DTD SVG 1.1//EN" "http://www.w3.org/Graphics/SVG/1.1/DTD/svg11.dtd"><svg class="icon" width="48px" height="43.81px" viewBox="0 0 1122 1024" version="1.1" xmlns="http://www.w3.org/2000/svg"><path  d="M873.931034 858.041379H261.296552c-8.827586 0-15.889655-7.062069-15.889655-15.889655V300.137931c0-8.827586 7.062069-15.889655 15.889655-15.889655h612.634482c8.827586 0 15.889655 7.062069 15.889656 15.889655v542.013793c1.765517 8.827586-5.296552 15.889655-15.889656 15.889655z m-594.97931-31.77931h580.855173V316.027586H278.951724v510.234483z"  /><path  d="M873.931034 466.096552H270.124138c-8.827586 0-15.889655-7.062069-15.889655-15.889655s7.062069-15.889655 15.889655-15.889656h605.572414c8.827586 0 15.889655 7.062069 15.889655 15.889656s-8.827586 15.889655-17.655173 15.889655zM411.365517 365.462069c-8.827586 0-15.889655-7.062069-15.889655-15.889655v-123.586207c0-8.827586 7.062069-15.889655 15.889655-15.889655s15.889655 7.062069 15.889655 15.889655v123.586207c0 8.827586-7.062069 15.889655-15.889655 15.889655zM715.034483 363.696552c-8.827586 0-15.889655-7.062069-15.889655-15.889655v-120.055173c0-8.827586 7.062069-15.889655 15.889655-15.889655s15.889655 7.062069 15.889655 15.889655v120.055173c0 8.827586-7.062069 15.889655-15.889655 15.889655zM464.331034 630.289655h-79.448275c-8.827586 0-15.889655-7.062069-15.889656-15.889655v-79.448276c0-8.827586 7.062069-15.889655 15.889656-15.889655h79.448275c8.827586 0 15.889655 7.062069 15.889656 15.889655v79.448276c-1.765517 8.827586-8.827586 15.889655-15.889656 15.889655z m-65.324137-31.77931h49.434482v-49.434483h-49.434482v49.434483zM624.993103 630.289655h-79.448275c-8.827586 0-15.889655-7.062069-15.889656-15.889655v-79.448276c0-8.827586 7.062069-15.889655 15.889656-15.889655h79.448275c8.827586 0 15.889655 7.062069 15.889656 15.889655v79.448276c-1.765517 8.827586-7.062069 15.889655-15.889656 15.889655z m-65.324137-31.77931h49.434482v-49.434483h-49.434482v49.434483zM771.531034 630.289655h-79.448275c-8.827586 0-15.889655-7.062069-15.889656-15.889655v-79.448276c0-8.827586 7.062069-15.889655 15.889656-15.889655h79.448275c8.827586 0 15.889655 7.062069 15.889656 15.889655v79.448276c0 8.827586-7.062069 15.889655-15.889656 15.889655z m-63.55862-31.77931h49.434483v-49.434483h-49.434483v49.434483zM464.331034 771.531034h-79.448275c-8.827586 0-15.889655-7.062069-15.889656-15.889655v-79.448276c0-8.827586 7.062069-15.889655 15.889656-15.889655h79.448275c8.827586 0 15.889655 7.062069 15.889656 15.889655v79.448276c-1.765517 8.827586-8.827586 15.889655-15.889656 15.889655z m-65.324137-31.77931h49.434482v-49.434483h-49.434482v49.434483zM624.993103 771.531034h-79.448275c-8.827586 0-15.889655-7.062069-15.889656-15.889655v-79.448276c0-8.827586 7.062069-15.889655 15.889656-15.889655h79.448275c8.827586 0 15.889655 7.062069 15.889656 15.889655v79.448276c-1.765517 8.827586-7.062069 15.889655-15.889656 15.889655z m-65.324137-31.77931h49.434482v-49.434483h-49.434482v49.434483zM771.531034 771.531034h-79.448275c-8.827586 0-15.889655-7.062069-15.889656-15.889655v-79.448276c0-8.827586 7.062069-15.889655 15.889656-15.889655h79.448275c8.827586 0 15.889655 7.062069 15.889656 15.889655v79.448276c0 8.827586-7.062069 15.889655-15.889656 15.889655z m-63.55862-31.77931h49.434483v-49.434483h-49.434483v49.434483z"  /></svg>