<?xml version="1.0" standalone="no"?><!DOCTYPE svg PUBLIC "-//W3C//DTD SVG 1.1//EN" "http://www.w3.org/Graphics/SVG/1.1/DTD/svg11.dtd"><svg class="icon" width="48px" height="43.54px" viewBox="0 0 1129 1024" version="1.1" xmlns="http://www.w3.org/2000/svg"><path  d="M574.675862 720.684138c-272.595862 0-419.84-81.037241-419.84-157.131035 0-39.724138 35.310345-75.387586 99.575172-103.45931a16.595862 16.595862 0 1 1 13.064828 30.543448c-50.493793 21.715862-79.448276 48.198621-79.448276 72.915862 0 58.615172 158.896552 123.586207 386.648276 123.586207s386.471724-65.324138 386.471724-123.586207c0-25.070345-29.837241-52.965517-82.096552-74.151724a16.595862 16.595862 0 0 1 12.888276-30.366896c67.089655 28.248276 102.4 64.441379 102.4 104.695172 0 75.917241-146.891034 156.954483-419.663448 156.954483z"  /><path  d="M574.675862 887.878621c-242.052414 0-492.57931-68.148966-492.57931-182.377931 0-31.426207 18.891034-60.733793 55.966896-86.863449a16.595862 16.595862 0 0 1 19.244138 27.188966c-19.067586 13.417931-41.842759 35.310345-41.842758 59.674483 0 88.275862 241.875862 149.186207 459.034482 149.186207s459.034483-61.263448 459.034483-149.186207a70.62069 70.62069 0 0 0-30.366896-51.023449 16.595862 16.595862 0 0 1 20.833103-25.423448A100.811034 100.811034 0 0 1 1067.078621 706.206897c0 113.522759-250.350345 181.671724-492.402759 181.671724zM642.118621 490.637241a16.41931 16.41931 0 0 1-12.535173-5.649655l-43.961379-51.2-47.13931 50.317242a16.595862 16.595862 0 1 1-24.187587-22.598621l59.674483-63.911724a16.595862 16.595862 0 0 1 12.535173-5.296552 17.655172 17.655172 0 0 1 12.182069 5.826207l55.966896 65.147586a16.41931 16.41931 0 0 1-12.535172 27.365517z"  /><path  d="M726.157241 576.617931H435.023448a128 128 0 1 1 63.911724-238.521379 107.696552 107.696552 0 0 1 215.216552 5.473103h12.005517a116.171034 116.171034 0 1 1 0 232.342069z m-291.310344-222.631724a94.808276 94.808276 0 1 0 0 189.44h291.310344a82.97931 82.97931 0 0 0 0-165.958621h-30.366896a16.595862 16.595862 0 0 1-12.888276-6.002758 17.655172 17.655172 0 0 1-3.531035-13.771035 67.972414 67.972414 0 0 0 1.588966-14.124138 74.504828 74.504828 0 1 0-149.009655 0 79.801379 79.801379 0 0 0 1.412414 14.124138 16.242759 16.242759 0 0 1-3.707587 13.064828 16.066207 16.066207 0 0 1-12.711724 6.002758h-14.124138a17.655172 17.655172 0 0 1-10.24-3.531034 93.572414 93.572414 0 0 0-57.732413-19.244138z"  /></svg>