<?xml version="1.0" standalone="no"?><!DOCTYPE svg PUBLIC "-//W3C//DTD SVG 1.1//EN" "http://www.w3.org/Graphics/SVG/1.1/DTD/svg11.dtd"><svg class="icon" width="48px" height="43.54px" viewBox="0 0 1129 1024" version="1.1" xmlns="http://www.w3.org/2000/svg"><path  d="M570.615172 722.449655c-276.126897 0-424.96-82.273103-424.96-158.896552 0-28.248276 17.655172-69.384828 100.987587-105.931034a17.655172 17.655172 0 1 1 13.947586 32.485517c-50.670345 21.892414-79.624828 48.375172-79.624828 72.915862 0 58.791724 159.955862 123.586207 389.649655 123.586207s389.649655-65.50069 389.649656-123.586207c0-25.070345-30.013793-51.906207-82.449656-74.151724a17.655172 17.655172 0 1 1 13.771035-32.485517c85.98069 36.193103 103.988966 78.035862 103.988965 105.931034 0 77.85931-148.126897 160.132414-424.96 160.132414z"  /><path  d="M638.764138 490.107586a17.655172 17.655172 0 0 1-13.417931-6.17931l-43.784828-50.846897-46.786207 50.14069A17.655172 17.655172 0 1 1 508.998621 459.034483l60.380689-64.44138a17.655172 17.655172 0 0 1 26.129656 0l56.673103 65.853794a17.655172 17.655172 0 0 1-13.417931 29.131034z"  /><path  d="M723.862069 576.794483H429.550345a130.118621 130.118621 0 1 1 63.735172-243.288276 109.638621 109.638621 0 0 1 219.10069 6.885517H723.862069a118.289655 118.289655 0 0 1 0 236.402759zM429.373793 352.044138a94.808276 94.808276 0 1 0 0 189.44H723.862069a82.97931 82.97931 0 0 0 0-165.782069h-30.896552a17.655172 17.655172 0 0 1-17.655172-21.009655 81.390345 81.390345 0 0 0 1.412414-14.124138 74.328276 74.328276 0 0 0-148.656552 0 81.390345 81.390345 0 0 0 1.412414 14.124138 17.655172 17.655172 0 0 1-17.655173 21.009655h-14.300689a17.655172 17.655172 0 0 1-10.769656-3.707586 94.102069 94.102069 0 0 0-57.37931-19.950345z"  /></svg>