<?xml version="1.0" standalone="no"?><!DOCTYPE svg PUBLIC "-//W3C//DTD SVG 1.1//EN" "http://www.w3.org/Graphics/SVG/1.1/DTD/svg11.dtd"><svg class="icon" width="48px" height="43.54px" viewBox="0 0 1129 1024" version="1.1" xmlns="http://www.w3.org/2000/svg"><path  d="M927.249655 762.526897h-690.317241a17.655172 17.655172 0 0 1-17.655173-17.655173v-485.517241a17.655172 17.655172 0 0 1 17.655173-17.655173h690.317241a17.655172 17.655172 0 0 1 17.655173 17.655173v485.517241a17.655172 17.655172 0 0 1-17.655173 17.655173z m-672.662069-35.310345h655.006897v-450.206897h-655.006897z"  /><path  d="M428.667586 417.897931h-101.693793a17.655172 17.655172 0 1 1 0-35.310345h101.693793a17.655172 17.655172 0 0 1 0 35.310345zM428.667586 486.4h-101.693793a17.655172 17.655172 0 0 1 0-35.310345h101.693793a17.655172 17.655172 0 0 1 0 35.310345zM428.667586 562.670345h-101.693793a17.655172 17.655172 0 0 1 0-35.310345h101.693793a17.655172 17.655172 0 0 1 0 35.310345zM503.348966 638.234483h-176.551725a17.655172 17.655172 0 0 1 0-35.310345h176.551725a17.655172 17.655172 0 0 1 0 35.310345zM694.024828 678.488276a17.655172 17.655172 0 0 1-14.124138-7.062069l-18.714483-24.893793c-31.249655-41.313103-78.388966-103.812414-93.21931-130.824828a131.177931 131.177931 0 0 1 15.889655-142.477241 143.183448 143.183448 0 0 1 114.052414-59.497931 138.416552 138.416552 0 0 1 37.252413 5.12A150.422069 150.422069 0 0 1 829.793103 404.656552a121.644138 121.644138 0 0 1 9.710345 67.972414 104.695172 104.695172 0 0 1-18.537931 48.022068l-6.002758 9.710345a713.975172 713.975172 0 0 1-65.50069 88.275862c-13.947586 17.655172-28.424828 35.310345-41.313103 52.965518a17.655172 17.655172 0 0 1-14.124138 7.23862z m3.884138-329.445517a107.696552 107.696552 0 0 0-85.627587 45.020689 96.926897 96.926897 0 0 0-13.241379 104.871724c13.417931 24.54069 61.616552 88.275862 90.217931 126.234483a74.504828 74.504828 0 0 1 4.766897 6.355862c9.357241-11.828966 18.891034-23.481379 28.248275-35.310345A697.37931 697.37931 0 0 0 784.772414 512l6.17931-10.063448a70.62069 70.62069 0 0 0 13.771035-35.310345 90.394483 90.394483 0 0 0-7.062069-49.081379A115.817931 115.817931 0 0 0 725.627586 353.103448a104.871724 104.871724 0 0 0-27.71862-4.060689z m0 183.260689A73.445517 73.445517 0 1 1 770.824828 459.034483a73.622069 73.622069 0 0 1-73.445518 73.268965z m0-111.580689A38.135172 38.135172 0 1 0 735.514483 459.034483a38.311724 38.311724 0 0 0-38.135173-38.311724z"  /></svg>