<?xml version="1.0" standalone="no"?><!DOCTYPE svg PUBLIC "-//W3C//DTD SVG 1.1//EN" "http://www.w3.org/Graphics/SVG/1.1/DTD/svg11.dtd"><svg class="icon" width="48px" height="43.54px" viewBox="0 0 1129 1024" version="1.1" xmlns="http://www.w3.org/2000/svg"><path  d="M601.864828 833.324138h-3.354483c-2.295172 0-242.758621-48.904828-287.955862-310.907586a17.655172 17.655172 0 0 1 0-3.00138V269.771034a17.655172 17.655172 0 0 1 5.826207-13.064827 17.655172 17.655172 0 0 1 13.417931-4.413793c1.235862 0 126.411034 9.886897 261.649655-90.747586a17.655172 17.655172 0 0 1 21.009655 0c1.412414 1.05931 139.475862 100.634483 258.471724 90.924138a17.655172 17.655172 0 0 1 13.417931 4.590344 17.655172 17.655172 0 0 1 5.649655 12.888276v228.28138c0 1.765517 9.533793 254.94069-282.482758 335.448275a19.244138 19.244138 0 0 1-5.649655-0.353103zM345.688276 517.649655a345.864828 345.864828 0 0 0 255.646896 279.834483C861.925517 723.862069 855.04 508.292414 854.510345 499.111724V288.308966c-107.166897 0-218.041379-67.972414-252.468966-90.924138a464.86069 464.86069 0 0 1-256.353103 90.571034z"  /><path  d="M633.467586 502.642759h-63.911724a17.655172 17.655172 0 0 1 0-35.310345h63.911724a17.655172 17.655172 0 0 1 0 35.310345zM704.617931 435.729655h-44.491034a17.655172 17.655172 0 0 1-13.064828-6.002758l-48.551724-54.024828h-55.084138a17.655172 17.655172 0 0 1 0-35.310345h63.028965a17.655172 17.655172 0 0 1 13.064828 6.002759l48.551724 54.024827h36.546207a17.655172 17.655172 0 0 1 0 35.310345zM567.966897 642.648276H512a17.655172 17.655172 0 0 1 0-35.310345h48.904828l65.500689-62.675862a17.655172 17.655172 0 0 1 12.182069-4.943448h96.750345a17.655172 17.655172 0 0 1 0 35.310345h-89.511724l-65.50069 62.675862a17.655172 17.655172 0 0 1-12.35862 4.943448z"  /><path  d="M510.587586 408.54069a50.493793 50.493793 0 1 1 50.493793-50.493793 50.670345 50.670345 0 0 1-50.493793 50.493793z m0-65.677242a15.183448 15.183448 0 1 0 0 30.366897 15.183448 15.183448 0 0 0 0-30.366897zM743.635862 468.568276A50.493793 50.493793 0 1 1 794.482759 418.074483a50.670345 50.670345 0 0 1-50.846897 50.493793z m0-65.677242a15.183448 15.183448 0 1 0 15.183448 15.183449 15.183448 15.183448 0 0 0-15.183448-15.183449zM529.655172 534.068966a50.493793 50.493793 0 1 1 50.493794-50.493794A50.670345 50.670345 0 0 1 529.655172 534.068966z m0-65.677242a15.183448 15.183448 0 1 0 15.183449 15.183448 15.36 15.36 0 0 0-15.183449-15.183448zM662.245517 527.889655A44.314483 44.314483 0 1 1 706.206897 483.575172a44.491034 44.491034 0 0 1-43.96138 44.314483z m0-52.965517a9.004138 9.004138 0 1 0 9.004138 9.004138 9.004138 9.004138 0 0 0-9.004138-9.357242zM479.867586 675.486897A50.493793 50.493793 0 1 1 529.655172 624.993103a50.670345 50.670345 0 0 1-49.787586 50.493794z m0-65.677242a15.183448 15.183448 0 1 0 15.183448 15.183448 15.183448 15.183448 0 0 0-15.183448-15.183448zM768.176552 607.867586a50.493793 50.493793 0 1 1 50.493793-50.493793 50.670345 50.670345 0 0 1-50.493793 50.493793z m0-65.677241a15.183448 15.183448 0 0 0 0 30.366896 15.183448 15.183448 0 0 0 0-30.366896z"  /></svg>