<?xml version="1.0" standalone="no"?><!DOCTYPE svg PUBLIC "-//W3C//DTD SVG 1.1//EN" "http://www.w3.org/Graphics/SVG/1.1/DTD/svg11.dtd"><svg class="icon" width="48px" height="43.54px" viewBox="0 0 1129 1024" version="1.1" xmlns="http://www.w3.org/2000/svg"><path  d="M354.162759 338.273103a17.655172 17.655172 0 0 1-8.827587-33.015172L547.310345 188.557241a17.655172 17.655172 0 0 1 17.655172 30.543449L362.990345 335.448276a17.655172 17.655172 0 0 1-8.827586 2.824827zM319.382069 632.055172a17.655172 17.655172 0 0 1-17.655172-17.655172V382.94069a17.655172 17.655172 0 0 1 35.310344 0V614.4a17.655172 17.655172 0 0 1-17.655172 17.655172zM556.844138 805.428966a17.655172 17.655172 0 0 1-8.827586-2.295173l-208.154483-120.231724a17.655172 17.655172 0 0 1 17.655172-30.543448L564.965517 772.413793a17.655172 17.655172 0 0 1 6.355862 24.187586 17.655172 17.655172 0 0 1-14.477241 8.827587zM617.931034 805.428966a17.655172 17.655172 0 0 1-8.827586-33.015173l202.504828-116.877241a17.655172 17.655172 0 0 1 24.187586 6.355862 17.655172 17.655172 0 0 1-6.532414 24.187586l-203.387586 117.053793a17.655172 17.655172 0 0 1-7.944828 2.295173zM854.333793 624.993103a17.655172 17.655172 0 0 1-17.655172-17.655172V391.415172a17.655172 17.655172 0 0 1 35.310345 0V607.337931a17.655172 17.655172 0 0 1-17.655173 17.655172zM827.321379 344.09931a17.655172 17.655172 0 0 1-8.827586-2.471724l-210.273103-121.467586a17.655172 17.655172 0 1 1 17.655172-30.543448l210.273104 121.467586a17.655172 17.655172 0 0 1-8.827587 33.015172z"  /><path  d="M319.382069 400.595862a52.965517 52.965517 0 1 1 52.965517-52.965517 52.965517 52.965517 0 0 1-52.965517 52.965517z m0-69.384828a17.655172 17.655172 0 1 0 17.655172 17.655173 17.655172 17.655172 0 0 0-17.655172-17.655173zM586.857931 239.933793a52.965517 52.965517 0 1 1 52.965517-52.965517 52.965517 52.965517 0 0 1-52.965517 52.965517z m0-69.561379a17.655172 17.655172 0 1 0 17.655172 17.655172 17.655172 17.655172 0 0 0-17.655172-17.655172zM854.333793 400.595862a52.965517 52.965517 0 1 1 52.965517-52.965517 52.965517 52.965517 0 0 1-52.965517 52.965517z m0-69.384828a17.655172 17.655172 0 1 0 17.655173 17.655173 17.655172 17.655172 0 0 0-17.655173-17.655173zM854.333793 701.44a52.965517 52.965517 0 1 1 52.965517-52.965517 52.965517 52.965517 0 0 1-52.965517 52.965517z m0-69.384828a17.655172 17.655172 0 1 0 17.655173 17.655173 17.655172 17.655172 0 0 0-17.655173-17.655173zM586.857931 857.511724a52.965517 52.965517 0 1 1 52.965517-52.965517 52.965517 52.965517 0 0 1-52.965517 52.965517z m0-69.384827a17.655172 17.655172 0 1 0 17.655172 17.655172 17.655172 17.655172 0 0 0-17.655172-17.655172zM319.382069 701.44a52.965517 52.965517 0 1 1 52.965517-52.965517 52.965517 52.965517 0 0 1-52.965517 52.965517z m0-69.384828a17.655172 17.655172 0 1 0 17.655172 17.655173 17.655172 17.655172 0 0 0-17.655172-17.655173zM586.857931 548.722759a52.965517 52.965517 0 1 1 52.965517-52.965518 52.965517 52.965517 0 0 1-52.965517 52.965518z m0-69.56138a17.655172 17.655172 0 1 0 17.655172 17.655173 17.655172 17.655172 0 0 0-17.655172-17.655173z"  /><path  d="M586.857931 479.161379a17.655172 17.655172 0 0 1-9.886897-3.001379 17.655172 17.655172 0 0 1-7.768275-14.653793V222.278621a17.655172 17.655172 0 1 1 35.310344 0v213.097931l211.862069-86.686897a17.655172 17.655172 0 0 1 13.417931 32.838621l-236.226206 96.397241a17.655172 17.655172 0 0 1-6.708966 1.235862zM586.857931 788.126897a17.655172 17.655172 0 0 1-17.655172-17.655173V531.067586a17.655172 17.655172 0 0 1 24.540689-16.242758l232.695173 98.162758a17.655172 17.655172 0 0 1-14.30069 32.485517l-208.154483-88.275862v213.274483a17.655172 17.655172 0 0 1-17.125517 17.655173zM349.572414 649.533793a17.655172 17.655172 0 0 1-14.653793-7.768276 17.655172 17.655172 0 0 1 4.766896-23.834483l180.435862-120.761379-179.906207-116.524138a17.655172 17.655172 0 1 1 19.244138-29.660689l202.328276 131.177931a17.655172 17.655172 0 0 1 7.944828 14.653793 17.655172 17.655172 0 0 1-7.768276 14.830345l-202.504828 134.885517a17.655172 17.655172 0 0 1-9.886896 3.001379z"  /></svg>