<?xml version="1.0" standalone="no"?><!DOCTYPE svg PUBLIC "-//W3C//DTD SVG 1.1//EN" "http://www.w3.org/Graphics/SVG/1.1/DTD/svg11.dtd"><svg class="icon" width="48px" height="43.54px" viewBox="0 0 1129 1024" version="1.1" xmlns="http://www.w3.org/2000/svg"><path  d="M806.841379 281.246897H356.811034a17.655172 17.655172 0 0 1 0-35.310345H806.841379a17.655172 17.655172 0 0 1 0 35.310345zM768 364.932414H395.652414a17.655172 17.655172 0 1 1 0-35.310345H768a17.655172 17.655172 0 0 1 0 35.310345zM582.62069 650.416552h-3.177931c-66.913103 0-93.042759-52.965517-99.575173-90.747586H288.308966a17.655172 17.655172 0 0 1-13.771035-28.60138l99.398621-123.586207a17.655172 17.655172 0 0 1 13.771034-6.532413h383.646897a17.655172 17.655172 0 0 1 13.594483 6.355862l103.988965 123.586206a17.655172 17.655172 0 0 1-13.594483 28.954483h-190.675862A105.931034 105.931034 0 0 1 582.62069 650.416552z m-257.588966-126.234483h171.255173a17.655172 17.655172 0 0 1 17.655172 17.655172c0 7.415172 4.237241 73.445517 66.736552 73.445518 6.885517 0 62.322759 0 70.620689-75.211035a17.655172 17.655172 0 0 1 17.655173-15.536552h167.900689l-74.504827-88.275862H396.182069z"  /><path  d="M875.343448 775.062069H288.308966a17.655172 17.655172 0 0 1-17.655173-17.655172V541.837241a17.655172 17.655172 0 1 1 35.310345 0V739.751724h551.724138V541.837241a17.655172 17.655172 0 1 1 35.310345 0V757.406897a17.655172 17.655172 0 0 1-17.655173 17.655172z"  /></svg>